<svg width="26" height="12" viewBox="0 0 26 12" fill="none" xmlns="http://www.w3.org/2000/svg">
<path d="M24.9844 5.03226H3.47559L7.0386 1.65367C7.43617 1.27664 7.43769 0.663916 7.042 0.285093C6.64632 -0.0937777 6.00322 -0.0951806 5.60566 0.281803L0.298816 5.31406C0.29846 5.31435 0.298207 5.31469 0.297902 5.31498C-0.0986486 5.69202 -0.0999182 6.30673 0.2978 6.68502C0.298156 6.68531 0.29841 6.68565 0.298714 6.68594L5.60555 11.7182C6.00307 12.0951 6.64616 12.0938 7.0419 11.7149C7.43759 11.3361 7.43606 10.7234 7.0385 10.3463L3.47559 6.96774H24.9844C25.5453 6.96774 26 6.53448 26 6C26 5.46552 25.5453 5.03226 24.9844 5.03226Z" fill="#9214E0"/>
</svg>
