<svg width="12" height="7" viewBox="0 0 12 7" fill="none" xmlns="http://www.w3.org/2000/svg">
<path d="M1.43051e-05 0.879362C-0.000974655 0.705709 0.0487432 0.53569 0.142831 0.39098C0.236918 0.246269 0.371112 0.133425 0.528304 0.0668341C0.685495 0.00024315 0.858562 -0.0170776 1.02544 0.0170801C1.19232 0.0512379 1.34544 0.135326 1.4653 0.258625L5.99825 4.8923L10.5312 0.258625C10.6926 0.0939954 10.9114 0.00150728 11.1396 0.00150728C11.2526 0.00150728 11.3645 0.0242135 11.4689 0.0683299C11.5733 0.112446 11.6681 0.177109 11.748 0.258625C11.8279 0.340142 11.8913 0.436915 11.9345 0.543421C11.9777 0.649928 12 0.764081 12 0.879362C12 1.11218 11.9094 1.33547 11.748 1.5001L6.60665 6.74577C6.4461 6.9086 6.22892 7 6.00254 7C5.77616 7 5.55898 6.9086 5.39843 6.74577L0.257081 1.5001C0.176115 1.41913 0.111704 1.32257 0.0675774 1.21602C0.0234499 1.10946 0.00048542 0.995036 1.43051e-05 0.879362Z" fill="black"/>
</svg>
