<svg width="26" height="12" viewBox="0 0 26 12" fill="none" xmlns="http://www.w3.org/2000/svg">
<path d="M1.01562 5.03226H22.5244L18.9614 1.65367C18.5638 1.27664 18.5623 0.663916 18.958 0.285093C19.3537 -0.0937777 19.9968 -0.0951806 20.3943 0.281803L25.7012 5.31406C25.7015 5.31435 25.7018 5.31469 25.7021 5.31498C26.0986 5.69202 26.0999 6.30673 25.7022 6.68502C25.7018 6.68531 25.7016 6.68565 25.7013 6.68594L20.3944 11.7182C19.9969 12.0951 19.3538 12.0938 18.9581 11.7149C18.5624 11.3361 18.5639 10.7234 18.9615 10.3463L22.5244 6.96774H1.01562C0.454695 6.96774 0 6.53448 0 6C0 5.46552 0.454695 5.03226 1.01562 5.03226Z" fill="#9214E0"/>
</svg>
