<svg width="8" height="13" viewBox="0 0 8 13" fill="none" xmlns="http://www.w3.org/2000/svg">
<path d="M1.37936 12.5C1.20571 12.501 1.03569 12.4513 0.89098 12.3572C0.746269 12.2631 0.633425 12.1289 0.566834 11.9717C0.500243 11.8145 0.482922 11.6414 0.51708 11.4746C0.551238 11.3077 0.635326 11.1546 0.758625 11.0347L5.3923 6.50175L0.758625 1.96879C0.593995 1.80743 0.501507 1.58859 0.501507 1.3604C0.501507 1.24741 0.524214 1.13553 0.56833 1.03114C0.612446 0.926749 0.677109 0.8319 0.758625 0.752005C0.840142 0.672109 0.936915 0.608733 1.04342 0.565494C1.14993 0.522255 1.26408 0.5 1.37936 0.5C1.61218 0.5 1.83547 0.590649 2.0001 0.752005L7.24577 5.89335C7.4086 6.0539 7.5 6.27108 7.5 6.49746C7.5 6.72384 7.4086 6.94102 7.24577 7.10157L2.0001 12.2429C1.91913 12.3239 1.82257 12.3883 1.71602 12.4324C1.60946 12.4766 1.49504 12.4995 1.37936 12.5Z" fill="#AAAAAA"/>
</svg>
