<svg width="65" height="58" viewBox="0 0 65 58" fill="none" xmlns="http://www.w3.org/2000/svg">
<path d="M27.6994 2.78307L0.743404 49.6487C0.256484 50.495 9.01186e-05 51.4551 2.37522e-08 52.4324C-9.00711e-05 53.4097 0.256127 54.3699 0.742891 55.2163C1.22966 56.0627 1.92981 56.7656 2.77298 57.2542C3.61614 57.7429 4.57259 58.0001 5.54618 58H59.4538C60.4274 58.0001 61.3839 57.7429 62.227 57.2542C63.0702 56.7656 63.7703 56.0627 64.2571 55.2163C64.7439 54.3699 65.0001 53.4097 65 52.4324C64.9999 51.4551 64.7435 50.495 64.2566 49.6487L37.3035 2.78307C36.8168 1.93691 36.1168 1.23425 35.2739 0.745719C34.431 0.257189 33.4748 0 32.5014 0C31.5281 0 30.5719 0.257189 29.729 0.745719C28.8861 1.23425 28.1861 1.93691 27.6994 2.78307Z" fill="#FFB400"/>
<path d="M32.8534 17.2375H32.1502C30.419 17.2375 29.0156 18.6463 29.0156 20.3842V35.4246C29.0156 37.1624 30.419 38.5712 32.1502 38.5712H32.8534C34.5845 38.5712 35.9879 37.1624 35.9879 35.4246V20.3842C35.9879 18.6463 34.5845 17.2375 32.8534 17.2375Z" fill="white"/>
<path d="M32.5018 50.4999C34.4271 50.4999 35.9879 48.9331 35.9879 47.0003C35.9879 45.0675 34.4271 43.5007 32.5018 43.5007C30.5764 43.5007 29.0156 45.0675 29.0156 47.0003C29.0156 48.9331 30.5764 50.4999 32.5018 50.4999Z" fill="white"/>
</svg>
