<svg width="20" height="20" viewBox="0 0 20 20" fill="none" xmlns="http://www.w3.org/2000/svg">
<path d="M10 0C4.48438 0 0 4.48438 0 10C0 15.5156 4.48438 20 10 20C15.5156 20 20 15.5156 20 10C20 4.48438 15.5156 0 10 0ZM10 18.75C5.17578 18.75 1.25 14.8242 1.25 10C1.25 5.17578 5.17578 1.25 10 1.25C14.8242 1.25 18.75 5.17578 18.75 10C18.75 14.8242 14.8242 18.75 10 18.75ZM14.8359 6.62891C15.0781 6.87109 15.0781 7.26953 14.8359 7.51172L8.97656 13.3711C8.85547 13.4922 8.69531 13.5547 8.53516 13.5547C8.375 13.5547 8.21484 13.4922 8.09375 13.3711L5.16406 10.4414C4.92188 10.1992 4.92188 9.80078 5.16406 9.55859C5.40625 9.31641 5.80469 9.31641 6.04688 9.55859L8.53516 12.0469L13.9531 6.62891C14.1953 6.38281 14.5938 6.38281 14.8359 6.62891Z" fill="#9214E0"/>
</svg>
