<svg width="18" height="23" viewBox="0 0 18 23" fill="none" xmlns="http://www.w3.org/2000/svg">
<path fill-rule="evenodd" clip-rule="evenodd" d="M1.02618 22.9996C0.847693 23.0046 0.671188 22.9595 0.515 22.8691C0.358863 22.7785 0.228755 22.6459 0.138192 22.4851C0.0476294 22.3242 -8.64972e-05 22.1409 1.17709e-07 21.9543V3.13633C1.17709e-07 2.30452 0.316071 1.50678 0.87868 0.918609C1.44129 0.330433 2.20435 0 3 0H15C15.7956 0 16.5587 0.330433 17.1213 0.918609C17.6839 1.50678 18 2.30452 18 3.13633V21.9543C18 22.1409 17.9522 22.3241 17.8616 22.4849C17.771 22.6457 17.6409 22.7782 17.4848 22.8687C17.3286 22.9591 17.1522 23.0043 16.9738 22.9994C16.7953 22.9945 16.6214 22.9397 16.47 22.8408L9 17.9597L1.53 22.8408C1.37863 22.9398 1.20467 22.9947 1.02618 22.9996Z" fill="#9214E0"/>
</svg>
