<svg width="14" height="14" viewBox="0 0 14 14" fill="none" xmlns="http://www.w3.org/2000/svg">
<path fill-rule="evenodd" clip-rule="evenodd" d="M0.281671 12.3625C-0.0931452 12.7375 -0.0930875 13.3451 0.281787 13.7199C0.656661 14.0948 1.26439 14.0948 1.6392 13.7198L7.00012 8.358L12.3615 13.7194C12.7363 14.0942 13.3441 14.0942 13.7189 13.7194C14.0937 13.3446 14.0937 12.7368 13.7189 12.362L8.35743 7.00051L13.7185 1.63849C14.0932 1.26361 14.0932 0.655884 13.7183 0.281077C13.3435 -0.09374 12.7357 -0.0936827 12.3609 0.281191L6.99993 5.6431L1.63855 0.281652C1.26371 -0.0931834 0.65597 -0.0931834 0.281134 0.281652C-0.0937113 0.656498 -0.0937113 1.26423 0.281134 1.63907L5.64272 7.0006L0.281671 12.3625Z" fill="#222222"/>
</svg>
