<svg width="20" height="20" viewBox="0 0 20 20" fill="none" xmlns="http://www.w3.org/2000/svg">
<path fill-rule="evenodd" clip-rule="evenodd" d="M10 0C15.5192 0 20 4.48077 20 10C20 15.5192 15.5192 20 10 20C4.48077 20 0 15.5192 0 10C0 4.48077 4.48077 0 10 0ZM4.56077 10.5438L7.82462 13.8077C8.12462 14.1077 8.61154 14.1077 8.91231 13.8077L15.4392 7.28C15.7392 6.98 15.7392 6.49308 15.4392 6.19231C15.1392 5.89231 14.6515 5.89231 14.3515 6.19231L8.36846 12.1754L5.64846 9.45615C5.34846 9.15615 4.86077 9.15615 4.56077 9.45615C4.26077 9.75615 4.26077 10.2438 4.56077 10.5438Z" fill="#299C2E"/>
</svg>
