<svg width="30" height="30" viewBox="0 0 30 30" fill="none" xmlns="http://www.w3.org/2000/svg">
<g clip-path="url(#clip0_3421_618)">
<path d="M14.9998 18.7471C9.21457 18.7471 4.33754 17.2284 2.0791 14.9863V18.664C2.79309 21.0677 7.79885 23.438 14.9998 23.438C22.2005 23.438 27.2063 21.0678 27.9206 18.6642V14.9863C25.6622 17.2284 20.7852 18.7471 14.9998 18.7471Z" fill="#9214E0"/>
<path d="M14.9998 12.5967C9.21457 12.5967 4.33754 11.0781 2.0791 8.83594V12.7236C2.79309 15.1275 7.79885 17.4979 14.9998 17.4979C22.2005 17.4979 27.2063 15.1277 27.9206 12.7238V8.83594C25.6622 11.0781 20.7852 12.5967 14.9998 12.5967Z" fill="#9214E0"/>
<path d="M14.9999 0C7.86392 0 2.0791 2.67973 2.0791 5.98546V6.57154C2.79309 8.97553 7.79885 11.3459 14.9998 11.3459C22.2005 11.3459 27.2063 8.97566 27.9206 6.5718V5.98546C27.9206 2.67973 22.1358 0 14.9999 0Z" fill="#9214E0"/>
<path d="M14.9998 24.6884C9.21457 24.6884 4.33754 23.1699 2.0791 20.9277V24.0153C2.0791 27.3208 7.86392 30.0006 14.9999 30.0006C22.1359 30.0006 27.9207 27.3209 27.9207 24.0153V20.9278C25.6622 23.1699 20.7852 24.6884 14.9998 24.6884Z" fill="#9214E0"/>
</g>
<defs>
<clipPath id="clip0_3421_618">
<rect width="30" height="30" fill="white"/>
</clipPath>
</defs>
</svg>
