<svg width="22" height="22" viewBox="0 0 22 22" fill="none" xmlns="http://www.w3.org/2000/svg">
<path d="M11 1C5.48357 1 1 5.48357 1 11C1 16.5164 5.48357 21 11 21C16.5164 21 21 16.5164 21 11C21 5.48357 16.5164 1 11 1ZM11 19.9906C6.04695 19.9906 2.00939 15.9531 2.00939 11C2.00939 6.04695 6.04695 2.00939 11 2.00939C15.9531 2.00939 19.9906 6.04695 19.9906 11C19.9906 15.9531 15.9531 19.9906 11 19.9906Z" fill="#9214E0" stroke="#9214E0" stroke-width="0.2"/>
<path d="M11.7043 10.953L14.6385 8.01878C14.8263 7.83098 14.8263 7.50234 14.6385 7.31455C14.4508 7.12676 14.1221 7.12676 13.9343 7.31455L11 10.2488L8.06577 7.31455C7.87798 7.12676 7.54934 7.12676 7.36155 7.31455C7.17375 7.50234 7.17375 7.83098 7.36155 8.01878L10.2958 10.953L7.36155 13.8638C7.17375 14.0516 7.17375 14.3803 7.36155 14.5681C7.45544 14.662 7.59629 14.7089 7.71366 14.7089C7.83103 14.7089 7.97188 14.662 8.06577 14.5681L11 11.6338L13.9343 14.5681C14.0282 14.662 14.1691 14.7089 14.2864 14.7089C14.4038 14.7089 14.5446 14.662 14.6385 14.5681C14.8263 14.3803 14.8263 14.0516 14.6385 13.8638L11.7043 10.953Z" fill="#9214E0" stroke="#9214E0" stroke-width="0.2"/>
</svg>
