<svg width="20" height="19" viewBox="0 0 20 19" fill="none" xmlns="http://www.w3.org/2000/svg">
<path d="M5.18129 18.8182V0.636363H6.34606V18.8182H5.18129ZM8.54066 6.45312C8.47437 5.83286 8.19502 5.34991 7.70259 5.00426C7.2149 4.65862 6.58043 4.4858 5.79918 4.4858C5.24994 4.4858 4.77882 4.56866 4.38583 4.73438C3.99284 4.90009 3.69218 5.125 3.48384 5.40909C3.27551 5.69318 3.16898 6.01752 3.16424 6.3821C3.16424 6.68513 3.2329 6.94792 3.37021 7.17045C3.51225 7.39299 3.70401 7.58239 3.94549 7.73864C4.18697 7.89015 4.45449 8.01799 4.74805 8.12216C5.04161 8.22633 5.33754 8.31392 5.63583 8.38494L6.99947 8.72585C7.54871 8.85369 8.07665 9.02651 8.58327 9.24432C9.09464 9.46212 9.55155 9.73674 9.95401 10.0682C10.3612 10.3996 10.6832 10.7997 10.9199 11.2685C11.1567 11.7372 11.275 12.2865 11.275 12.9162C11.275 13.7685 11.0572 14.5189 10.6216 15.1676C10.186 15.8116 9.55629 16.3158 8.73242 16.6804C7.91329 17.0402 6.92134 17.2202 5.75657 17.2202C4.62494 17.2202 3.64246 17.045 2.80913 16.6946C1.98053 16.3442 1.33185 15.8329 0.863104 15.1605C0.399089 14.4882 0.148142 13.669 0.110263 12.7031H2.70259C2.74047 13.2098 2.89672 13.6312 3.17134 13.9673C3.44596 14.3035 3.80344 14.5545 4.24379 14.7202C4.68886 14.8859 5.18602 14.9688 5.73526 14.9688C6.30818 14.9688 6.81007 14.8835 7.24094 14.7131C7.67655 14.5379 8.01746 14.2964 8.26367 13.9886C8.50988 13.6761 8.63536 13.3116 8.64009 12.8949C8.63536 12.5161 8.52409 12.2036 8.30629 11.9574C8.08848 11.7064 7.78308 11.4981 7.39009 11.3324C7.00183 11.1619 6.54729 11.0104 6.02646 10.8778L4.37163 10.4517C3.17371 10.1439 2.22674 9.67756 1.53072 9.05256C0.83943 8.42282 0.493786 7.58712 0.493786 6.54545C0.493786 5.68845 0.725793 4.93797 1.18981 4.29403C1.65856 3.65009 2.2954 3.15057 3.10032 2.79545C3.90524 2.43561 4.8167 2.25568 5.83469 2.25568C6.86689 2.25568 7.77125 2.43561 8.54776 2.79545C9.32901 3.15057 9.94218 3.64536 10.3873 4.27983C10.8323 4.90956 11.062 5.634 11.0762 6.45312H8.54066ZM19.3983 2.45455V17H16.7633V5.01847H16.6781L13.2761 7.19176V4.77699L16.8912 2.45455H19.3983Z" fill="#9214E0"/>
</svg>
