<svg width="30" height="30" viewBox="0 0 30 30" fill="none" xmlns="http://www.w3.org/2000/svg">
<rect width="30" height="30" rx="10" fill="#9214E0"/>
<path d="M8 20.6145C8 21.3769 8.62377 22.0007 9.38617 22.0007H11.1882L8 18.8125V20.6145Z" fill="white"/>
<path d="M21.5841 10.6337L19.3663 8.41585C18.8118 7.86138 17.9801 7.86138 17.4256 8.41585L17.287 8.55447C17.0098 8.8317 17.0098 9.24755 17.287 9.52478L20.4752 12.713C20.7524 12.9902 21.1683 12.9902 21.4455 12.713L21.5841 12.5743C22.1386 12.0199 22.1386 11.1882 21.5841 10.6337Z" fill="white"/>
<path d="M16.3172 10.495C16.0399 10.2178 15.6241 10.2178 15.3469 10.495L9.0398 16.8021C8.69326 17.1486 8.69326 17.5645 8.97049 17.8417L12.1587 21.0299C12.4359 21.3071 12.8518 21.3071 13.129 21.0299L19.436 14.7228C19.7133 14.4456 19.7133 14.0298 19.436 13.7525L16.3172 10.495Z" fill="white"/>
</svg>
