<svg width="16" height="16" viewBox="0 0 16 16" fill="none" xmlns="http://www.w3.org/2000/svg">
<path d="M8.47565 3.10858L0.818546 10.7764C0.536393 11.0594 0.358073 11.4297 0.312537 11.8271L0.00744361 14.5097C-0.0124441 14.6983 0.00762911 14.889 0.0663525 15.0694C0.125076 15.2497 0.221129 15.4157 0.348238 15.5563C0.475347 15.6969 0.630653 15.8092 0.804015 15.8856C0.977376 15.9621 1.16489 16.0011 1.35432 16H1.51059L4.18946 15.6945C4.58467 15.6487 4.95362 15.4731 5.23868 15.1952L12.8958 7.51998L8.47565 3.10858Z" fill="white"/>
<path d="M15.4856 2.46025L13.5434 0.515363C13.3809 0.352016 13.1878 0.222404 12.9752 0.133965C12.7626 0.0455257 12.5347 0 12.3044 0C12.0742 0 11.8462 0.0455257 11.6336 0.133965C11.421 0.222404 11.2279 0.352016 11.0654 0.515363L9.26465 2.31867L13.6848 6.74498L15.4856 4.94167C15.6487 4.77897 15.7781 4.58562 15.8664 4.3727C15.9548 4.15979 16.0002 3.93151 16.0002 3.70096C16.0002 3.47041 15.9548 3.24213 15.8664 3.02922C15.7781 2.81631 15.6487 2.62295 15.4856 2.46025Z" fill="white"/>
</svg>
