<svg width="50" height="50" viewBox="0 0 50 50" fill="none" xmlns="http://www.w3.org/2000/svg">
<g clip-path="url(#clip0_1847_524)">
<path fill-rule="evenodd" clip-rule="evenodd" d="M17.1273 30.5857H27.7179C28.1536 30.5857 28.5073 30.232 28.5073 29.7963C28.5073 29.3605 28.1536 29.0068 27.7179 29.0068H17.1273C16.6916 29.0068 16.3379 29.3605 16.3379 29.7963C16.3379 30.232 16.6915 30.5857 17.1273 30.5857Z" fill="#9214E0"/>
<path fill-rule="evenodd" clip-rule="evenodd" d="M23.793 29.7963V48.8031C23.793 49.2389 24.1467 49.5925 24.5824 49.5925C25.0177 49.5925 25.3718 49.2388 25.3718 48.8031V29.7963C25.3718 29.3604 25.0177 29.0068 24.5824 29.0068C24.1467 29.0068 23.793 29.3605 23.793 29.7963Z" fill="#9214E0"/>
<path fill-rule="evenodd" clip-rule="evenodd" d="M6.88624 0.407349C3.81363 0.407349 1.31836 2.90262 1.31836 5.97573C1.31836 9.04884 3.81363 11.5436 6.88624 11.5436C9.95943 11.5436 12.4547 9.04892 12.4547 5.97573C12.4547 2.90254 9.95943 0.407349 6.88624 0.407349ZM6.88624 1.9863C9.08835 1.9863 10.8758 3.77371 10.8758 5.97573C10.8758 8.17734 9.08835 9.96467 6.88624 9.96467C4.68463 9.96467 2.89731 8.17734 2.89731 5.97573C2.89731 3.77362 4.68472 1.9863 6.88624 1.9863Z" fill="#9214E0"/>
<path fill-rule="evenodd" clip-rule="evenodd" d="M43.1134 0.407349C40.0402 0.407349 37.5449 2.90262 37.5449 5.97573C37.5449 9.04884 40.0402 11.5436 43.1134 11.5436C46.186 11.5436 48.6813 9.04892 48.6813 5.97573C48.6813 2.90254 46.186 0.407349 43.1134 0.407349ZM43.1134 1.9863C45.315 1.9863 47.1023 3.77371 47.1023 5.97573C47.1023 8.17734 45.315 9.96467 43.1134 9.96467C40.9113 9.96467 39.1239 8.17734 39.1239 5.97573C39.1239 3.77362 40.9113 1.9863 43.1134 1.9863Z" fill="#9214E0"/>
<path fill-rule="evenodd" clip-rule="evenodd" d="M11.2374 22.8721C11.3679 23.1353 11.6385 23.3105 11.9443 23.3105L12.2374 23.2536L19.5069 20.3478C20.6258 19.901 21.8969 20.4458 22.3443 21.5647C22.7911 22.6831 22.2459 23.9542 21.1274 24.4015L11.5269 28.2389C10.6095 28.6057 9.57061 28.3089 8.9827 27.5384C8.77746 27.2694 8.4232 27.161 8.10221 27.2694C7.78171 27.3778 7.5659 27.6789 7.5659 28.0173V31.982C7.5659 32.3831 7.86642 32.7199 8.26435 32.7663L14.6544 33.5042C16.1644 33.6784 17.3044 34.9573 17.3044 36.4779V48.8032C17.3044 49.239 17.658 49.5926 18.0938 49.5926C18.5296 49.5926 18.8832 49.2389 18.8832 48.8032V36.4779C18.8832 34.1552 17.1422 32.202 14.8353 31.9358L9.14477 31.2785V29.63C10.0553 30.0484 11.1248 30.1 12.1127 29.7053L21.7138 25.8679C23.6411 25.0969 24.5806 22.9064 23.8101 20.9784C23.0396 19.0505 20.849 18.1111 18.9212 18.8816L12.2706 21.54L8.45011 15.2869C7.91067 14.4037 7.03116 13.7821 6.01907 13.5679C5.98803 13.5616 5.95699 13.5548 5.92537 13.5484C4.86481 13.3242 3.75901 13.5684 2.89164 14.2184C2.02427 14.869 1.47955 15.8616 1.3974 16.9426C0.933168 23.051 0.00214654 35.2932 0.00214654 35.2932C0.000495356 35.3131 0 35.3331 0 35.3532C0 37.6732 1.73738 39.6247 4.04103 39.8942L9.73837 40.63V48.8031C9.73837 49.2389 10.0921 49.5925 10.5278 49.5925C10.9635 49.5925 11.3172 49.2388 11.3172 48.8031V39.9358C11.3172 39.5384 11.0225 39.2037 10.6288 39.1526L4.22877 38.3269C2.72933 38.1538 1.59505 36.8916 1.57878 35.3853C1.57878 35.3811 2.97139 17.0621 2.97139 17.0621C3.01928 16.4353 3.33507 15.859 3.83827 15.4821C4.34196 15.1047 4.98303 14.9632 5.59876 15.0932L5.69189 15.1127C6.2793 15.2369 6.78927 15.598 7.10241 16.1101C8.29663 18.0648 10.7171 22.0269 11.1893 22.8001C11.2053 22.8253 11.2211 22.8495 11.2374 22.8721Z" fill="#9214E0"/>
<path fill-rule="evenodd" clip-rule="evenodd" d="M4.96931 24.0204L7.5062 28.1736C8.46248 29.7388 10.4088 30.3862 12.1125 29.7052C12.5172 29.5436 12.7146 29.0836 12.5526 28.6794C12.391 28.2746 11.931 28.0773 11.5268 28.2388C10.5384 28.6341 9.40886 28.2588 8.85357 27.3504L6.31676 23.1972C6.0894 22.8257 5.60304 22.7083 5.23152 22.9351C4.85984 23.1626 4.74195 23.6489 4.96931 24.0204Z" fill="#9214E0"/>
<path fill-rule="evenodd" clip-rule="evenodd" d="M36.9987 22.7362L29.3544 23.8173C27.2986 24.1078 25.866 26.013 26.1566 28.0688C26.4471 30.1241 28.3523 31.5572 30.4081 31.2667L39.8097 29.9367C40.1756 29.8851 40.5271 29.7809 40.855 29.6298V31.2782L35.1645 31.9355C32.8576 32.2018 31.1166 34.1549 31.1166 36.4776V48.8029C31.1166 49.2387 31.4702 49.5923 31.906 49.5923C32.3417 49.5923 32.6954 49.2386 32.6954 48.8029V36.4776C32.6954 34.9571 33.8354 33.6781 35.3454 33.5039L41.7333 32.766H41.7317C42.127 32.7228 42.4338 32.3881 42.4338 31.9817V28.0165C42.4338 27.6781 42.218 27.3776 41.8975 27.2692C41.577 27.1602 41.2227 27.2687 41.017 27.5376C40.6712 27.9902 40.1591 28.2928 39.5886 28.3734L30.1869 29.7029C28.9938 29.8718 27.8885 29.0402 27.7201 27.8471C27.5512 26.6544 28.3827 25.5492 29.5753 25.3802L37.5864 24.2476L37.478 24.2549L38.1517 23.8771L42.4232 16.8849C42.9695 15.9912 43.9701 15.4781 45.0149 15.5571C45.0296 15.5581 45.0438 15.5591 45.0585 15.5602C46.4659 15.6665 47.5727 16.8065 47.6369 18.216L48.4206 35.3696C48.4122 36.8823 47.2753 38.1523 45.7706 38.3265L39.5038 39.0502C39.1095 39.0955 38.8106 39.4265 38.8053 39.8234L38.6821 48.7918C38.6764 49.2276 39.0253 49.586 39.4606 49.5923C39.8964 49.5981 40.2548 49.2492 40.2611 48.8134L40.3743 40.5386L45.9517 39.8949C48.2585 39.6285 49.9995 37.6749 49.9995 35.3528C49.9995 35.3407 49.999 35.3286 49.9985 35.3165C49.9985 35.3165 49.4753 23.8618 49.2142 18.1439C49.1132 15.9365 47.3806 14.1518 45.1774 13.9859C45.1626 13.9849 45.1479 13.9833 45.1337 13.9822C43.498 13.8591 41.9311 14.6622 41.0759 16.0617L36.9987 22.7362Z" fill="#9214E0"/>
<path fill-rule="evenodd" clip-rule="evenodd" d="M32.4581 2.77573C32.4581 2.14786 32.2086 1.54518 31.7645 1.10101C31.3202 0.65676 30.7182 0.407349 30.0897 0.407349H19.0755C17.7671 0.407349 16.707 1.46791 16.707 2.77573V12.8094C16.707 13.3252 17.008 13.7936 17.4776 14.0073C17.947 14.2209 18.4981 14.1404 18.887 13.8014C19.6465 13.1399 20.7165 12.2072 21.3128 11.6873C21.457 11.562 21.6412 11.4931 21.8317 11.4931H30.0897C30.7181 11.4931 31.3202 11.2436 31.7644 10.7994C32.2085 10.3552 32.458 9.75257 32.458 9.12471V2.77573H32.4581ZM18.286 12.231V2.77573C18.286 2.33998 18.6392 1.9863 19.0754 1.9863H30.0897C30.2991 1.9863 30.5001 2.06943 30.6481 2.21788C30.7959 2.36574 30.8792 2.56628 30.8792 2.77573V9.12471C30.8792 9.33416 30.796 9.5347 30.6481 9.68256C30.5002 9.831 30.2991 9.91414 30.0897 9.91414H21.8318C21.2597 9.91414 20.7071 10.121 20.2755 10.4968L18.286 12.231Z" fill="#9214E0"/>
<path fill-rule="evenodd" clip-rule="evenodd" d="M21.0648 5.29786H28.2185C28.6543 5.29786 29.0079 4.94417 29.0079 4.50843C29.0079 4.07268 28.6543 3.71899 28.2185 3.71899H21.0648C20.6291 3.71899 20.2754 4.07268 20.2754 4.50843C20.2754 4.94417 20.629 5.29786 21.0648 5.29786Z" fill="#9214E0"/>
<path fill-rule="evenodd" clip-rule="evenodd" d="M21.0648 8.17689H24.5822C25.0174 8.17689 25.3716 7.8232 25.3716 7.38746C25.3716 6.95162 25.0174 6.59802 24.5822 6.59802H21.0648C20.6291 6.59802 20.2754 6.95171 20.2754 7.38746C20.2753 7.8232 20.629 8.17689 21.0648 8.17689Z" fill="#9214E0"/>
<path fill-rule="evenodd" clip-rule="evenodd" d="M37.4377 30.2726L39.8098 29.9368C40.9229 29.7795 41.9071 29.1326 42.4934 28.1737L45.0302 24.0205C45.2576 23.6489 45.1397 23.1627 44.7681 22.9353C44.3965 22.7084 43.9102 22.8258 43.6829 23.1974L41.1461 27.3506C40.8061 27.9068 40.2345 28.2822 39.5887 28.3737L37.2166 28.709C36.785 28.7701 36.484 29.1701 36.545 29.6016C36.6061 30.0326 37.0061 30.3336 37.4377 30.2726Z" fill="#9214E0"/>
</g>
<defs>
<clipPath id="clip0_1847_524">
<rect width="50" height="50" fill="white"/>
</clipPath>
</defs>
</svg>
