<svg width="7" height="12" viewBox="0 0 7 12" fill="none" xmlns="http://www.w3.org/2000/svg">
<path d="M6.12064 12C6.29429 12.001 6.46431 11.9513 6.60902 11.8572C6.75373 11.7631 6.86658 11.6289 6.93317 11.4717C6.99976 11.3145 7.01708 11.1414 6.98292 10.9746C6.94876 10.8077 6.86467 10.6546 6.74137 10.5347L2.1077 6.00175L6.74137 1.46879C6.906 1.30743 6.99849 1.08859 6.99849 0.860398C6.99849 0.747409 6.97579 0.635526 6.93167 0.531138C6.88755 0.426749 6.82289 0.3319 6.74137 0.252005C6.65986 0.172109 6.56308 0.108733 6.45658 0.0654941C6.35007 0.0222551 6.23592 0 6.12064 0C5.88782 0 5.66453 0.0906488 5.4999 0.252005L0.254233 5.39335C0.0913987 5.5539 0 5.77108 0 5.99746C0 6.22384 0.0913987 6.44102 0.254233 6.60157L5.4999 11.7429C5.58087 11.8239 5.67743 11.8883 5.78398 11.9324C5.89054 11.9766 6.00496 11.9995 6.12064 12Z" fill="white"/>
</svg>
