<svg width="44" height="50" viewBox="0 0 44 50" fill="none" xmlns="http://www.w3.org/2000/svg">
<path d="M9.5 0C7.78125 0 6.375 1.40625 6.375 3.125V46.875C6.375 48.5938 7.78125 50 9.5 50H40.75C42.4688 50 43.875 48.5938 43.875 46.875V12.5L31.375 0H9.5Z" fill="#E2E5E7"/>
<path d="M34.5 12.5H43.875L31.375 0V9.375C31.375 11.0938 32.7812 12.5 34.5 12.5Z" fill="#B0B7BD"/>
<path d="M43.875 21.875L34.5 12.5H43.875V21.875Z" fill="#CAD1D8"/>
<path d="M37.625 40.625C37.625 41.4844 36.9219 42.1875 36.0625 42.1875H1.6875C0.828125 42.1875 0.125 41.4844 0.125 40.625V25C0.125 24.1406 0.828125 23.4375 1.6875 23.4375H36.0625C36.9219 23.4375 37.625 24.1406 37.625 25V40.625Z" fill="#9214E0"/>
<path d="M6.9375 29.6047C6.9375 29.1922 7.2625 28.7422 7.78594 28.7422H10.6719C12.2969 28.7422 13.7594 29.8297 13.7594 31.9141C13.7594 33.8891 12.2969 34.9891 10.6719 34.9891H8.58594V36.6391C8.58594 37.1891 8.23594 37.5 7.78594 37.5C7.37344 37.5 6.9375 37.1891 6.9375 36.6391V29.6047ZM8.58594 30.3156V33.4281H10.6719C11.5094 33.4281 12.1719 32.6891 12.1719 31.9141C12.1719 31.0406 11.5094 30.3156 10.6719 30.3156H8.58594Z" fill="white"/>
<path d="M16.2063 37.5C15.7938 37.5 15.3438 37.275 15.3438 36.7266V29.6297C15.3438 29.1812 15.7938 28.8547 16.2063 28.8547H19.0672C24.7766 28.8547 24.6516 37.5 19.1797 37.5H16.2063ZM16.9937 30.3797V35.9766H19.0672C22.4406 35.9766 22.5906 30.3797 19.0672 30.3797H16.9937Z" fill="white"/>
<path d="M26.6773 30.4797V32.4656H29.8633C30.3133 32.4656 30.7633 32.9156 30.7633 33.3516C30.7633 33.7641 30.3133 34.1016 29.8633 34.1016H26.6773V36.725C26.6773 37.1625 26.3664 37.4985 25.9289 37.4985C25.3789 37.4985 25.043 37.1625 25.043 36.725V29.6281C25.043 29.1797 25.3805 28.8531 25.9289 28.8531H30.3148C30.8648 28.8531 31.1898 29.1797 31.1898 29.6281C31.1898 30.0281 30.8648 30.4782 30.3148 30.4782H26.6773V30.4797Z" fill="white"/>
<path d="M36.0625 42.1875H6.375V43.75H36.0625C36.9219 43.75 37.625 43.0469 37.625 42.1875V40.625C37.625 41.4844 36.9219 42.1875 36.0625 42.1875Z" fill="#CAD1D8"/>
</svg>
