<svg width="20" height="20" viewBox="0 0 20 20" fill="none" xmlns="http://www.w3.org/2000/svg">
<g clip-path="url(#clip0_83_389)">
<path d="M10 0C4.48598 0 0 4.48598 0 10C0 15.514 4.48598 20 10 20C15.514 20 20 15.514 20 10C20 4.48598 15.514 0 10 0ZM10 18.8281C5.13215 18.8281 1.17188 14.8679 1.17188 10C1.17188 5.13215 5.13215 1.17188 10 1.17188C14.8679 1.17188 18.8281 5.13215 18.8281 10C18.8281 14.8679 14.8679 18.8281 10 18.8281Z" fill="#9214E0"/>
<path d="M13.5742 6.17188C13.8978 6.17188 14.1602 5.90953 14.1602 5.58594C14.1602 5.26234 13.8978 5 13.5742 5H6.42578C6.10219 5 5.83984 5.26234 5.83984 5.58594C5.83984 5.90953 6.10219 6.17188 6.42578 6.17188H8.88672C9.65059 6.17188 10.3019 6.6618 10.5438 7.34379H6.42578C6.10219 7.34379 5.83984 7.60613 5.83984 7.92973C5.83984 8.25332 6.10219 8.51566 6.42578 8.51566H10.5437C10.3018 9.19762 9.65055 9.68754 8.88668 9.68754H6.46484C6.23648 9.68754 6.02895 9.8202 5.93309 10.0274C5.83723 10.2346 5.87043 10.4787 6.01824 10.6528L10.862 16.3559C10.9779 16.4924 11.1428 16.5626 11.3088 16.5625C11.4429 16.5625 11.5777 16.5168 11.6879 16.4232C11.9345 16.2137 11.9646 15.8439 11.7552 15.5973L7.73125 10.8594H8.88672C10.3015 10.8594 11.4852 9.85125 11.7575 8.51562H13.5743C13.8979 8.51562 14.1602 8.25328 14.1602 7.92969C14.1602 7.60609 13.8979 7.34375 13.5743 7.34375H11.7575C11.6693 6.91098 11.4853 6.5127 11.2289 6.17184H13.5742V6.17188Z" fill="#9214E0"/>
</g>
<defs>
<clipPath id="clip0_83_389">
<rect width="20" height="20" fill="white"/>
</clipPath>
</defs>
</svg>
