<svg width="22" height="22" viewBox="0 0 22 22" fill="none" xmlns="http://www.w3.org/2000/svg">
<path fill-rule="evenodd" clip-rule="evenodd" d="M11.0015 0C4.93428 0 0.00146484 4.93281 0.00146484 11C0.00146484 17.0672 4.93428 22 11.0015 22C17.0687 22 22.0015 17.0672 22.0015 11C22.0015 4.93281 17.0687 0 11.0015 0Z" fill="#4BAE4F"/>
<path fill-rule="evenodd" clip-rule="evenodd" d="M16.321 7.2918C16.5874 7.5582 16.5874 7.99648 16.321 8.26289L9.87567 14.7082C9.74247 14.8414 9.5663 14.9102 9.39012 14.9102C9.21395 14.9102 9.03778 14.8414 8.90458 14.7082L5.68192 11.4855C5.41552 11.2191 5.41552 10.7809 5.68192 10.5145C5.94833 10.248 6.38661 10.248 6.65302 10.5145L9.39012 13.2516L15.3499 7.2918C15.6163 7.02109 16.0546 7.02109 16.321 7.2918Z" fill="white"/>
</svg>
