<svg width="16" height="18" viewBox="0 0 16 18" fill="none" xmlns="http://www.w3.org/2000/svg">
<path d="M13.5929 17C13.3026 17.0007 13.0192 16.9239 12.7824 16.7803L8.00062 13.9179L3.21883 16.7819C2.98173 16.9248 2.69844 17.0011 2.40835 17C2.03499 16.9996 1.67705 16.8725 1.41304 16.6466C1.14903 16.4208 1.00049 16.1146 1 15.7952V2.88107C1.00066 2.38216 1.23271 1.90387 1.64521 1.5512C2.0577 1.19852 2.61693 1.00028 3.20012 1H12.8011C13.3841 1.00056 13.943 1.19893 14.3552 1.55157C14.7675 1.90422 14.9993 2.38235 15 2.88107V15.7952C14.9995 16.1144 14.8511 16.4204 14.5874 16.6463C14.3237 16.8721 13.966 16.9993 13.5929 17ZM8.00062 12.6683L13.4688 15.9435C13.5008 15.9623 13.5381 15.9733 13.5769 15.9754C13.6156 15.9775 13.6542 15.9706 13.6887 15.9554C13.7232 15.9402 13.7522 15.9172 13.7727 15.889C13.7931 15.8608 13.8043 15.8284 13.8049 15.7952V2.88107C13.8044 2.65361 13.6984 2.43562 13.5102 2.27493C13.322 2.11425 13.067 2.024 12.8011 2.024H3.20012C2.93446 2.02428 2.67975 2.11465 2.49184 2.27531C2.30392 2.43596 2.19813 2.6538 2.19763 2.88107V15.7952C2.1978 15.8432 2.2202 15.8892 2.25994 15.9231C2.29967 15.957 2.35349 15.976 2.4096 15.976C2.45297 15.9766 2.49549 15.9656 2.53117 15.9445L8.00062 12.6683Z" fill="#9214E0" stroke="#9214E0" stroke-width="0.2"/>
</svg>
