<svg width="30" height="30" viewBox="0 0 30 30" fill="none" xmlns="http://www.w3.org/2000/svg">
<g clip-path="url(#clip0_3424_719)">
<path d="M9.72656 19.3947H25.6057C25.9989 19.3947 26.3438 19.1347 26.4503 18.7571L29.9661 6.45218C30.0416 6.1869 29.9899 5.90194 29.8235 5.68153C29.6569 5.4618 29.3978 5.33203 29.1213 5.33203H7.69752L7.06924 2.50488C6.97998 2.10228 6.62292 1.81641 6.21093 1.81641H0.878906C0.393219 1.81641 0 2.20963 0 2.69531C0 3.18123 0.393219 3.57422 0.878906 3.57422H5.50552L8.67942 17.8564C7.74558 18.2625 7.08984 19.192 7.08984 20.2737C7.08984 21.7275 8.2727 22.9104 9.72656 22.9104H25.6057C26.0916 22.9104 26.4846 22.5174 26.4846 22.0315C26.4846 21.5458 26.0916 21.1526 25.6057 21.1526H9.72656C9.24247 21.1526 8.84765 20.7587 8.84765 20.2737C8.84765 19.7887 9.24247 19.3947 9.72656 19.3947Z" fill="#9214E0"/>
<path d="M8.84766 25.5469C8.84766 27.001 10.0305 28.1836 11.4846 28.1836C12.9385 28.1836 14.1213 27.001 14.1213 25.5469C14.1213 24.093 12.9385 22.9102 11.4846 22.9102C10.0305 22.9102 8.84766 24.093 8.84766 25.5469Z" fill="#9214E0"/>
<path d="M21.2109 25.5469C21.2109 27.001 22.3938 28.1836 23.8477 28.1836C25.3017 28.1836 26.4844 27.001 26.4844 25.5469C26.4844 24.093 25.3017 22.9102 23.8477 22.9102C22.3938 22.9102 21.2109 24.093 21.2109 25.5469Z" fill="#9214E0"/>
</g>
<defs>
<clipPath id="clip0_3424_719">
<rect width="30" height="30" fill="white"/>
</clipPath>
</defs>
</svg>
