<?xml version="1.0" encoding="UTF-8"?>
<svg version="1.1" xmlns="http://www.w3.org/2000/svg" width="512" height="512">
<path d="M0 0 C11.40413486 9.4744718 17.95365786 22.39091115 19.3125 37.06640625 C20.31954676 51.41682253 15.38246694 65.32393228 6.25 76.31640625 C-4.34715743 87.39525266 -17.25508753 92.26413169 -32.25 93.31640625 C-46.66739394 93.03753983 -59.97902713 87.61635856 -70.36328125 77.68359375 C-79.90545104 66.93862945 -85.17761454 53.91782786 -84.8984375 39.484375 C-83.58498991 24.42837396 -78.08906926 11.19168045 -66.6875 1.06640625 C-46.25004761 -13.96715835 -20.95783777 -15.07867689 0 0 Z " fill="#000000" transform="translate(288.6875,214.93359375)"/>
<path d="M0 0 C10.60721286 8.48577029 18.12448553 20.94975944 19.828125 34.55859375 C19.88484375 35.36425781 19.9415625 36.16992188 20 37 C20.05671875 37.75410156 20.1134375 38.50820312 20.171875 39.28515625 C20.66329842 53.21701008 15.72292187 65.89617449 6.6875 76.4375 C-3.93787579 87.3864913 -16.24047613 93.02713489 -31.5 93.3125 C-45.40993956 93.341177 -58.65281817 88.36692754 -68.8125 78.75 C-77.16661405 69.82899964 -83.08782529 58.31435865 -84 46 C-84.0515625 45.36191406 -84.103125 44.72382812 -84.15625 44.06640625 C-84.75240117 30.52880668 -80.22111776 17.68491017 -71.7421875 7.2109375 C-52.87755071 -12.86685921 -22.4650602 -16.80313446 0 0 Z " fill="#000000" transform="translate(288,61)"/>
<path d="M0 0 C10.60158604 8.72579199 16.97986025 20.23599121 19.75 33.625 C19.8325 34.73875 19.915 35.8525 20 37 C20.0515625 37.63808594 20.103125 38.27617187 20.15625 38.93359375 C20.75240117 52.47119332 16.22111776 65.31508983 7.7421875 75.7890625 C-2.47709405 86.66553257 -14.6413698 92.82964966 -29.52661133 93.40039062 C-45.35052343 93.65044101 -57.86612706 88.65121696 -69.6875 78.0625 C-77.74211142 69.58777395 -83.1793568 57.65686362 -84 46 C-84.05671875 45.24589844 -84.1134375 44.49179687 -84.171875 43.71484375 C-84.66329842 29.78298992 -79.72292187 17.10382551 -70.6875 6.5625 C-51.42394668 -13.28776053 -22.79249063 -15.57660319 0 0 Z " fill="#000000" transform="translate(288,368)"/>
</svg>
