<svg width="25" height="20" viewBox="0 0 25 20" fill="none" xmlns="http://www.w3.org/2000/svg">
<path d="M21.25 0H3.75C2.75544 0 1.80161 0.395088 1.09835 1.09835C0.395088 1.80161 0 2.75544 0 3.75V16.25C0 17.2446 0.395088 18.1984 1.09835 18.9017C1.80161 19.6049 2.75544 20 3.75 20H21.25C22.2446 20 23.1984 19.6049 23.9017 18.9017C24.6049 18.1984 25 17.2446 25 16.25V3.75C25 2.75544 24.6049 1.80161 23.9017 1.09835C23.1984 0.395088 22.2446 0 21.25 0ZM22.5 12.875H18.75C17.9875 12.875 17.2562 12.5721 16.7171 12.0329C16.1779 11.4938 15.875 10.7625 15.875 10C15.875 9.2375 16.1779 8.50624 16.7171 7.96707C17.2562 7.4279 17.9875 7.125 18.75 7.125H22.5V12.875ZM22.5 5H18.75C17.4239 5 16.1521 5.52678 15.2145 6.46447C14.2768 7.40215 13.75 8.67392 13.75 10C13.75 11.3261 14.2768 12.5979 15.2145 13.5355C16.1521 14.4732 17.4239 15 18.75 15H22.5V16.25C22.5 16.5815 22.3683 16.8995 22.1339 17.1339C21.8995 17.3683 21.5815 17.5 21.25 17.5H3.75C3.41848 17.5 3.10054 17.3683 2.86612 17.1339C2.6317 16.8995 2.5 16.5815 2.5 16.25V3.75C2.5 3.41848 2.6317 3.10054 2.86612 2.86612C3.10054 2.6317 3.41848 2.5 3.75 2.5H21.25C21.5815 2.5 21.8995 2.6317 22.1339 2.86612C22.3683 3.10054 22.5 3.41848 22.5 3.75V5ZM17.5 10C17.5 10.2472 17.5733 10.4889 17.7107 10.6945C17.848 10.9 18.0432 11.0602 18.2716 11.1549C18.5001 11.2495 18.7514 11.2742 18.9939 11.226C19.2363 11.1778 19.4591 11.0587 19.6339 10.8839C19.8087 10.7091 19.9277 10.4863 19.976 10.2439C20.0242 10.0014 19.9995 9.75005 19.9049 9.52165C19.8102 9.29324 19.65 9.09801 19.4445 8.96066C19.2389 8.82331 18.9972 8.75 18.75 8.75C18.4185 8.75 18.1005 8.8817 17.8661 9.11612C17.6317 9.35054 17.5 9.66848 17.5 10Z" fill="#222222"/>
</svg>
