<svg width="26" height="26" viewBox="0 0 26 26" fill="none" xmlns="http://www.w3.org/2000/svg">
<path fill-rule="evenodd" clip-rule="evenodd" d="M12.133 2.60007C12.133 1.16483 10.9681 0 9.53289 0H2.60007C1.16483 0 0 1.16483 0 2.60007V9.53289C0 10.9681 1.16483 12.133 2.60007 12.133H9.53289C10.9681 12.133 12.133 10.9681 12.133 9.53289V2.60007ZM10.4003 2.60007V9.53289C10.4003 10.0113 10.0113 10.4003 9.53289 10.4003H2.60007C2.12166 10.4003 1.73269 10.0113 1.73269 9.53289V2.60007C1.73269 2.12166 2.12166 1.73269 2.60007 1.73269H9.53289C10.0113 1.73269 10.4003 2.12166 10.4003 2.60007Z" fill="#2F4858"/>
<path fill-rule="evenodd" clip-rule="evenodd" d="M12.133 16.467C12.133 15.0318 10.9681 13.8669 9.53289 13.8669H2.60007C1.16483 13.8669 0 15.0318 0 16.467V23.3998C0 24.8351 1.16483 25.9999 2.60007 25.9999H9.53289C10.9681 25.9999 12.133 24.8351 12.133 23.3998V16.467ZM10.4003 16.467V23.3998C10.4003 23.8782 10.0113 24.2672 9.53289 24.2672H2.60007C2.12166 24.2672 1.73269 23.8782 1.73269 23.3998V16.467C1.73269 15.9886 2.12166 15.5996 2.60007 15.5996H9.53289C10.0113 15.5996 10.4003 15.9886 10.4003 16.467Z" fill="#2F4858"/>
<path fill-rule="evenodd" clip-rule="evenodd" d="M26 2.60007C26 1.16483 24.8352 0 23.4 0H16.4671C15.0319 0 13.8671 1.16483 13.8671 2.60007V9.53289C13.8671 10.9681 15.0319 12.133 16.4671 12.133H23.4C24.8352 12.133 26 10.9681 26 9.53289V2.60007ZM24.2673 2.60007V9.53289C24.2673 10.0113 23.8784 10.4003 23.4 10.4003H16.4671C15.9887 10.4003 15.5998 10.0113 15.5998 9.53289V2.60007C15.5998 2.12166 15.9887 1.73269 16.4671 1.73269H23.4C23.8784 1.73269 24.2673 2.12166 24.2673 2.60007Z" fill="#2F4858"/>
<path fill-rule="evenodd" clip-rule="evenodd" d="M26 16.467C26 15.0318 24.8352 13.8669 23.4 13.8669H16.4671C15.0319 13.8669 13.8671 15.0318 13.8671 16.467V23.3998C13.8671 24.8351 15.0319 25.9999 16.4671 25.9999H23.4C24.8352 25.9999 26 24.8351 26 23.3998V16.467ZM24.2673 16.467V23.3998C24.2673 23.8782 23.8784 24.2672 23.4 24.2672H16.4671C15.9887 24.2672 15.5998 23.8782 15.5998 23.3998V16.467C15.5998 15.9886 15.9887 15.5996 16.4671 15.5996H23.4C23.8784 15.5996 24.2673 15.9886 24.2673 16.467Z" fill="#2F4858"/>
</svg>
