<svg width="60" height="60" viewBox="0 0 60 60" fill="none" xmlns="http://www.w3.org/2000/svg">
<rect width="60" height="60" rx="10" fill="#F1F7FB"/>
<path d="M44.54 29.1599L43.81 28.6899L31.62 36.5199C31.13 36.8299 30.57 36.9999 30 36.9999C29.43 36.9999 28.87 36.8399 28.38 36.5299L16.19 28.6899L15.46 29.1599C15.17 29.3399 15 29.6599 15 29.9999C15 30.3399 15.17 30.6599 15.46 30.8399L29.46 39.8399C29.63 39.9499 29.81 39.9999 30 39.9999C30.19 39.9999 30.38 39.9499 30.54 39.8399L44.54 30.8399C44.83 30.6599 45 30.3399 45 29.9999C45 29.6599 44.83 29.3399 44.54 29.1599Z" fill="#2F4858"/>
<path d="M44.54 34.1599L43.81 33.6899L31.62 41.5199C31.13 41.8299 30.57 41.9999 30 41.9999C29.43 41.9999 28.87 41.8399 28.38 41.5299L16.19 33.6899L15.46 34.1599C15.17 34.3399 15 34.6599 15 34.9999C15 35.3399 15.17 35.6599 15.46 35.8399L29.46 44.8399C29.63 44.9499 29.81 44.9999 30 44.9999C30.19 44.9999 30.38 44.9499 30.54 44.8399L44.54 35.8399C44.83 35.6599 45 35.3399 45 34.9999C45 34.6599 44.83 34.3399 44.54 34.1599Z" fill="#2F4858"/>
<path d="M15.46 25.8399L29.46 34.8399C29.63 34.9499 29.81 34.9999 30 34.9999C30.19 34.9999 30.38 34.9499 30.54 34.8399L44.54 25.8399C44.83 25.6599 45 25.3399 45 24.9999C45 24.6599 44.83 24.3399 44.54 24.1599L30.54 15.1599C30.21 14.9499 29.79 14.9499 29.46 15.1599L15.46 24.1599C15.17 24.3399 15 24.6599 15 24.9999C15 25.3399 15.17 25.6599 15.46 25.8399ZM33.32 23.6599C32.94 23.2599 32.95 22.6299 33.34 22.2499C33.74 21.8699 34.37 21.8799 34.75 22.2699L36.71 24.2999C37.09 24.6899 37.09 25.2999 36.71 25.6899L34.75 27.7199C34.55 27.9199 34.29 28.0199 34.03 28.0199C33.77 28.0199 33.53 27.9299 33.33 27.7399C32.93 27.3599 32.92 26.7199 33.31 26.3299L34.6 24.9899L33.31 23.6499L33.32 23.6599ZM28.24 28.0099L29.81 21.5099C29.94 20.9699 30.48 20.6399 31.02 20.7699C31.56 20.8999 31.89 21.4399 31.76 21.9799L30.19 28.4799C30.08 28.9399 29.67 29.2399 29.22 29.2399C29.14 29.2399 29.06 29.2399 28.98 29.2099C28.44 29.0799 28.11 28.5399 28.24 27.9999V28.0099ZM23.28 24.2999L25.24 22.2699C25.62 21.8699 26.26 21.8599 26.65 22.2499C27.05 22.6299 27.06 23.2699 26.67 23.6599L25.38 24.9999L26.67 26.3399C27.05 26.7399 27.04 27.3699 26.65 27.7499C26.46 27.9399 26.2 28.0299 25.95 28.0299C25.7 28.0299 25.43 27.9299 25.23 27.7299L23.27 25.6999C22.89 25.3099 22.89 24.6999 23.27 24.3099L23.28 24.2999Z" fill="#2F4858"/>
</svg>
