<svg width="25" height="26" viewBox="0 0 25 26" fill="none" xmlns="http://www.w3.org/2000/svg">
<g opacity="0.2">
<path d="M6.97681 8.54833C6.97681 8.02376 7.36726 7.59851 7.8489 7.59851H12.5001C12.9817 7.59851 13.3722 8.02376 13.3722 8.54833C13.3722 9.07289 12.9817 9.49814 12.5001 9.49814H7.8489C7.36726 9.49814 6.97681 9.07289 6.97681 8.54833Z" fill="#222222"/>
<path d="M6.97681 13.614C6.97681 13.0894 7.36726 12.6642 7.8489 12.6642H17.1512C17.6328 12.6642 18.0233 13.0894 18.0233 13.614C18.0233 14.1386 17.6328 14.5638 17.1512 14.5638H7.8489C7.36726 14.5638 6.97681 14.1386 6.97681 13.614Z" fill="#222222"/>
<path fill-rule="evenodd" clip-rule="evenodd" d="M10.1354 0H14.8646C16.4596 0 17.7101 -1.26059e-05 18.7152 0.089422C19.7386 0.18049 20.5841 0.36901 21.3493 0.793679C22.6074 1.49182 23.6302 2.60581 24.2713 3.97599C24.6611 4.80947 24.8343 5.73029 24.9179 6.84493C25 7.93955 25 9.30149 25 11.0387V12.5809V12.7669C25.0002 14.7281 25.0005 15.9245 24.7299 16.9294C24.0892 19.3092 22.3803 21.1704 20.1952 21.8682C19.2725 22.1629 18.1741 22.1626 16.3734 22.1624C16.3171 22.1624 16.2602 22.1624 16.2025 22.1624H15.5644L15.4943 22.1625C14.4859 22.1695 13.5037 22.5124 12.6794 23.145L12.6222 23.1893L9.58652 25.5509C7.83709 26.9118 5.53823 24.9465 6.33667 22.7724C6.44398 22.4802 6.2464 22.1624 5.95745 22.1624H5.25774C2.35396 22.1624 0 19.5986 0 16.436V11.0387C0 9.30151 -1.15744e-05 7.93956 0.0821047 6.84493C0.165721 5.73029 0.338814 4.80947 0.728732 3.97599C1.36974 2.60581 2.39258 1.49182 3.65064 0.793679C4.41592 0.36901 5.26138 0.18049 6.28481 0.089422C7.28987 -1.26059e-05 8.54037 0 10.1354 0ZM6.42683 1.98275C5.51128 2.06421 4.92089 2.22078 4.44249 2.48626C3.51261 3.00228 2.7566 3.82567 2.28281 4.83841C2.03906 5.35945 1.8953 6.00245 1.8205 6.99961C1.74486 8.00786 1.74419 9.29235 1.74419 11.0812V16.436C1.74419 18.5495 3.31725 20.2627 5.25774 20.2627H5.95745C7.48036 20.2627 8.5217 21.938 7.95611 23.4779C7.80461 23.8904 8.2408 24.2634 8.57273 24.0051L11.6746 21.5921C12.7899 20.7362 14.1188 20.2724 15.4831 20.2629L15.5644 20.2627H16.2025C18.228 20.2627 19.0538 20.2531 19.7044 20.0453C21.3195 19.5295 22.5825 18.1539 23.0562 16.3948C23.247 15.6863 23.2558 14.7869 23.2558 12.5809V11.0812C23.2558 9.29235 23.2551 8.00786 23.1795 6.99961C23.1046 6.00245 22.9609 5.35945 22.7172 4.83841C22.2434 3.82567 21.4873 3.00228 20.5575 2.48626C20.0791 2.22078 19.4887 2.06421 18.5731 1.98275C17.6474 1.90037 16.468 1.89963 14.8256 1.89963H10.1744C8.53196 1.89963 7.35258 1.90037 6.42683 1.98275Z" fill="#222222"/>
</g>
</svg>
