<svg width="26" height="26" viewBox="0 0 26 26" fill="none" xmlns="http://www.w3.org/2000/svg">
<path fill-rule="evenodd" clip-rule="evenodd" d="M0 10.5813C0 7.40892 2.57176 4.83716 5.74419 4.83716H20.2558C23.4283 4.83716 26 7.40892 26 10.5813V20.2558C26 23.4283 23.4283 26 20.2558 26H5.74419C2.57176 26 0 23.4283 0 20.2558V10.5813ZM5.74419 6.65111C3.57357 6.65111 1.81395 8.41073 1.81395 10.5813V20.2558C1.81395 22.4263 3.57357 24.186 5.74419 24.186H20.2558C22.4264 24.186 24.186 22.4263 24.186 20.2558V10.5813C24.186 8.41073 22.4264 6.65111 20.2558 6.65111H5.74419Z" fill="#9214E0"/>
<path fill-rule="evenodd" clip-rule="evenodd" d="M11.7907 1.81395C10.288 1.81395 9.06981 3.03216 9.06981 4.53489V5.74419C9.06981 6.24509 8.66374 6.65117 8.16284 6.65117C7.66193 6.65117 7.25586 6.24509 7.25586 5.74419V4.53489C7.25586 2.03033 9.28619 0 11.7907 0H14.2093C16.7139 0 18.7442 2.03033 18.7442 4.53489V5.74419C18.7442 6.24509 18.3381 6.65117 17.8373 6.65117C17.3364 6.65117 16.9303 6.24509 16.9303 5.74419V4.53489C16.9303 3.03216 15.712 1.81395 14.2093 1.81395H11.7907Z" fill="#9214E0"/>
<path fill-rule="evenodd" clip-rule="evenodd" d="M0 14.2093C0 13.7085 0.406072 13.3024 0.906977 13.3024H25.093C25.5939 13.3024 26 13.7085 26 14.2093C26 14.7102 25.5939 15.1163 25.093 15.1163H0.906977C0.406072 15.1163 0 14.7102 0 14.2093Z" fill="#9214E0"/>
<path d="M15.4185 14.2093C15.4185 15.5451 14.3357 16.6279 12.9999 16.6279C11.6641 16.6279 10.5813 15.5451 10.5813 14.2093C10.5813 12.8735 11.6641 11.7906 12.9999 11.7906C14.3357 11.7906 15.4185 12.8735 15.4185 14.2093Z" fill="#9214E0"/>
</svg>
