<svg width="21" height="26" viewBox="0 0 21 26" fill="none" xmlns="http://www.w3.org/2000/svg">
<g opacity="0.2">
<path d="M17.8856 13.1815C17.797 13.0867 17.6913 13.0112 17.5746 12.9596C17.4579 12.908 17.3325 12.8812 17.2058 12.8809C17.0792 12.8805 16.9537 12.9066 16.8367 12.9575C16.7198 13.0085 16.6137 13.0833 16.5246 13.1777C16.4355 13.272 16.3652 13.384 16.3179 13.5071C16.2705 13.6302 16.2471 13.7619 16.2488 13.8946C16.2505 14.0273 16.2775 14.1583 16.328 14.28C16.3786 14.4017 16.4518 14.5116 16.5433 14.6033C17.3531 15.4382 17.9956 16.4341 18.4331 17.5326C18.8706 18.6311 19.0942 19.8101 19.0909 21.0003C19.0909 22.2234 15.7443 24.0003 10.5 24.0003C5.25565 24.0003 1.90913 22.2225 1.90913 20.9983C1.90591 19.8163 2.12655 18.6452 2.55825 17.5531C2.98996 16.4609 3.62416 15.4693 4.42415 14.6356C4.51464 14.5432 4.5867 14.4329 4.63617 14.3111C4.68563 14.1893 4.71152 14.0584 4.71232 13.926C4.71312 13.7936 4.68882 13.6624 4.64083 13.5399C4.59284 13.4174 4.52212 13.3061 4.43276 13.2125C4.3434 13.1189 4.23719 13.0448 4.12029 12.9945C4.00339 12.9443 3.87812 12.9188 3.75175 12.9197C3.62538 12.9205 3.50043 12.9476 3.38415 12.9994C3.26786 13.0513 3.16255 13.1268 3.07434 13.2215C2.09634 14.2407 1.32104 15.4531 0.793329 16.7883C0.265622 18.1235 -0.0040099 19.5552 4.50654e-05 21.0003C4.50654e-05 24.2479 5.40943 26.0003 10.5 26.0003C15.5906 26.0003 21 24.2479 21 21.0003C21.0042 19.5454 20.7309 18.1043 20.1961 16.7616C19.6612 15.4189 18.8757 14.2017 17.8856 13.1815Z" fill="#222222"/>
<path d="M10.4999 14C11.8214 14 13.1133 13.5895 14.2121 12.8203C15.3109 12.0511 16.1673 10.9579 16.6731 9.67878C17.1788 8.3997 17.3111 6.99224 17.0533 5.63437C16.7955 4.2765 16.1591 3.02922 15.2246 2.05025C14.2902 1.07129 13.0996 0.404603 11.8035 0.134506C10.5073 -0.13559 9.16383 0.00303298 7.94289 0.532846C6.72196 1.06266 5.6784 1.95987 4.9442 3.11101C4.20999 4.26215 3.81812 5.61553 3.81812 7C3.82016 8.85586 4.52479 10.6351 5.77743 11.9474C7.03006 13.2597 8.72841 13.9979 10.4999 14ZM10.4999 2C11.4439 2 12.3666 2.29325 13.1515 2.84265C13.9363 3.39206 14.5481 4.17295 14.9093 5.08658C15.2705 6.00021 15.3651 7.00555 15.1809 7.97545C14.9967 8.94536 14.5422 9.83627 13.8747 10.5355C13.2072 11.2348 12.3568 11.711 11.431 11.9039C10.5052 12.0969 9.54557 11.9978 8.67347 11.6194C7.80137 11.241 7.05598 10.6001 6.53154 9.77785C6.00711 8.95561 5.7272 7.98891 5.7272 7C5.72869 5.6744 6.232 4.40354 7.12674 3.46619C8.02147 2.52885 9.23456 2.00156 10.4999 2Z" fill="#222222"/>
</g>
</svg>
