<svg width="21" height="26" viewBox="0 0 21 26" fill="none" xmlns="http://www.w3.org/2000/svg">
<path d="M17.8856 13.1812C17.797 13.0863 17.6913 13.0109 17.5746 12.9593C17.4579 12.9076 17.3325 12.8809 17.2058 12.8805C17.0792 12.8801 16.9537 12.9062 16.8367 12.9571C16.7198 13.0081 16.6137 13.0829 16.5246 13.1773C16.4355 13.2717 16.3652 13.3836 16.3179 13.5067C16.2705 13.6298 16.2471 13.7616 16.2488 13.8942C16.2505 14.0269 16.2775 14.158 16.328 14.2796C16.3786 14.4013 16.4518 14.5112 16.5433 14.603C17.3531 15.4378 17.9956 16.4337 18.4331 17.5322C18.8706 18.6307 19.0942 19.8097 19.0909 21C19.0909 22.2231 15.7443 24 10.5 24C5.25565 24 1.90913 22.2222 1.90913 20.998C1.90591 19.8159 2.12655 18.6449 2.55825 17.5527C2.98996 16.4605 3.62416 15.4689 4.42415 14.6353C4.51464 14.5429 4.5867 14.4325 4.63617 14.3107C4.68563 14.1889 4.71152 14.058 4.71232 13.9256C4.71312 13.7932 4.68882 13.662 4.64083 13.5395C4.59284 13.417 4.52212 13.3058 4.43276 13.2122C4.3434 13.1186 4.23719 13.0445 4.12029 12.9942C4.00339 12.9439 3.87812 12.9185 3.75175 12.9193C3.62538 12.9201 3.50043 12.9472 3.38415 12.9991C3.26786 13.0509 3.16255 13.1264 3.07434 13.2212C2.09634 14.2404 1.32104 15.4527 0.793329 16.7879C0.265622 18.1232 -0.0040099 19.5548 4.50654e-05 21C4.50654e-05 24.2476 5.40943 26 10.5 26C15.5906 26 21 24.2476 21 21C21.0042 19.5451 20.7309 18.104 20.1961 16.7613C19.6612 15.4186 18.8757 14.2014 17.8856 13.1812Z" fill="#9214E0"/>
<path d="M10.5001 14C11.8217 14 13.1135 13.5895 14.2124 12.8203C15.3112 12.0511 16.1676 10.9579 16.6733 9.67878C17.179 8.3997 17.3114 6.99224 17.0535 5.63437C16.7957 4.2765 16.1594 3.02922 15.2249 2.05025C14.2904 1.07129 13.0998 0.404603 11.8037 0.134506C10.5076 -0.13559 9.16407 0.00303298 7.94314 0.532846C6.7222 1.06266 5.67865 1.95987 4.94444 3.11101C4.21024 4.26215 3.81836 5.61553 3.81836 7C3.82041 8.85586 4.52503 10.6351 5.77767 11.9474C7.0303 13.2597 8.72866 13.9979 10.5001 14ZM10.5001 2C11.4441 2 12.3669 2.29325 13.1517 2.84265C13.9366 3.39206 14.5483 4.17295 14.9096 5.08658C15.2708 6.00021 15.3653 7.00555 15.1811 7.97545C14.997 8.94536 14.5424 9.83627 13.875 10.5355C13.2075 11.2348 12.3571 11.711 11.4313 11.9039C10.5054 12.0969 9.54581 11.9978 8.67371 11.6194C7.80161 11.241 7.05622 10.6001 6.53179 9.77785C6.00736 8.95561 5.72744 7.98891 5.72744 7C5.72893 5.6744 6.23225 4.40354 7.12698 3.46619C8.02171 2.52885 9.23481 2.00156 10.5001 2Z" fill="#9214E0"/>
</svg>
