<svg width="24" height="28" viewBox="0 0 24 28" fill="none" xmlns="http://www.w3.org/2000/svg">
<path d="M22.4509 27.1003L22.4707 27.0912C22.7099 26.9818 22.8718 26.8293 22.9711 26.6353C23.0691 26.4437 23.1016 26.2204 23.0989 25.9759L23.0989 25.9758C23.0906 25.2495 23.0937 24.5197 23.0968 23.7892C23.1009 22.8073 23.1051 21.8238 23.0815 20.8449L23.0815 20.8449C23.018 18.2218 22.0559 15.963 20.1044 14.1636C19.0175 13.1606 17.7409 12.5008 16.2776 12.2188C19.2678 9.66224 19.1372 5.10926 16.4072 2.60147L16.4072 2.60146C13.8924 0.292053 9.95299 0.334967 7.47133 2.72173L7.54065 2.79381L7.47133 2.72173C4.8719 5.22196 4.76666 9.62315 7.71473 12.2087C7.69887 12.2123 7.68301 12.2159 7.66714 12.2194C7.49434 12.2584 7.32166 12.2974 7.15472 12.3474L7.15468 12.3474C4.43133 13.1647 2.63227 14.9708 1.57455 17.5424C1.10609 18.6795 0.907207 19.8752 0.907583 21.1L22.4509 27.1003ZM22.4509 27.1003L22.4291 27.1003M22.4509 27.1003L22.4291 27.1003M22.4291 27.1003L1.56981 27.0995H1.54789M22.4291 27.1003L1.54789 27.0995M1.54789 27.0995L1.52799 27.0904M1.54789 27.0995L1.52799 27.0904M1.52799 27.0904C1.28952 26.9806 1.12772 26.8281 1.02838 26.6343C0.930265 26.4428 0.897495 26.2195 0.900423 25.9747M1.52799 27.0904L0.900423 25.9747M7.14324 14.1616L7.14326 14.1616C7.92278 13.854 8.74147 13.7548 9.59846 13.7964C9.59864 13.8988 9.59906 13.9998 9.59948 14.0999C9.60057 14.3562 9.60162 14.6062 9.59838 14.8568C9.59838 14.8569 9.59838 14.8569 9.59838 14.857L9.69825 14.8583L9.59839 14.8566L7.14324 14.1616ZM7.14324 14.1616C4.88061 15.054 3.53347 16.7513 2.91023 19.0463C2.74407 19.6584 2.67086 20.3113 2.65405 20.9514C2.62681 21.9875 2.63185 23.0228 2.6369 24.0599C2.6389 24.4703 2.6409 24.881 2.6409 25.2921V25.3588M7.14324 14.1616L2.6409 25.3588M2.6409 25.3588H21.3578C21.3579 25.2868 21.3581 25.2161 21.3583 25.1461L2.6409 25.3588ZM13.5803 20.611L13.5804 20.6111C13.585 20.6344 13.586 20.6693 13.5809 20.7015C13.5784 20.7172 13.5749 20.7295 13.5714 20.7378C13.5698 20.7415 13.5686 20.7436 13.568 20.7446C13.1435 21.1097 12.7133 21.4682 12.28 21.8292C12.1863 21.9073 12.0925 21.9854 11.9986 22.0638C11.8729 21.9588 11.7485 21.8541 11.6248 21.7501C11.259 21.4424 10.8996 21.14 10.5328 20.8477M13.5803 20.611L10.5328 20.8477M13.5803 20.611C13.3768 19.5835 13.169 18.5569 12.9592 17.5201C12.9139 17.2961 12.8685 17.0716 12.823 16.8466L11.1769 16.8473C11.0578 17.4306 10.9394 18.0137 10.8217 18.5965L10.8217 18.5966M13.5803 20.611L10.8217 18.5966M10.5328 20.8477C10.4685 20.796 10.4386 20.7527 10.4249 20.7111C10.4109 20.6688 10.4095 20.6154 10.4269 20.5353M10.5328 20.8477L10.4269 20.5353M10.4269 20.5353C10.5249 20.0852 10.615 19.6326 10.7048 19.181M10.4269 20.5353L10.7048 19.181M10.8217 18.5966C10.7824 18.791 10.7436 18.9859 10.7048 19.181M10.8217 18.5966L10.7048 19.181M0.900423 25.9747C0.914043 24.8 0.911709 23.6255 0.909372 22.4502M0.900423 25.9747L0.909372 22.4502M0.909372 22.4502C0.908478 22.0003 0.907583 21.5503 0.907583 21.1001L0.909372 22.4502ZM21.3584 24.6583C21.3532 24.1888 21.3591 23.7206 21.3649 23.2538C21.3778 22.221 21.3906 21.1952 21.2836 20.1782C20.9995 17.484 19.6609 15.4443 17.1346 14.2766L17.1345 14.2766C16.2823 13.8819 15.3676 13.7531 14.4096 13.7949L21.3584 24.6583ZM14.4012 13.8734C14.3369 15.1907 14.4629 16.5104 14.7753 17.7922L14.7754 17.7925C14.9434 18.4898 15.0789 19.1963 15.2139 19.9001C15.275 20.2184 15.336 20.5362 15.3998 20.8523C15.4713 21.197 15.3726 21.4973 15.1025 21.7242C14.2649 22.4314 13.423 23.1334 12.5768 23.8301L12.5767 23.8301C12.3968 23.9779 12.2018 24.0574 12.0007 24.0574C11.7996 24.0575 11.6045 23.978 11.4248 23.8301L11.4246 23.8299C10.5795 23.1316 9.73776 22.4296 8.89924 21.724L14.4012 13.8734ZM7.24273 7.32945C7.23793 9.9362 9.37145 12.064 11.9949 12.0665C14.6183 12.0691 16.757 9.9446 16.7562 7.33903C16.7555 4.7335 14.6173 2.61192 11.9919 2.61486C9.37842 2.61816 7.24752 4.7346 7.24273 7.32945ZM12.6484 15.0949V13.8024H11.346V15.0949H12.6484Z" fill="#CDCDCD" stroke="#CDCDCD" stroke-width="0.2"/>
</svg>
