<svg width="26" height="26" viewBox="0 0 26 26" fill="none" xmlns="http://www.w3.org/2000/svg">
<g clip-path="url(#clip0_73_2644)">
<path d="M11.4499 0C5.13657 0 0 5.13657 0 11.4499C0 17.7635 5.13657 22.8997 11.4499 22.8997C17.7635 22.8997 22.8997 17.7635 22.8997 11.4499C22.8997 5.13657 17.7635 0 11.4499 0ZM11.4499 20.7859C6.302 20.7859 2.11382 16.5978 2.11382 11.4499C2.11382 6.30206 6.302 2.11382 11.4499 2.11382C16.5977 2.11382 20.7859 6.302 20.7859 11.4499C20.7859 16.5977 16.5977 20.7859 11.4499 20.7859Z" fill="#CDCDCD"/>
<path d="M25.6905 24.1958L19.6308 18.1362C19.2179 17.7233 18.5492 17.7233 18.1363 18.1362C17.7234 18.5488 17.7234 19.2182 18.1363 19.6307L24.196 25.6903C24.4024 25.8968 24.6726 26 24.9432 26C25.2134 26 25.484 25.8968 25.6905 25.6903C26.1034 25.2778 26.1034 24.6084 25.6905 24.1958Z" fill="#CDCDCD"/>
</g>
<defs>
<clipPath id="clip0_73_2644">
<rect width="26" height="26" fill="white"/>
</clipPath>
</defs>
</svg>
