<svg width="20" height="20" viewBox="0 0 20 20" fill="none" xmlns="http://www.w3.org/2000/svg">
<g clip-path="url(#clip0_10_467)">
<path d="M6.45811 4.61234L6.64584 3.64872C6.777 2.97528 7.36695 2.48921 8.05302 2.48921H11.9469C12.633 2.48921 13.2229 2.97532 13.3541 3.64872L13.5419 4.61234H16.0778L15.7974 3.17278C15.4393 1.33435 13.82 0 11.9469 0H8.05298C6.18002 0 4.56061 1.33435 4.20246 3.17281L3.92206 4.61234H6.45811Z" fill="#B6B6B6"/>
<path d="M17.0253 14.0006H12.7819C12.5793 14.6773 11.9512 15.172 11.2095 15.172H8.79058C8.04888 15.172 7.4208 14.6773 7.21818 14.0006H2.9747C1.8096 14.0006 0.755421 13.5172 0.00164795 12.7407V17.3148C0.00164795 18.7978 1.20386 20 2.68687 20H17.3131C18.7961 20 19.9983 18.7978 19.9983 17.3148V12.7407C19.2446 13.5172 18.1904 14.0006 17.0253 14.0006Z" fill="#B6B6B6"/>
<path d="M18.7975 5.78442H1.2025C0.539287 5.78442 0.00164795 6.32206 0.00164795 6.98527V9.85545C0.00164795 11.4974 1.33272 12.8285 2.9747 12.8285H7.14926V12.1263C7.14926 11.2213 7.88557 10.485 8.79058 10.485H11.2095C12.1145 10.485 12.8508 11.2213 12.8508 12.1263V12.8285H17.0254C18.6673 12.8285 19.9984 11.4974 19.9984 9.85545V6.98527C19.9984 6.32206 19.4607 5.78442 18.7975 5.78442Z" fill="#B6B6B6"/>
<path d="M8.79058 13.9998C8.53186 13.9998 8.32135 13.7893 8.32135 13.5306V12.1263C8.32135 11.8676 8.53186 11.6571 8.79058 11.6571H11.2095C11.4682 11.6571 11.6787 11.8676 11.6787 12.1263V13.5306C11.6787 13.7893 11.4682 13.9998 11.2095 13.9998H8.79058Z" fill="#B6B6B6"/>
</g>
<defs>
<clipPath id="clip0_10_467">
<rect width="20" height="20" fill="white"/>
</clipPath>
</defs>
</svg>
