<svg width="16" height="20" viewBox="0 0 16 20" fill="none" xmlns="http://www.w3.org/2000/svg">
<path d="M8 0C5.59862 0 3.63626 1.92745 3.63626 4.28591C3.63626 6.64438 5.59862 8.571 8 8.571C10.4014 8.571 12.3637 6.64438 12.3637 4.28591C12.3637 1.92745 10.4014 0 8 0ZM6.54506 10.0001C2.93143 10.0001 0 12.8796 0 16.4287V20H16V16.4287C16 12.8796 13.068 10.0001 9.4544 10.0001C8.98139 10.0002 8.63436 10.4367 8.74894 10.8874L10.1035 16.2092L8 18.2752L5.89598 16.2092L7.25106 10.8874C7.36569 10.4365 7.01829 9.99989 6.54506 10.0001Z" fill="white"/>
</svg>
