<svg width="34" height="34" viewBox="0 0 34 34" fill="none" xmlns="http://www.w3.org/2000/svg">
<g clip-path="url(#clip0_49_512)">
<path fill-rule="evenodd" clip-rule="evenodd" d="M17.2838 -0.013191C13.2745 -0.0738802 9.37313 1.28685 6.27181 3.82765L11.078 8.63198C12.828 7.20788 14.843 6.14469 17.0066 5.50388C19.1903 6.14088 21.2242 7.20904 22.9879 8.64519L27.7941 3.82765C24.8109 1.3867 21.086 0.0322872 17.231 -0.013191H17.2838ZM3.85548 6.22984C1.37595 9.26691 0.0217285 13.0667 0.0217285 16.9868C0.0217285 20.9069 1.37595 24.7067 3.85548 27.7438L8.66171 22.9526C7.22785 21.2025 6.15931 19.183 5.51918 17.0132C6.15905 14.8353 7.22744 12.8071 8.66171 11.0474L3.85548 6.22984ZM30.184 6.22984L25.391 11.0342C26.8184 12.7837 27.8862 14.7976 28.5335 16.9604C27.899 19.1404 26.8301 21.1697 25.391 22.9263L30.2105 27.7438C32.6923 24.7078 34.0481 20.9076 34.0481 16.9868C34.0481 13.0661 32.6923 9.26585 30.2105 6.22984H30.184ZM11.078 25.3284L6.27181 30.146C9.30691 32.6259 13.1064 33.9806 17.0264 33.9806C20.9464 33.9806 24.7458 32.6259 27.7809 30.146L22.9879 25.3548C21.238 26.7789 19.2229 27.8421 17.0594 28.4829C14.8756 27.8459 12.8417 26.7778 11.078 25.3416V25.3284Z" fill="#6F46B9"/>
<path fill-rule="evenodd" clip-rule="evenodd" d="M16.9539 3.81442C16.7972 3.81041 16.641 3.83274 16.4917 3.88044C14.0718 4.60782 11.8255 5.82034 9.88978 7.44408L12.3061 9.85948C13.7241 8.76301 15.318 7.91502 17.0199 7.35168C18.7373 7.90703 20.3455 8.75552 21.7733 9.85948L24.2028 7.44408C22.2361 5.80739 19.9526 4.59421 17.4952 3.88044C17.3322 3.8334 17.1631 3.81113 16.9935 3.81442H16.9539ZM26.5663 9.84627L24.15 12.2616C25.254 13.6794 26.1028 15.2783 26.6587 16.9868C26.1009 18.7052 25.2474 20.3131 24.1368 21.7384L26.5663 24.1537C28.2036 22.1878 29.4173 19.9052 30.1314 17.4488C30.2234 17.1342 30.2234 16.7998 30.1314 16.4852C29.4006 14.0675 28.1879 11.8227 26.5663 9.88586V9.84627ZM7.44706 9.84627C5.81194 11.8136 4.59854 14.0958 3.88203 16.5512C3.78997 16.8658 3.78997 17.2002 3.88203 17.5147C4.60659 19.935 5.8199 22.1811 7.44706 24.1141L9.86339 21.6988C8.76212 20.2841 7.91342 18.6901 7.35466 16.9868C7.90749 15.2689 8.75651 13.6608 9.86339 12.2352L7.44706 9.84627ZM12.2665 24.1405L9.85017 26.5559C11.8202 28.1876 14.1027 29.4002 16.5578 30.1195C16.8725 30.2116 17.2069 30.2116 17.5216 30.1195C19.9392 29.3864 22.1844 28.1745 24.1236 26.5559L21.7073 24.1405C20.2921 25.2413 18.6974 26.0898 16.9935 26.6483C15.2719 26.0931 13.6594 25.2447 12.2269 24.1405H12.2665Z" fill="#3E8FFC"/>
</g>
<defs>
<clipPath id="clip0_49_512">
<rect width="34" height="34" fill="white"/>
</clipPath>
</defs>
</svg>
