<svg width="35" height="35" viewBox="0 0 35 35" fill="none" xmlns="http://www.w3.org/2000/svg">
<g clip-path="url(#clip0_64_199)">
<path fill-rule="evenodd" clip-rule="evenodd" d="M17.4925 2.11529e-05C16.8737 2.11529e-05 16.2548 6.35283e-05 15.6511 0.0906198C15.5908 0.694328 15.5606 1.3131 15.5606 1.94699C15.5566 4.24525 16.0064 6.52169 16.884 8.64577C17.7617 10.7698 19.0501 12.6998 20.6752 14.3249C22.3003 15.95 24.2302 17.2384 26.3543 18.116C28.4784 18.9937 30.7548 19.4434 33.0531 19.4394C33.687 19.4394 34.3057 19.4093 34.9094 19.3489C34.9094 18.7452 35 18.1264 35 17.5076C35.0015 16.5572 34.9257 15.6083 34.7736 14.6701C31.3555 13.6523 28.245 11.7986 25.7232 9.27682C23.2014 6.755 21.3478 3.6445 20.3299 0.226449C19.3918 0.0742947 18.4429 -0.00145464 17.4925 2.11529e-05Z" fill="#FE7C30"/>
<path fill-rule="evenodd" clip-rule="evenodd" d="M11.6968 0.981021C10.9886 1.22582 10.2978 1.51826 9.62907 1.85638C8.29138 4.5267 7.6584 7.49462 7.79029 10.4784C7.92217 13.4621 8.81452 16.3626 10.3826 18.9045C11.9507 21.4464 14.1425 23.5453 16.7498 25.0019C19.3572 26.4585 22.2936 27.2246 25.2802 27.2272C28.0121 27.2309 30.7062 26.5897 33.1435 25.3557C33.4842 24.6934 33.7767 24.0074 34.0188 23.3031H33.053C27.3834 23.2951 21.9484 21.0394 17.9394 17.0304C13.9304 13.0214 11.6745 7.58633 11.6665 1.91676C11.6665 1.58472 11.6665 1.26775 11.6665 0.950806L11.6968 0.981021Z" fill="#FB005C"/>
<path fill-rule="evenodd" clip-rule="evenodd" d="M25.0237 1.69043C26.7529 5.32143 29.6786 8.24707 33.3096 9.97631C31.5803 6.34531 28.6547 3.41968 25.0237 1.69043Z" fill="#FDBE02"/>
<path fill-rule="evenodd" clip-rule="evenodd" d="M4.19584 6.11255C1.28684 9.4564 -0.245722 13.7791 -0.0925613 18.2086C0.0605992 22.638 1.88802 26.8445 5.02103 29.9795C8.15405 33.1144 12.3595 34.9444 16.7888 35.1002C21.2182 35.2561 25.5419 33.7263 28.8875 30.8193C27.6955 31.0191 26.489 31.1201 25.2803 31.1212C19.6015 31.1132 14.158 28.8517 10.1453 24.8333C6.13263 20.815 3.87885 15.3683 3.87886 9.68952C3.88433 8.48042 3.99038 7.27386 4.19584 6.08234V6.11255Z" fill="#D80F5F"/>
</g>
<defs>
<clipPath id="clip0_64_199">
<rect width="35" height="35" fill="white"/>
</clipPath>
</defs>
</svg>
