<svg width="21" height="41" viewBox="0 0 21 41" fill="none" xmlns="http://www.w3.org/2000/svg">
<g clip-path="url(#clip0_49_108)">
<path d="M16.6839 32.5443C16.9167 30.0955 15.9183 27.4134 13.8859 25.0869C13.8391 25.0324 13.7917 24.9787 13.7436 24.9259C12.9208 24.0132 11.9274 23.1247 10.618 22.129C9.8943 21.5787 9.13984 21.044 8.41001 20.5268C7.89944 20.1643 7.371 19.79 6.85981 19.415C4.68449 17.8185 2.29483 15.8145 1.06121 13.0544C0.0573168 10.8084 -0.0805858 8.26318 0.674623 5.91937C1.42983 3.57557 3.02349 1.60287 5.1421 0.389313C5.09223 0.724321 5.08519 1.06444 5.12115 1.40127L5.06757 1.37694L5.18151 1.7987C5.23779 2.07745 5.31732 2.35087 5.41925 2.616C5.83128 3.69222 6.64733 4.8221 7.84523 5.97444C9.1386 7.21849 10.9425 8.61102 12.534 9.83885C12.9793 10.1826 13.3963 10.507 13.7855 10.8109C15.8253 12.4137 17.3577 13.659 18.5124 15.0921C19.7726 16.6556 20.4691 18.3526 20.705 20.4314C20.705 20.4445 20.713 20.4938 20.7143 20.5062C20.87 21.9741 20.8078 23.4574 20.5295 24.9066C19.9795 27.7884 18.6245 30.4767 16.6839 32.5443Z" fill="url(#paint0_linear_49_108)"/>
<path d="M16.8201 21.7079C9.75027 14.7901 6.46142 5.32496 5.61087 2.543C5.5121 2.28687 5.43524 2.02262 5.38114 1.75315C5.38114 1.74754 5.38114 1.74379 5.38114 1.74379C5.26338 1.16632 5.28195 0.568827 5.43534 0C5.43534 0 -2.00399 8.14997 10.5004 22.295H10.4961C11.6047 23.136 12.661 24.0319 13.594 25.0657C13.6415 25.1181 13.6877 25.1717 13.7345 25.2248C14.2456 23.6033 15.3863 22.4803 16.8201 21.7079Z" fill="url(#paint1_linear_49_108)"/>
<path d="M13.91 10.6499C12.1492 9.26611 9.63324 7.41189 7.98512 5.82657C7.01509 4.89384 6.07586 3.76771 5.6084 2.543C6.46141 5.32495 9.75026 14.7901 16.8176 21.7079C18.0371 21.0509 19.4659 20.6472 20.904 20.4095C20.3885 15.8488 17.7913 13.7001 13.91 10.6499Z" fill="url(#paint2_linear_49_108)"/>
<path d="M5.43089 0C3.14848 1.17539 1.40138 3.19706 0.553162 5.64429C-0.295057 8.09153 -0.179066 10.7758 0.876999 13.1386C2.07983 15.8308 4.37833 17.8472 6.74089 19.581C7.98314 20.4925 9.26912 21.3597 10.4978 22.2931H10.5021C-2.00413 8.14996 5.43089 0 5.43089 0Z" fill="url(#paint3_linear_49_108)"/>
<path d="M16.3981 33.127C18.6325 30.9434 20.1402 28.0317 20.726 24.9465C19.3362 23.9804 18.0296 22.897 16.82 21.7079C15.3862 22.4802 14.2456 23.6033 13.7344 25.2229C15.6264 27.3891 16.9222 30.2927 16.3981 33.127Z" fill="url(#paint4_linear_49_108)"/>
<path d="M20.726 24.949C21.0085 23.4798 21.0724 21.976 20.9157 20.4875C20.9127 20.462 20.909 20.4376 20.9065 20.412C19.4709 20.6504 18.0395 21.0534 16.8201 21.7104C18.0296 22.8995 19.3363 23.9829 20.726 24.949Z" fill="url(#paint5_linear_49_108)"/>
<path d="M10.1493 23.4598C7.29218 21.3261 4.57733 20.0202 1.57425 16.2881C1.0394 18.0015 0.800009 19.7954 0.866594 21.5912C2.94399 21.054 6.46811 20.802 10.1493 23.4598Z" fill="url(#paint6_linear_49_108)"/>
<path d="M11.3521 39.8308C11.3143 40.2382 11.2015 40.6347 11.0195 41C12.5667 39.0871 13.966 36.9902 14.6533 34.6175C15.3406 32.2449 15.2464 29.5502 13.9512 27.4533C13.6157 26.9175 13.2391 26.4093 12.8247 25.9335C12.6022 25.6786 12.379 25.4361 12.1552 25.2061L12.0702 25.1193L12.0622 25.1118C11.5149 24.5631 10.9311 24.053 10.315 23.5852L10.1474 23.4604C6.46626 20.8026 2.94153 21.0546 0.864746 21.5887C11.625 30.5179 11.8196 37.2398 11.3521 39.8308Z" fill="url(#paint7_linear_49_108)"/>
<path d="M0.866455 21.5893C0.866455 21.5893 5.60326 25.7526 8.96849 33.6929C9.86029 34.5664 10.5513 35.6339 10.895 36.8124C11.1814 37.7963 11.4493 38.8426 11.3514 39.8271C11.8194 37.2398 11.6248 30.5179 0.866455 21.5893Z" fill="url(#paint8_linear_49_108)"/>
<path d="M0.866455 21.5893C0.985938 24.7007 2.05512 27.731 4.23044 29.8953C5.24913 30.9091 7.45956 32.3852 8.55215 33.3155C8.69544 33.4377 8.83443 33.5646 8.9691 33.696C5.60326 25.7526 0.866455 21.5893 0.866455 21.5893Z" fill="url(#paint9_linear_49_108)"/>
</g>
<defs>
<linearGradient id="paint0_linear_49_108" x1="10.4991" y1="32.5443" x2="10.4991" y2="0.390562" gradientUnits="userSpaceOnUse">
<stop stop-color="#00ABC5"/>
<stop offset="0.44" stop-color="#00929E"/>
<stop offset="1" stop-color="#007B8D"/>
</linearGradient>
<linearGradient id="paint1_linear_49_108" x1="0.000114489" y1="12.6115" x2="21.0001" y2="12.6115" gradientUnits="userSpaceOnUse">
<stop stop-color="#007B8D"/>
<stop offset="0.56" stop-color="#00929E"/>
<stop offset="1" stop-color="#00ABC5"/>
</linearGradient>
<linearGradient id="paint2_linear_49_108" x1="10.3083" y1="13.201" x2="15.9854" y2="9.96537" gradientUnits="userSpaceOnUse">
<stop stop-color="#007B8D"/>
<stop offset="0.21" stop-color="#008393"/>
<stop offset="0.42" stop-color="#00929E"/>
<stop offset="1" stop-color="#00AAB5"/>
</linearGradient>
<linearGradient id="paint3_linear_49_108" x1="1.75095" y1="14.7739" x2="10.8843" y2="9.56856" gradientUnits="userSpaceOnUse">
<stop stop-color="#007B8D"/>
<stop offset="0.39" stop-color="#00929E"/>
<stop offset="1" stop-color="#6AC9C8"/>
</linearGradient>
<linearGradient id="paint4_linear_49_108" x1="17.2302" y1="33.127" x2="17.2302" y2="21.7079" gradientUnits="userSpaceOnUse">
<stop stop-color="#B1DED3"/>
<stop offset="0.44" stop-color="#00B3B5"/>
<stop offset="1" stop-color="#007B8D"/>
</linearGradient>
<linearGradient id="paint5_linear_49_108" x1="18.9098" y1="24.9465" x2="18.9098" y2="20.4096" gradientUnits="userSpaceOnUse">
<stop stop-color="#00ABC5"/>
<stop offset="0.44" stop-color="#00929E"/>
<stop offset="1" stop-color="#007B8D"/>
</linearGradient>
<linearGradient id="paint6_linear_49_108" x1="0.855508" y1="19.8742" x2="10.1493" y2="19.8742" gradientUnits="userSpaceOnUse">
<stop stop-color="#FFCB05"/>
<stop offset="0.61" stop-color="#F37021"/>
<stop offset="1" stop-color="#F04E23"/>
</linearGradient>
<linearGradient id="paint7_linear_49_108" x1="0.866594" y1="31.1218" x2="15.0789" y2="31.1218" gradientUnits="userSpaceOnUse">
<stop stop-color="#F04E23"/>
<stop offset="0.39" stop-color="#F37021"/>
<stop offset="1" stop-color="#FBB040"/>
</linearGradient>
<linearGradient id="paint8_linear_49_108" x1="0.866455" y1="30.7101" x2="11.485" y2="30.7101" gradientUnits="userSpaceOnUse">
<stop stop-color="#F04E23"/>
<stop offset="0.39" stop-color="#F37021"/>
<stop offset="1" stop-color="#FFD400"/>
</linearGradient>
<linearGradient id="paint9_linear_49_108" x1="4.91778" y1="33.696" x2="4.91778" y2="21.5893" gradientUnits="userSpaceOnUse">
<stop stop-color="#F04E23"/>
<stop offset="0.39" stop-color="#F37021"/>
<stop offset="1" stop-color="#FBB040"/>
</linearGradient>
<clipPath id="clip0_49_108">
<rect width="21" height="41" fill="white"/>
</clipPath>
</defs>
</svg>
