<svg width="16" height="16" viewBox="0 0 16 16" fill="none" xmlns="http://www.w3.org/2000/svg">
<path d="M15.3463 6.95389L1.27483 0.0897164C1.15381 0.0306837 1.02092 0 0.886269 0C0.3968 0 0 0.3968 0 0.886269V0.911847C0 1.03077 0.0145818 1.14925 0.0434255 1.26463L1.39322 6.66378C1.43009 6.81127 1.55478 6.92022 1.70585 6.93702L7.63862 7.59622C7.84436 7.61906 8 7.79295 8 8C8 8.20706 7.84436 8.38095 7.63862 8.40378L1.70585 9.06298C1.55478 9.07978 1.43009 9.18873 1.39322 9.33622L0.0434255 14.7353C0.0145818 14.8508 0 14.9692 0 15.0881V15.1137C0 15.6032 0.3968 16 0.886269 16C1.02092 16 1.15381 15.9693 1.27483 15.9103L15.3463 9.04611C15.7463 8.85106 16 8.44502 16 8C16 7.55498 15.7463 7.14895 15.3463 6.95389Z" fill="white"/>
</svg>
