<?xml version="1.0" encoding="UTF-8"?>
<svg version="1.1" xmlns="http://www.w3.org/2000/svg" width="512" height="512">
<path d="M0 0 C2.40149933 1.88286567 4.67170673 3.84709863 6.93359375 5.89453125 C7.74699219 6.56742188 8.56039063 7.2403125 9.3984375 7.93359375 C14.36290422 12.14076894 18.57346185 16.64934838 22.55859375 21.76953125 C22.996875 22.32922607 23.43515625 22.8889209 23.88671875 23.46557617 C26.93359375 27.51312847 26.93359375 27.51312847 26.93359375 30.89453125 C24.51953125 32.98046875 24.51953125 32.98046875 21.30859375 35.26953125 C20.1972775 36.07724632 19.08659236 36.88583047 17.9765625 37.6953125 C16.97238281 38.42105469 15.96820313 39.14679688 14.93359375 39.89453125 C9.91573468 43.66571726 5.94172186 48.09666603 1.93359375 52.89453125 C1.30453125 53.61253906 0.67546875 54.33054687 0.02734375 55.0703125 C-18.60854351 77.07101274 -26.83162759 105.84737674 -24.61938477 134.39819336 C-21.63192988 166.18653309 -7.76180627 191.3650474 16.0390625 212.578125 C21.01223165 216.55800261 26.4334953 219.70617084 31.93359375 222.89453125 C33.54226447 223.88726949 35.14723616 224.88606454 36.74609375 225.89453125 C37.79796875 226.55453125 38.84984375 227.21453125 39.93359375 227.89453125 C38.52809144 235.30044725 36.14674306 241.98446507 33.30859375 248.95703125 C32.86201416 250.06103271 32.41543457 251.16503418 31.95532227 252.30249023 C28.3623246 261.07135189 24.44873245 269.56574004 19.93359375 277.89453125 C19.57410645 278.56274902 19.21461914 279.2309668 18.84423828 279.91943359 C14.34371292 288.23905986 9.59401838 296.31310376 4.18847656 304.08447266 C2.68263492 306.2565174 1.19603798 308.44138153 -0.29296875 310.625 C-7.07155827 320.5038456 -14.00552314 330.02240911 -22.06640625 338.89453125 C-22.74960937 339.64863281 -23.4328125 340.40273438 -24.13671875 341.1796875 C-36.5223664 354.19213918 -51.91524995 362.73318003 -70.12890625 363.20703125 C-84.2997922 362.6531204 -97.11751772 358.5563766 -109.97338867 352.88720703 C-134.20746128 342.25697646 -159.0802506 340.22084281 -184.0703125 349.765625 C-188.32064944 351.43913754 -192.53779992 353.18824524 -196.75390625 354.94580078 C-200.06080521 356.30249518 -203.3939524 357.5493756 -206.75390625 358.76953125 C-207.76839844 359.13820313 -208.78289062 359.506875 -209.828125 359.88671875 C-223.57765928 364.16582592 -239.95280647 365.76061416 -253.06640625 358.89453125 C-254.45085937 358.23517578 -254.45085937 358.23517578 -255.86328125 357.5625 C-265.30417655 352.62975709 -272.62017932 345.37720346 -280.06640625 337.89453125 C-280.80503906 337.15589844 -281.54367187 336.41726563 -282.3046875 335.65625 C-335.26806024 279.0636954 -362.61773783 195.33342291 -360.23925781 118.87451172 C-359.82994231 109.44984879 -358.72647149 100.17694348 -357.06640625 90.89453125 C-356.9271875 90.11384277 -356.78796875 89.3331543 -356.64453125 88.52880859 C-352.19496026 64.82351314 -341.28082015 39.85207687 -325.06640625 21.89453125 C-324.25478027 20.99444336 -324.25478027 20.99444336 -323.42675781 20.07617188 C-301.90402616 -3.37057966 -273.1686382 -18.53345224 -241.06640625 -20.10546875 C-234.40580874 -20.3355199 -228.21659033 -19.89296111 -221.69140625 -18.54296875 C-220.83345459 -18.36733398 -219.97550293 -18.19169922 -219.09155273 -18.01074219 C-209.43701182 -15.91556508 -200.28208003 -12.61792934 -191.06640625 -9.10546875 C-190.13989258 -8.75339355 -189.21337891 -8.40131836 -188.25878906 -8.03857422 C-180.64666601 -5.14099797 -180.64666601 -5.14099797 -177.13110352 -3.77050781 C-153.42693531 5.42208991 -135.90078407 -3.78287959 -113.41455078 -12.6027832 C-105.07522797 -15.82891266 -96.84632517 -18.38624817 -88.06640625 -20.10546875 C-87.16921875 -20.29496094 -86.27203125 -20.48445312 -85.34765625 -20.6796875 C-55.42008126 -24.56314664 -24.82788968 -17.04742999 0 0 Z " fill="#CCD0D2" transform="translate(416.06640625,149.10546875)"/>
<path d="M0 0 C3.25670226 23.2370107 -4.58292991 47.31755239 -18.25 66.125 C-37.42100182 90.52741079 -62.73059204 108.13110117 -93.89453125 112.73046875 C-99.92584639 113.25394138 -105.95139303 113.14873624 -112 113 C-113.05892094 84.2914768 -104.24070064 59.75285029 -84.59228516 38.47558594 C-78.2935065 31.75882957 -71.88451892 25.84137126 -64 21 C-62.95328125 20.35546875 -61.9065625 19.7109375 -60.828125 19.046875 C-42.43706932 8.01699585 -21.7384683 -0.74390196 0 0 Z " fill="#CCD0D2" transform="translate(360,0)"/>
</svg>
