<?xml version="1.0" encoding="UTF-8"?>
<svg version="1.1" xmlns="http://www.w3.org/2000/svg" width="512" height="512">
<path d="M0 0 C1.17681691 -0.00644889 2.35363383 -0.01289778 3.56611186 -0.0195421 C5.49172561 -0.01489629 5.49172561 -0.01489629 7.45624065 -0.01015663 C8.84094019 -0.01389475 10.22563762 -0.01849692 11.61033171 -0.02388728 C15.41035316 -0.03611271 19.21028654 -0.03585736 23.01032317 -0.03349853 C27.11064644 -0.03309024 31.21094152 -0.04413057 35.31125164 -0.05361366 C43.34263105 -0.07022203 51.37398109 -0.07572313 59.40537623 -0.07683842 C65.93405086 -0.07778895 72.4627158 -0.08189951 78.99138737 -0.08823967 C97.50376197 -0.10585148 116.01611338 -0.11507861 134.52849642 -0.11357872 C135.52637001 -0.11349881 136.52424359 -0.1134189 137.55235577 -0.11333656 C139.05099491 -0.11321392 139.05099491 -0.11321392 140.57990959 -0.1130888 C156.77213679 -0.11227587 172.96427099 -0.13141539 189.15647129 -0.1596133 C205.78484381 -0.18834216 222.41317097 -0.2021536 239.04156893 -0.20042574 C248.37622168 -0.19976185 257.71077691 -0.20525379 267.0454073 -0.22678185 C274.99299248 -0.24499364 282.94043594 -0.24934098 290.88803295 -0.235763 C294.94184727 -0.22923338 298.99538968 -0.22911577 303.04917812 -0.2464695 C306.76337486 -0.26220576 310.47708423 -0.25933136 314.19126912 -0.24190123 C316.16469083 -0.23738357 318.13812769 -0.25248433 320.11149055 -0.26838052 C327.3269832 -0.21235916 332.76572739 0.61224444 339.03941631 4.25726891 C339.69298998 4.6355353 340.34656365 5.0138017 341.01994258 5.40353072 C347.83748696 9.56216974 352.05312701 16.66187851 354.03941631 24.25726891 C354.32351541 28.1263318 354.29202148 31.98437114 354.26646709 35.86224937 C354.26675915 37.02380043 354.2670512 38.18535149 354.2673521 39.38210106 C354.26596123 43.21296274 354.25041112 47.04362879 354.23472881 50.87445641 C354.23099782 53.53389376 354.22805284 56.19332034 354.22615337 58.85275841 C354.21994703 65.13184317 354.20354771 71.41085796 354.18345439 77.68991196 C354.16106902 84.8410539 354.15009534 91.99219925 354.14006352 99.14336753 C354.1191807 113.84803704 354.08402121 128.55265175 354.03941631 143.25726891 C354.64664532 143.54988609 355.25387432 143.84250328 355.8795042 144.14398766 C358.65418477 145.57413837 360.99134967 147.36864296 363.47691631 149.25726891 C364.00132305 149.65462242 364.52572979 150.05197594 365.06602764 150.46137047 C369.89166746 154.12481806 374.69139004 157.82238398 379.48863506 161.52289391 C383.49659019 164.61276224 387.51806829 167.68486394 391.53941631 170.75726891 C396.79332348 174.77302042 402.04564142 178.79079169 407.28941631 182.81976891 C408.28457256 183.58418297 409.27972881 184.34859703 410.30504131 185.13617516 C411.20738506 185.83613609 412.10972881 186.53609703 413.03941631 187.25726891 C413.9078564 187.71993093 414.77629648 188.18259296 415.67105293 188.65927505 C419.51152464 192.8721091 418.72487673 197.44381703 418.6676054 202.94626427 C418.67824698 204.76002991 418.67824698 204.76002991 418.68910354 206.61043727 C418.70368064 209.96886391 418.69577084 213.3258847 418.67838061 216.68420887 C418.66503001 220.30539833 418.68043576 223.92647987 418.69220257 227.54765892 C418.71060426 234.64393645 418.70204868 241.73993903 418.68411434 248.83620806 C418.67009535 254.6059747 418.66619404 260.37566664 418.66955662 266.14544868 C418.67027278 267.37672833 418.67027278 267.37672833 418.67100341 268.63288232 C418.67202975 270.30044789 418.6730851 271.96801344 418.67416918 273.63557898 C418.68274219 288.39104104 418.66604541 303.14637039 418.63634014 317.90180016 C418.60753279 332.21142726 418.60040348 346.52086296 418.61583233 360.83051109 C418.63261001 376.41246279 418.63661028 391.99432352 418.61912197 407.57627761 C418.61727762 409.23958324 418.61544289 410.90288888 418.6136179 412.56619453 C418.61270581 413.38454821 418.61179372 414.20290189 418.61085399 415.04605416 C418.6052559 420.80373184 418.60854928 426.56136504 418.61516285 432.3190403 C418.62291125 439.34368082 418.61609041 446.36813319 418.59098781 453.39273591 C418.57852385 456.97476772 418.57230793 460.55650712 418.58352947 464.1385498 C418.59548338 468.02800294 418.57624926 471.91695566 418.55408001 475.80637169 C418.56232078 476.93012644 418.57056154 478.05388119 418.57905203 479.21168911 C418.48021793 488.62313146 416.28334272 496.72273659 409.74254131 503.72601891 C402.76537983 509.99906317 395.43618567 512.56751303 386.0826025 512.51453781 C385.29527001 512.51804389 384.50793752 512.52154996 383.69674647 512.52516228 C381.05440929 512.53447763 378.41229245 512.52955261 375.7699461 512.52469444 C373.8579855 512.52843063 371.94602642 512.53303203 370.03406978 512.53842509 C364.77658428 512.55067437 359.51916233 512.55039234 354.26166582 512.54803634 C348.59280539 512.54762866 342.92396546 512.55866266 337.25511456 512.56815147 C326.14728752 512.58477311 315.03948171 512.59026155 303.93164328 512.59137623 C294.90345474 512.59232617 285.87527322 512.59643375 276.84708691 512.60277748 C255.42155307 512.61752615 233.99602614 512.62982687 212.57048702 512.62878036 C211.5426887 512.62873363 211.5426887 512.62873363 210.49412678 512.62868595 C207.0212725 512.62851973 203.54841822 512.62832165 200.07556394 512.62811653 C199.38584594 512.62807664 198.69612795 512.62803675 197.98550941 512.62799565 C196.59073123 512.62791478 195.19595304 512.62783118 193.80117486 512.62774487 C172.10289261 512.62651948 150.40467287 512.64153021 128.7064085 512.66889 C104.32678613 512.69961812 79.94721527 512.71679671 55.56757045 512.71496356 C42.65976259 512.71429927 29.75202523 512.71980832 16.84423351 512.74131966 C5.85431363 512.75951723 -5.1355038 512.76389047 -16.12543222 512.75030081 C-21.73272233 512.74376398 -27.3398158 512.74367995 -32.94708729 512.76100731 C-38.08179851 512.77671119 -43.21615672 512.77390163 -48.35085919 512.75643905 C-50.20683629 512.75336325 -52.06283955 512.75702329 -53.91878578 512.7681592 C-65.79469942 512.83468774 -76.29653494 512.4900833 -85.42933369 503.96039391 C-92.94183324 495.60465461 -94.25944221 487.26277652 -94.30202961 476.34122276 C-94.32046811 474.52701055 -94.32046811 474.52701055 -94.33927912 472.67614758 C-94.37102223 469.32657754 -94.3938469 465.9771692 -94.41260064 462.62751579 C-94.43028744 459.7525804 -94.45527786 456.87772664 -94.4802844 454.002847 C-94.56960077 443.7101655 -94.62961715 433.41737757 -94.68323994 423.12445641 C-94.68752242 422.31170779 -94.6918049 421.49895918 -94.69621715 420.66158181 C-94.78083794 404.51253593 -94.85300453 388.36344721 -94.90202904 372.21425247 C-94.91298669 368.66674175 -94.9241168 365.11923162 -94.9354372 361.57172203 C-94.93964268 360.24921425 -94.93964268 360.24921425 -94.94393312 358.89998914 C-94.99099874 344.6201607 -95.09687558 330.34137893 -95.22614665 316.06208323 C-95.35787596 301.38976849 -95.43266991 286.71799397 -95.45325178 272.04509652 C-95.46630479 263.81121042 -95.50463594 255.57912315 -95.60766506 247.3458271 C-95.69534994 240.33329288 -95.7317991 233.3228388 -95.70213074 226.30977826 C-95.68858999 222.73396716 -95.69890163 219.16259355 -95.77558231 215.58748245 C-96.23360198 193.07357018 -96.23360198 193.07357018 -90.69277477 186.97982216 C-87.63454381 184.26292034 -84.37755474 182.16474634 -80.77090824 180.25121617 C-78.17698729 178.82704025 -75.92248035 177.03123462 -73.61292744 175.19086266 C-72.04287813 174.02339009 -70.47128177 172.85799494 -68.89808369 171.69476891 C-63.05380333 167.34262153 -57.23966383 162.96364368 -51.52308369 158.44476891 C-50.97482929 158.01180504 -50.4265749 157.57884117 -49.86170673 157.13275719 C-48.78069105 156.27836173 -47.69987787 155.42370997 -46.61927509 154.56879234 C-43.65690115 152.22645015 -40.68883919 149.89188977 -37.71058369 147.56976891 C-37.1608791 147.13495201 -36.61117451 146.70013512 -36.0448122 146.25214195 C-32.18901266 143.25726891 -32.18901266 143.25726891 -29.96058369 143.25726891 C-29.96427086 142.6522709 -29.96795803 142.04727289 -29.97175694 141.42394161 C-30.06025352 126.67487642 -30.12636392 111.92582696 -30.16783237 97.17655849 C-30.18842142 90.04377813 -30.21647147 82.91117543 -30.2623415 75.77850914 C-30.30232196 69.55866717 -30.32804307 63.33895393 -30.33693767 57.11898702 C-30.34213365 53.828193 -30.35639512 50.53785111 -30.38350391 47.24715424 C-30.41262197 43.56549104 -30.41653599 39.88458572 -30.41468525 36.20282555 C-30.4362569 34.58225494 -30.4362569 34.58225494 -30.45826435 32.92894554 C-30.40753112 23.57646872 -27.48971334 15.14912798 -20.96058369 8.25726891 C-14.53663266 3.09431567 -8.37097772 0.011636 0 0 Z " fill="#2091EE" transform="translate(93.96058368682861,-0.25726890563964844)"/>
<path d="M0 0 C1.17681691 -0.00644889 2.35363383 -0.01289778 3.56611186 -0.0195421 C5.49172561 -0.01489629 5.49172561 -0.01489629 7.45624065 -0.01015663 C8.84094019 -0.01389475 10.22563762 -0.01849692 11.61033171 -0.02388728 C15.41035316 -0.03611271 19.21028654 -0.03585736 23.01032317 -0.03349853 C27.11064644 -0.03309024 31.21094152 -0.04413057 35.31125164 -0.05361366 C43.34263105 -0.07022203 51.37398109 -0.07572313 59.40537623 -0.07683842 C65.93405086 -0.07778895 72.4627158 -0.08189951 78.99138737 -0.08823967 C97.50376197 -0.10585148 116.01611338 -0.11507861 134.52849642 -0.11357872 C135.52637001 -0.11349881 136.52424359 -0.1134189 137.55235577 -0.11333656 C139.05099491 -0.11321392 139.05099491 -0.11321392 140.57990959 -0.1130888 C156.77213679 -0.11227587 172.96427099 -0.13141539 189.15647129 -0.1596133 C205.78484381 -0.18834216 222.41317097 -0.2021536 239.04156893 -0.20042574 C248.37622168 -0.19976185 257.71077691 -0.20525379 267.0454073 -0.22678185 C274.99299248 -0.24499364 282.94043594 -0.24934098 290.88803295 -0.235763 C294.94184727 -0.22923338 298.99538968 -0.22911577 303.04917812 -0.2464695 C306.76337486 -0.26220576 310.47708423 -0.25933136 314.19126912 -0.24190123 C316.16469083 -0.23738357 318.13812769 -0.25248433 320.11149055 -0.26838052 C327.3269832 -0.21235916 332.76572739 0.61224444 339.03941631 4.25726891 C339.69298998 4.6355353 340.34656365 5.0138017 341.01994258 5.40353072 C347.90045609 9.60058032 351.92017156 16.64658081 354.03941631 24.25726891 C354.25310708 27.14808798 354.37315501 29.94802783 354.39432049 32.83922386 C354.40802396 33.69005163 354.42172742 34.5408794 354.43584615 35.41748983 C354.47886006 38.26141755 354.50771466 41.10530026 354.53624249 43.94940758 C354.56351656 45.99154016 354.59140994 48.03366455 354.61987591 50.07578087 C354.86571596 68.69292975 354.98850256 87.31231225 355.08448601 105.93077183 C355.15666073 119.68717245 355.28465028 133.44063083 355.48654479 147.19575328 C355.62382964 156.87660137 355.69587104 166.55664691 355.72026139 176.23842984 C355.73667 182.01773819 355.78193104 187.7934431 355.8979578 193.57168198 C356.00592172 199.01095652 356.03285587 204.44476119 355.99883366 209.88494301 C356.00031178 211.87530709 356.03068844 213.86590263 356.09282589 215.85529709 C356.52532742 230.46909084 356.52532742 230.46909084 352.37943959 235.11908555 C348.31809203 238.49940596 343.85959773 240.94001618 339.11464465 243.22417414 C336.13721892 244.70640281 333.4488408 246.49304112 330.68394756 248.33930016 C328.74027413 249.5833164 326.79626205 250.82680371 324.85191631 252.06976891 C323.79512676 252.74572105 322.73833721 253.4216732 321.64952374 254.11810875 C312.02264436 260.27315219 302.38384634 266.40938647 292.74107647 272.53949547 C288.17295574 275.44400455 283.60626554 278.35076119 279.03941631 281.25726891 C277.20608968 282.4239461 275.37275635 283.59061277 273.53941631 284.75726891 C272.63191631 285.33476891 271.72441631 285.91226891 270.78941631 286.50726891 C268.03941631 288.25726891 265.28941631 290.00726891 262.53941631 291.75726891 C261.63167461 292.33493004 260.72393291 292.91259117 259.78868389 293.50775719 C257.95781878 294.67283839 256.12692691 295.83787754 254.29600811 297.00287437 C248.7405631 300.53784312 243.18592712 304.07407587 237.63267803 307.61249352 C235.79555973 308.78170076 233.95736209 309.94921402 232.11802959 311.11493492 C227.58166818 313.99096351 223.06361711 316.88986327 218.57457256 319.83930016 C217.70534161 320.40439293 216.83611065 320.9694857 215.94053936 321.5517025 C214.29604976 322.621328 212.65779772 323.70062557 211.02696514 324.79096031 C209.93098003 325.49938072 209.93098003 325.49938072 208.81285381 326.22211266 C208.1778294 326.6409774 207.54280499 327.05984215 206.88853741 327.49139977 C204.39208587 328.52538029 203.54453869 328.28183518 201.03941631 327.25726891 C198.83485004 325.92235757 196.71290524 324.55775679 194.58629131 323.10883141 C193.31422331 322.25977206 192.04208565 321.41081707 190.76988506 320.56195641 C188.78260315 319.22600969 186.79711941 317.88747664 184.81334209 316.54633141 C182.88803356 315.24774465 180.95627555 313.95920639 179.02379131 312.67133141 C178.44329021 312.27435051 177.86278912 311.87736961 177.26469707 311.46835899 C171.10872174 307.37651029 164.59678362 304.27412723 157.03941631 305.25726891 C154.40794722 306.55253647 152.19423052 307.81972824 149.78941631 309.44476891 C149.11483379 309.88023033 148.44025127 310.31569176 147.74522686 310.76434898 C143.74814244 313.36893009 139.84122642 316.09200508 135.94957256 318.85101891 C135.10104717 319.44761314 134.25252178 320.04420738 133.3782835 320.65888023 C131.71598434 321.83395932 130.0638705 323.02360392 128.42320538 324.22870445 C127.28383526 325.03755089 127.28383526 325.03755089 126.12144756 325.86273766 C125.45347149 326.34895592 124.78549541 326.83517418 124.09727764 327.33612633 C121.33613554 328.57207236 119.88858536 328.15551795 117.03941631 327.25726891 C114.48273751 325.75932854 112.05195512 324.22534087 109.60191631 322.56976891 C108.07654859 321.56093666 106.5504717 320.55317609 105.02379131 319.54633141 C104.21490459 319.01040367 103.40601788 318.47447594 102.57261944 317.92230797 C98.19751156 315.04661062 93.7733848 312.24844518 89.35191631 309.44476891 C87.47295249 308.25084909 85.59404681 307.05683777 83.71519756 305.86273766 C82.77627666 305.26638512 81.83735577 304.67003258 80.86998272 304.05560875 C76.25807408 301.1255312 71.6488593 298.19122312 67.03941631 295.25726891 C65.20609639 294.09058117 63.37276304 292.92391452 61.53941631 291.75726891 C50.53941631 284.75726891 39.53941631 277.75726891 28.53941631 270.75726891 C27.17792461 269.89089806 27.17792461 269.89089806 25.78892803 269.00702477 C23.95714186 267.8412983 22.12543601 266.67544559 20.29381084 265.50946617 C15.68745914 262.57736976 11.07969593 259.64753739 6.46910381 256.72211266 C5.07304913 255.83555992 5.07304913 255.83555992 3.64879131 254.93109703 C1.93319325 253.84169226 0.21711999 252.75303507 -1.49964619 251.66547203 C-3.18766296 250.59310062 -4.84693492 249.47447304 -6.47855854 248.3181057 C-9.17068398 246.55492124 -11.78241689 245.63746599 -14.84714985 244.67934227 C-21.34592567 242.22628146 -26.23479905 239.25701567 -29.96058369 233.25726891 C-34.28528885 219.88279696 -32.43266659 203.8632874 -32.12018871 190.03235149 C-32.00948588 184.23798765 -32.01000307 178.44357749 -31.99732685 172.64832115 C-31.96058733 162.92289332 -31.85072428 153.20062861 -31.68909931 143.47650719 C-31.46160076 129.77692505 -31.37243745 116.07893016 -31.30796051 102.37775469 C-31.25808721 92.86705976 -31.17543684 83.3566033 -31.08644009 73.8462038 C-31.06502131 71.5457719 -31.04447271 69.24533172 -31.02479076 66.9448843 C-30.96743298 60.38784299 -30.8894778 53.83169419 -30.77888203 47.27532578 C-30.74811614 45.2925167 -30.72381729 43.30959476 -30.70657063 41.32662201 C-30.68150853 38.61259875 -30.63201388 35.90007031 -30.57618427 33.18652916 C-30.57419324 32.4084041 -30.57220222 31.63027903 -30.57015085 30.82857442 C-30.34152407 22.51693764 -26.69842036 14.31387428 -20.96058369 8.25726891 C-14.53663266 3.09431567 -8.37097772 0.011636 0 0 Z " fill="#EBEEF0" transform="translate(93.96058368682861,-0.25726890563964844)"/>
<path d="M0 0 C-0.02966354 1.10087952 -0.05932709 2.20175903 -0.08988953 3.33599854 C-0.35794557 13.75106025 -0.52433825 24.16354619 -0.59327984 34.58188248 C-0.63193562 39.93790197 -0.70536244 45.28856843 -0.8605957 50.64257812 C-1.00934032 55.8182459 -1.06368283 60.98738055 -1.05484962 66.16509247 C-1.06765164 68.13176963 -1.11349518 70.09853855 -1.194067 72.06360626 C-1.59580031 81.28448422 -1.59580031 81.28448422 1 90 C5.66267366 94.97767579 11.69100247 97.99526808 17.77544022 100.90847397 C20.62800357 102.30814288 23.25265175 103.98172128 25.89453125 105.7421875 C26.71244141 106.26296875 27.53035156 106.78375 28.37304688 107.3203125 C29.58057617 108.08988281 29.58057617 108.08988281 30.8125 108.875 C32.67317121 110.05990505 34.53384847 111.24480061 36.39453125 112.4296875 C37.32088379 113.01975586 38.24723633 113.60982422 39.20166016 114.21777344 C43.80023762 117.14654813 48.40018027 120.07317691 53 123 C54.83334004 124.16665613 56.66667337 125.3333228 58.5 126.5 C59.86125 127.36625 59.86125 127.36625 61.25 128.25 C76.375 137.875 76.375 137.875 91.5 147.5 C92.8614917 148.36637085 92.8614917 148.36637085 94.25048828 149.25024414 C96.08227445 150.41597061 97.9139803 151.58182331 99.74560547 152.74780273 C104.35195718 155.67989914 108.95972038 158.60973151 113.5703125 161.53515625 C125.76586984 169.27731575 137.90597216 177.10015718 150 185 C146.36695814 189.0642957 142.03353822 191.77571887 137.49609375 194.71484375 C136.64269913 195.27357681 135.7893045 195.83230988 134.91004944 196.40797424 C133.05995611 197.61897859 131.20853934 198.82796296 129.35595703 200.03515625 C124.34324186 203.30260452 119.34140123 206.58660047 114.33984375 209.87109375 C113.30914764 210.54768036 112.27845154 211.22426697 111.21652222 211.9213562 C100.91754227 218.6923952 90.70371982 225.58659943 80.5 232.5 C66.06824181 242.27240964 51.56884516 251.93319706 37 261.5 C20.331695 272.44629702 3.75649403 283.52241223 -12.75415039 294.70507812 C-20.88291654 300.20916765 -29.02078618 305.69510228 -37.22265625 311.08984375 C-37.93284912 311.55810074 -38.64304199 312.02635773 -39.37475586 312.50880432 C-42.63408355 314.65764109 -45.89762015 316.79925081 -49.17138672 318.92602539 C-50.30069784 319.66906575 -51.42978194 320.41245131 -52.55859375 321.15625 C-53.52079834 321.78337891 -54.48300293 322.41050781 -55.47436523 323.05664062 C-59.12733395 325.86743144 -61.46051317 329.19076976 -64 333 C-64.34358538 296.89728293 -64.60777074 260.79485326 -64.76597994 224.69083692 C-64.78473979 220.42523626 -64.80415469 216.15963882 -64.82397461 211.89404297 C-64.82790927 211.04486548 -64.83184392 210.195688 -64.83589781 209.32077786 C-64.90110906 195.58378111 -65.01934268 181.84772915 -65.15729194 168.11129227 C-65.29773319 154.00873855 -65.38091627 139.90667845 -65.41132742 125.80345416 C-65.43187672 117.1054041 -65.49668462 108.4100245 -65.618747 99.71279696 C-65.69824861 93.74277903 -65.72195663 87.77413445 -65.70252066 81.80362603 C-65.69294075 78.36140775 -65.70724672 74.92384104 -65.78808212 71.48245811 C-66.22338228 49.76238117 -66.22338228 49.76238117 -60.73414803 43.78388214 C-57.66976496 41.07116692 -54.40492043 38.95206782 -50.81083596 37.01016283 C-48.22635493 35.56842723 -45.96437366 33.77215149 -43.65234375 31.93359375 C-42.08229444 30.76612119 -40.51069808 29.60072604 -38.9375 28.4375 C-33.09321964 24.08535262 -27.27908014 19.70637478 -21.5625 15.1875 C-21.01424561 14.75453613 -20.46599121 14.32157227 -19.90112305 13.87548828 C-18.82010736 13.02109282 -17.73929419 12.16644107 -16.65869141 11.31152344 C-13.69631746 8.96918125 -10.7282555 6.63462087 -7.75 4.3125 C-7.20029541 3.87768311 -6.65059082 3.44286621 -6.08422852 2.99487305 C-2.22842897 0 -2.22842897 0 0 0 Z " fill="#1E88E5" transform="translate(64,143)"/>
<path d="M0 0 C0.94571403 -0.00297112 1.89142805 -0.00594224 2.86580008 -0.0090034 C6.04861903 -0.01770535 9.23140043 -0.01919991 12.41423035 -0.02069092 C14.69062379 -0.02531801 16.96701645 -0.03034253 19.2434082 -0.03573608 C25.43765046 -0.0488721 31.63188186 -0.05530733 37.82613587 -0.05974674 C41.69383214 -0.06267539 45.56152543 -0.06677979 49.4292202 -0.07125092 C60.13769474 -0.083361 70.84616564 -0.09374277 81.55464649 -0.09712601 C82.5827031 -0.09745536 82.5827031 -0.09745536 83.63152854 -0.09779136 C84.31853942 -0.09800964 85.00555029 -0.09822791 85.71337968 -0.09845281 C87.10552522 -0.09889627 88.49767075 -0.09934284 89.88981628 -0.09979248 C90.92564467 -0.10012463 90.92564467 -0.10012463 91.98239889 -0.10046348 C103.17174216 -0.10441147 114.36102031 -0.1218656 125.55033842 -0.145152 C137.03817384 -0.16886669 148.52596729 -0.18106993 160.01382846 -0.18249393 C166.46387561 -0.18354332 172.91383091 -0.18947985 179.36385536 -0.20731354 C185.43031694 -0.22376011 191.4966173 -0.22596628 197.56309319 -0.21717453 C199.79074662 -0.21640234 202.0184086 -0.22077072 204.24604034 -0.23063278 C207.28523256 -0.24329957 210.32384922 -0.23750394 213.36303711 -0.22705078 C214.687802 -0.23913539 214.687802 -0.23913539 216.03932983 -0.25146413 C221.7619319 -0.20537634 226.12051383 0.63077825 230.51652527 4.64044189 C234.47472768 9.72388579 235.52885627 13.74211699 234.87199402 20.14044189 C233.01342575 25.40638533 230.26885206 27.93439957 225.87199402 31.14044189 C221.83871049 32.48486974 217.94993437 32.2849792 213.74398804 32.28088379 C212.325417 32.28534047 212.325417 32.28534047 210.87818795 32.28988719 C207.69536901 32.29858914 204.51258761 32.3000837 201.32975769 32.30157471 C199.05336425 32.3062018 196.77697159 32.31122631 194.50057983 32.31661987 C188.30633758 32.32975589 182.11210617 32.33619112 175.91785216 32.34063053 C172.0501559 32.34355918 168.18246261 32.34766357 164.31476784 32.3521347 C153.6062933 32.36424479 142.89782239 32.37462656 132.18934155 32.3780098 C131.50397047 32.37822936 130.81859939 32.37844893 130.1124595 32.37867515 C129.42544862 32.37889343 128.73843774 32.3791117 128.03060836 32.3793366 C126.63846282 32.37978006 125.24631729 32.38022663 123.85417175 32.38067627 C122.81834336 32.38100841 122.81834336 32.38100841 121.76158915 32.38134727 C110.57224587 32.38529526 99.38296773 32.40274939 88.19364961 32.42603579 C76.7058142 32.44975048 65.21802075 32.46195372 53.73015958 32.46337771 C47.28011243 32.46442711 40.83015713 32.47036364 34.38013268 32.48819733 C28.3136711 32.50464389 22.24737074 32.50685007 16.18089485 32.49805832 C13.95324142 32.49728613 11.72557943 32.50165451 9.49794769 32.51151657 C6.45875548 32.52418336 3.42013882 32.51838773 0.38095093 32.50793457 C-0.50222567 32.51599097 -1.38540227 32.52404738 -2.29534179 32.53234792 C-8.01794386 32.48626013 -12.37652579 31.65010554 -16.77253723 27.64044189 C-20.73073964 22.556998 -21.78486823 18.5387668 -21.12800598 12.14044189 C-19.26943771 6.87449846 -16.52486403 4.34648422 -12.12800598 1.14044189 C-8.09472245 -0.20398595 -4.20594634 -0.00409541 0 0 Z " fill="#90A4AE" transform="translate(149.1280059814453,127.85955810546875)"/>
<path d="M0 0 C0.94571403 -0.00297112 1.89142805 -0.00594224 2.86580008 -0.0090034 C6.04861903 -0.01770535 9.23140043 -0.01919991 12.41423035 -0.02069092 C14.69062379 -0.02531801 16.96701645 -0.03034253 19.2434082 -0.03573608 C25.43765046 -0.0488721 31.63188186 -0.05530733 37.82613587 -0.05974674 C41.69383214 -0.06267539 45.56152543 -0.06677979 49.4292202 -0.07125092 C60.13769474 -0.083361 70.84616564 -0.09374277 81.55464649 -0.09712601 C82.5827031 -0.09745536 82.5827031 -0.09745536 83.63152854 -0.09779136 C84.31853942 -0.09800964 85.00555029 -0.09822791 85.71337968 -0.09845281 C87.10552522 -0.09889627 88.49767075 -0.09934284 89.88981628 -0.09979248 C90.92564467 -0.10012463 90.92564467 -0.10012463 91.98239889 -0.10046348 C103.17174216 -0.10441147 114.36102031 -0.1218656 125.55033842 -0.145152 C137.03817384 -0.16886669 148.52596729 -0.18106993 160.01382846 -0.18249393 C166.46387561 -0.18354332 172.91383091 -0.18947985 179.36385536 -0.20731354 C185.43031694 -0.22376011 191.4966173 -0.22596628 197.56309319 -0.21717453 C199.79074662 -0.21640234 202.0184086 -0.22077072 204.24604034 -0.23063278 C207.28523256 -0.24329957 210.32384922 -0.23750394 213.36303711 -0.22705078 C214.687802 -0.23913539 214.687802 -0.23913539 216.03932983 -0.25146413 C221.7619319 -0.20537634 226.12051383 0.63077825 230.51652527 4.64044189 C234.47472768 9.72388579 235.52885627 13.74211699 234.87199402 20.14044189 C233.01342575 25.40638533 230.26885206 27.93439957 225.87199402 31.14044189 C221.83871049 32.48486974 217.94993437 32.2849792 213.74398804 32.28088379 C212.325417 32.28534047 212.325417 32.28534047 210.87818795 32.28988719 C207.69536901 32.29858914 204.51258761 32.3000837 201.32975769 32.30157471 C199.05336425 32.3062018 196.77697159 32.31122631 194.50057983 32.31661987 C188.30633758 32.32975589 182.11210617 32.33619112 175.91785216 32.34063053 C172.0501559 32.34355918 168.18246261 32.34766357 164.31476784 32.3521347 C153.6062933 32.36424479 142.89782239 32.37462656 132.18934155 32.3780098 C131.50397047 32.37822936 130.81859939 32.37844893 130.1124595 32.37867515 C129.42544862 32.37889343 128.73843774 32.3791117 128.03060836 32.3793366 C126.63846282 32.37978006 125.24631729 32.38022663 123.85417175 32.38067627 C122.81834336 32.38100841 122.81834336 32.38100841 121.76158915 32.38134727 C110.57224587 32.38529526 99.38296773 32.40274939 88.19364961 32.42603579 C76.7058142 32.44975048 65.21802075 32.46195372 53.73015958 32.46337771 C47.28011243 32.46442711 40.83015713 32.47036364 34.38013268 32.48819733 C28.3136711 32.50464389 22.24737074 32.50685007 16.18089485 32.49805832 C13.95324142 32.49728613 11.72557943 32.50165451 9.49794769 32.51151657 C6.45875548 32.52418336 3.42013882 32.51838773 0.38095093 32.50793457 C-0.50222567 32.51599097 -1.38540227 32.52404738 -2.29534179 32.53234792 C-8.01794386 32.48626013 -12.37652579 31.65010554 -16.77253723 27.64044189 C-20.73073964 22.556998 -21.78486823 18.5387668 -21.12800598 12.14044189 C-19.26943771 6.87449846 -16.52486403 4.34648422 -12.12800598 1.14044189 C-8.09472245 -0.20398595 -4.20594634 -0.00409541 0 0 Z " fill="#90A4AE" transform="translate(149.1280059814453,63.85955810546875)"/>
<path d="M0 0 C1.13977798 -0.00571014 2.27955597 -0.01142029 3.45387268 -0.01730347 C4.70536102 -0.01842133 5.95684937 -0.01953918 7.2462616 -0.02069092 C8.56354752 -0.02565582 9.88083344 -0.03062073 11.23803711 -0.03573608 C14.85384899 -0.04885389 18.4696423 -0.05530388 22.08547425 -0.05974674 C24.3450783 -0.06267859 26.60467729 -0.06678362 28.86427879 -0.07125092 C35.93572873 -0.08492449 43.00716708 -0.09459171 50.07862931 -0.09845281 C58.2384353 -0.10293275 66.3980737 -0.12047817 74.55782872 -0.1494534 C80.86706377 -0.17107883 87.17625169 -0.18115755 93.4855234 -0.18249393 C97.25281288 -0.18354138 101.01994479 -0.18943636 104.78719521 -0.20731354 C108.33226814 -0.22380912 111.87706534 -0.22594268 115.42216301 -0.21717453 C117.33899313 -0.21603874 119.25581417 -0.22974483 121.17259216 -0.243927 C127.85691437 -0.21150687 132.98834513 -0.07766066 138.16105652 4.64044189 C142.11925893 9.72388579 143.17338752 13.74211699 142.51652527 20.14044189 C140.657957 25.40638533 137.91338331 27.93439957 133.51652527 31.14044189 C130.41917006 32.17289363 128.28027452 32.27114995 125.03305054 32.28088379 C123.32338356 32.28944901 123.32338356 32.28944901 121.57917786 32.29818726 C120.32768951 32.29930511 119.07620117 32.30042297 117.78678894 32.30157471 C116.46950302 32.30653961 115.1522171 32.31150452 113.79501343 32.31661987 C110.17920155 32.32973768 106.56340824 32.33618767 102.94757628 32.34063053 C100.68797223 32.34356238 98.42837325 32.34766741 96.16877174 32.3521347 C89.09732181 32.36580828 82.02588346 32.3754755 74.95442122 32.3793366 C66.79461524 32.38381654 58.63497684 32.40136196 50.47522181 32.43033719 C44.16598677 32.45196262 37.85679884 32.46204134 31.54752713 32.46337771 C27.78023766 32.46442517 24.01310575 32.47032015 20.24585533 32.48819733 C16.70078239 32.50469291 13.1559852 32.50682647 9.61088753 32.49805832 C7.6940574 32.49692253 5.77723637 32.51062862 3.86045837 32.52481079 C-2.82386383 32.49239066 -7.95529459 32.35854444 -13.12800598 27.64044189 C-17.08620839 22.556998 -18.14033698 18.5387668 -17.48347473 12.14044189 C-15.62490646 6.87449846 -12.88033278 4.34648422 -8.48347473 1.14044189 C-5.38611952 0.10799016 -3.24722398 0.00973384 0 0 Z " fill="#90A4AE" transform="translate(145.4834747314453,191.85955810546875)"/>
<path d="M0 0 C3.55270399 1.776352 6.29303497 3.61071856 9.4375 6 C10.22411011 6.59603027 10.22411011 6.59603027 11.02661133 7.20410156 C15.85225114 10.86754915 20.65197373 14.56511508 25.44921875 18.265625 C28.72983276 20.79476143 32.01935865 23.31211277 35.31079102 25.82714844 C36.76613017 26.93922426 38.22104816 28.05185147 39.67553711 29.16503906 C43.04356314 31.74272304 46.41460759 34.31602423 49.796875 36.875 C50.94791943 37.74999637 52.09896125 38.62499616 53.25 39.5 C54.24515625 40.2528125 55.2403125 41.005625 56.265625 41.78125 C59.03810222 44.03091723 61.52250756 46.43208813 64 49 C53.66867534 55.9802074 43.19505326 62.70409904 32.63867188 69.33789062 C27.81265455 72.37781716 23.00001746 75.43876313 18.1875 78.5 C16.80002563 79.38123535 16.80002563 79.38123535 15.38452148 80.28027344 C14.50868408 80.8374707 13.63284668 81.39466797 12.73046875 81.96875 C11.90981934 82.49082031 11.08916992 83.01289063 10.24365234 83.55078125 C8.30147429 84.80527189 6.39194937 86.09456571 4.48828125 87.40625 C2 89 2 89 0 89 C0 59.63 0 30.26 0 0 Z " fill="#63B4F5" transform="translate(448,143)"/>
<path d="M0 0 C0 29.37 0 58.74 0 89 C-3.88143841 87.44742464 -6.74120881 86.02654081 -10.18359375 83.796875 C-11.18302002 83.15298828 -12.18244629 82.50910156 -13.2121582 81.84570312 C-14.276521 81.15412109 -15.34088379 80.46253906 -16.4375 79.75 C-18.11903481 78.66490126 -19.80057434 77.57980965 -21.48252869 76.49536133 C-22.62859731 75.75615324 -23.77431645 75.01640305 -24.91969299 74.27612305 C-30.52979524 70.65108944 -36.17051884 67.07510704 -41.8125 63.5 C-49.27481798 58.76267457 -56.68824138 53.96705965 -64 49 C-60.47320961 45.34258775 -56.77364828 42.10673576 -52.75 39 C-51.84906616 38.29822632 -51.84906616 38.29822632 -50.92993164 37.58227539 C-43.98754387 32.18717506 -36.99273556 26.85979294 -30.00146484 21.52832031 C-27.07893899 19.296677 -24.16394142 17.05533294 -21.25 14.8125 C-20.22777344 14.02746094 -19.20554688 13.24242187 -18.15234375 12.43359375 C-15.88692163 10.6846991 -13.62982135 8.92749267 -11.37890625 7.16015625 C-10.48413574 6.46152466 -10.48413574 6.46152466 -9.57128906 5.7487793 C-8.42300289 4.85186004 -7.27767222 3.95114042 -6.13574219 3.04614258 C-2.22497935 0 -2.22497935 0 0 0 Z " fill="#63B4F5" transform="translate(64,143)"/>
</svg>
