<?xml version="1.0" encoding="UTF-8"?>
<svg version="1.1" xmlns="http://www.w3.org/2000/svg" width="512" height="512">
<path d="M0 0 C0.89036229 -0.00367669 1.78072458 -0.00735338 2.69806755 -0.01114148 C5.69966755 -0.02220786 8.70123296 -0.02602718 11.70285034 -0.02983093 C13.84777436 -0.03609343 15.99269729 -0.04274004 18.13761902 -0.04974365 C23.97875677 -0.06717505 29.81988631 -0.07771157 35.66104364 -0.08594918 C39.30914484 -0.09109555 42.95724347 -0.09717149 46.60534286 -0.10346031 C58.0155622 -0.12251966 69.42577504 -0.13674835 80.83600724 -0.14507228 C94.01384119 -0.15484383 107.19150714 -0.18115822 120.36928189 -0.22157317 C130.54940692 -0.25172454 140.72948377 -0.2665403 150.90965259 -0.26985329 C156.99205079 -0.27220519 163.07426966 -0.28118374 169.15662003 -0.30631447 C174.88084961 -0.32958242 180.60478164 -0.33383338 186.32904625 -0.32355309 C188.42847241 -0.32305728 190.52791314 -0.32939074 192.62729454 -0.34310913 C195.49740999 -0.36081214 198.36645581 -0.3537294 201.23657227 -0.34057617 C202.06402297 -0.35154542 202.89147368 -0.36251466 203.74399865 -0.37381631 C210.47178871 -0.29957053 215.65872573 1.65801214 220.74142456 6.11201477 C221.28025269 6.76299133 221.81908081 7.4139679 222.37423706 8.08467102 C222.92853394 8.73306946 223.48283081 9.3814679 224.05392456 10.04951477 C227.07183591 14.42956448 227.74663712 18.16809656 227.71714783 23.44061279 C227.71530487 24.70935242 227.71346191 25.97809204 227.71156311 27.28527832 C227.69957595 28.68382361 227.68747181 30.08236789 227.67526245 31.48091125 C227.66982451 32.95957618 227.66539459 34.43824511 227.66189575 35.91691589 C227.6530729 39.09699053 227.6388013 42.27697845 227.62080574 45.45701408 C227.59407612 50.4872283 227.58994457 55.51730075 227.59089661 60.5475769 C227.5909723 62.27105999 227.59103802 63.99454308 227.59109402 65.71802616 C227.59116854 67.01246196 227.59116854 67.01246196 227.59124458 68.33304799 C227.59030917 80.04055981 227.57144717 91.74770985 227.50289917 103.45503235 C227.45680672 111.35753524 227.44259063 119.2594003 227.46474832 127.1620155 C227.47513421 131.34224372 227.46898864 135.52100752 227.42360115 139.70103264 C227.38107709 143.63251926 227.38034692 147.56180151 227.41145325 151.49337387 C227.41539719 152.93413992 227.40398933 154.37504405 227.37592888 155.81554222 C226.99757173 163.66974145 226.99757173 163.66974145 230.48373222 170.29319954 C232.76408219 171.82166683 235.01468149 172.99205205 237.49923706 174.14717102 C251.99812278 186.22957578 258.87315616 202.88636202 260.71798706 221.33467102 C261.46388921 237.74451837 255.38560605 254.01864227 245.05178261 266.52415276 C243.41109482 268.23931419 241.71931582 269.50052063 239.77174377 270.85287476 C234.05543877 275.06622695 229.45445501 279.39660335 227.6541481 286.46532822 C226.43452139 295.70241503 226.68370867 304.99656976 226.90812516 314.29013324 C226.98949145 318.37276974 226.98122933 322.45523783 226.98207092 326.5385437 C226.99625678 334.25751103 227.08305159 341.97371382 227.1997363 349.69174582 C227.40578548 363.52285687 227.47329427 377.35524461 227.53456897 391.18764073 C227.55874755 396.03400019 227.61032314 400.87907076 227.68590224 405.7248944 C227.7300913 408.73961686 227.75845461 411.75436214 227.78366852 414.76929665 C227.79903555 416.16091028 227.82142405 417.55246789 227.85156059 418.94384003 C228.04395621 427.98313755 227.69591849 434.35811507 221.53439331 441.38935852 C220.88341675 441.92818665 220.23244019 442.46701477 219.56173706 443.02217102 C218.91333862 443.5764679 218.26494019 444.13076477 217.59689331 444.70185852 C213.2692318 447.68367372 209.60517919 448.3922522 204.39370728 448.31124878 C202.55230667 448.29114243 202.55230667 448.29114243 200.67370605 448.27062988 C199.32095246 448.245884 197.9681998 448.22108674 196.615448 448.19624329 C195.18419768 448.17770011 193.75293224 448.16029361 192.32165527 448.14393616 C189.24143601 448.10802252 186.16132481 448.06742202 183.08119965 448.02421761 C178.19509421 447.95912709 173.3090933 447.92549562 168.42263794 447.90008545 C167.59608381 447.89571537 166.76952968 447.89134529 165.91792846 447.88684279 C163.37211613 447.87369888 160.82630191 447.86098733 158.28048706 447.8483429 C147.76577577 447.79568951 137.25295828 447.72092611 126.73947144 447.5473175 C119.06338458 447.42078421 111.38943091 447.35568374 103.71226716 447.35997432 C99.65690107 447.35993922 95.606945 447.33033622 91.5528183 447.22569466 C71.57368383 446.21544767 71.57368383 446.21544767 54.48813248 455.09607601 C51.83669578 457.97990571 49.46481399 461.00000511 47.14260101 464.15208244 C38.66947133 474.43869255 23.75218948 479.21809493 11.01486206 480.89326477 C-7.98755028 482.26566122 -25.25038129 477.35819091 -39.81326294 464.77217102 C-44.65401122 460.2203061 -49.50313166 455.14243358 -52.50076294 449.14717102 C-53.37249146 449.14352539 -54.24421997 449.13987976 -55.1423645 449.13612366 C-63.38113874 449.09816499 -71.61952029 449.04122316 -79.85801697 448.96326828 C-84.09295134 448.92385741 -88.32767977 448.89163783 -92.56277466 448.87617493 C-96.65439707 448.86096589 -100.74545307 448.82644609 -104.83682251 448.778862 C-106.39316875 448.76409174 -107.94959587 448.75613251 -109.50601196 448.75528717 C-118.93119935 448.745025 -126.33631399 448.67281183 -133.74295044 442.18232727 C-134.28177856 441.53135071 -134.82060669 440.88037415 -135.37576294 440.20967102 C-135.93005981 439.56127258 -136.48435669 438.91287415 -137.05545044 438.24482727 C-140.37999286 433.41974814 -140.76860681 429.07589591 -140.62576294 423.33467102 C-140.6167395 422.64179993 -140.60771606 421.94892883 -140.59841919 421.23506165 C-140.57502451 419.53894707 -140.53915935 417.84301231 -140.50076294 416.14717102 C-141.39795044 416.16811829 -142.29513794 416.18906555 -143.21951294 416.21064758 C-146.58176153 416.27924718 -149.94325529 416.32917396 -153.30593872 416.36689758 C-154.75495211 416.38688397 -156.20388619 416.41408299 -157.65261841 416.44892883 C-167.06052821 416.66937606 -174.27595084 416.72570845 -181.74295044 410.18232727 C-182.28177856 409.53135071 -182.82060669 408.88037415 -183.37576294 408.20967102 C-183.93005981 407.56127258 -184.48435669 406.91287415 -185.05545044 406.24482727 C-188.00905273 401.9581126 -188.75115279 398.24916947 -188.75803185 393.08819866 C-188.76448074 391.86398856 -188.77092963 390.63977846 -188.77757394 389.37847108 C-188.77463178 388.02310628 -188.77149635 386.66774189 -188.76818848 385.31237793 C-188.7719252 383.87008165 -188.77652681 382.42778739 -188.78191912 380.98549634 C-188.79416186 377.02166395 -188.79388716 373.05791588 -188.79153037 369.09406888 C-188.79112253 364.81924027 -188.80215826 360.5444388 -188.81164551 356.2696228 C-188.82826348 347.89420081 -188.83375541 339.51880697 -188.83487026 331.14336988 C-188.83582036 324.3357727 -188.83992875 317.52818482 -188.84627151 310.72059059 C-188.86388612 291.42251698 -188.87311005 272.12446562 -188.87161057 252.82638391 C-188.87153065 251.78586426 -188.87145074 250.74534461 -188.87136841 249.67329407 C-188.87128665 248.63150489 -188.87120489 247.58971571 -188.87112065 246.51635716 C-188.87030769 229.63147412 -188.8894472 212.74668028 -188.91764514 195.86182304 C-188.94636587 178.52722953 -188.96018588 161.19267953 -188.95845759 143.85806161 C-188.95779341 134.12492216 -188.96329812 124.3918762 -188.98481369 114.65875816 C-189.00301481 106.3718603 -189.00738163 98.08509832 -188.99379484 89.79818913 C-188.98725977 85.57033684 -188.98716733 81.34274532 -189.00450134 77.11491776 C-189.02021348 73.24283727 -189.01738777 69.37122474 -188.99993308 65.4991558 C-188.99685905 64.10011222 -189.00051083 62.70103388 -189.01165323 61.3020313 C-189.07837693 52.32848021 -188.64937019 45.88136696 -182.53591919 38.90498352 C-181.88494263 38.3661554 -181.23396606 37.82732727 -180.56326294 37.27217102 C-179.59066528 36.44072571 -179.59066528 36.44072571 -178.59841919 35.59248352 C-174.51883546 32.78159715 -171.05058201 31.89216159 -166.12809753 32.0705719 C-165.06232483 32.10276321 -163.99655212 32.13495453 -162.89848328 32.16812134 C-161.73864426 32.2130925 -160.57880524 32.25806366 -159.38381958 32.30439758 C-156.83284085 32.38348855 -154.2818178 32.46115919 -151.73075867 32.53761292 C-151.0599027 32.55898426 -150.38904673 32.5803556 -149.69786179 32.60237455 C-141.03044833 32.87502275 -132.36018359 32.98936142 -123.68958867 33.11318445 C-115.27481761 33.23442997 -106.86813135 33.40303476 -98.45852661 33.72773743 C-89.60907898 34.0616958 -80.76702934 34.25418822 -71.91091919 34.22529602 C-71.19865944 34.22305212 -70.4863997 34.22080822 -69.75255632 34.21849632 C-52.5833475 34.09222997 -38.20331317 32.76552636 -25.29359436 20.30506897 C-20.50280927 15.22853419 -16.22951108 9.8239042 -12.41749573 3.97889709 C-9.10890559 -0.90911912 -5.45250426 -0.00119552 0 0 Z " fill="#010100" transform="translate(236.50076293945313,15.852828979492188)"/>
<path d="M0 0 C26.25115568 -0.07004173 52.50229738 -0.12296447 78.75352764 -0.15543652 C90.94208078 -0.17091374 103.1305759 -0.19201965 115.3190918 -0.22631836 C125.94102845 -0.25619447 136.56292308 -0.27556878 147.18490058 -0.28226548 C152.81057771 -0.28618076 158.43613464 -0.29540007 164.0617733 -0.31719017 C169.35501706 -0.337527 174.6480909 -0.34383945 179.94137001 -0.33932304 C181.88563586 -0.3401495 183.8299073 -0.34613176 185.7741394 -0.35761642 C188.42631139 -0.37251663 191.07783973 -0.36896265 193.73002625 -0.36076355 C194.50143359 -0.36950207 195.27284094 -0.3782406 196.06762427 -0.38724393 C200.54783326 -0.34974267 203.44371094 0.21416245 207 3 C208.3239582 5.6479164 208.12288893 7.62706957 208.12025452 10.59341431 C208.12231651 12.37713188 208.12231651 12.37713188 208.12442017 14.19688416 C208.12082489 15.50814774 208.11722961 16.81941132 208.11352539 18.17041016 C208.11324343 19.55985004 208.11340142 20.94929007 208.1139679 22.33872986 C208.11425554 26.11742951 208.10836413 29.89609761 208.10139394 33.67478991 C208.09515492 37.62127556 208.09455617 41.56776189 208.09336853 45.51425171 C208.09025684 52.9905028 208.08204562 60.46673932 208.07201904 67.94298398 C208.06085289 76.45314456 208.05534619 84.96330581 208.05032361 93.47347188 C208.03986288 110.98232302 208.02226655 128.49115997 208 146 C207.38992096 145.93016907 206.77984192 145.86033813 206.15127563 145.78839111 C205.34676971 145.6974115 204.54226379 145.60643188 203.71337891 145.51269531 C202.91767487 145.42223938 202.12197083 145.33178345 201.30215454 145.23858643 C184.94248543 143.54313336 168.44490593 146.09506694 155 156 C144.35037014 164.91155308 134.67088781 175.04669618 124.82833576 184.83063126 C122.28316141 187.36062951 119.7332848 189.88538256 117.17041016 192.39746094 C114.64880418 194.8691703 112.14024431 197.35347385 109.63994598 199.84672928 C108.25468103 201.22224434 106.85732054 202.5855452 105.45953369 203.94833374 C94.21220204 215.23286991 84.2106703 230.71213821 83.76953125 247.1484375 C83.77344492 248.55735904 83.78780858 249.9662894 83.8125 251.375 C83.81314453 252.0659375 83.81378906 252.756875 83.81445312 253.46875 C83.82025391 254.16742188 83.82605469 254.86609375 83.83203125 255.5859375 C83.83565674 256.30257568 83.83928223 257.01921387 83.84301758 257.75756836 C83.93269869 260.039709 83.93269869 260.039709 84.6159668 262.33813477 C85.28168256 265.1792993 85.48843956 267.10768194 85 270 C82.38348476 274.05314471 79.2745909 277.31098856 75.7980957 280.63598633 C74.18913751 282.18592256 72.6475236 283.78603276 71.10351562 285.40039062 C63.88146147 292.67975124 63.88146147 292.67975124 59.29199219 293.4609375 C56.75300735 293.19992947 54.45892762 292.67175411 52 292 C33.13143955 290.1669794 17.42574809 295.81238991 2.79013062 307.62680054 C-2.19941038 311.87075096 -6.8174491 316.48821554 -11.44921875 321.11328125 C-12.51661245 322.17422499 -13.58414568 323.23502836 -14.65180969 324.29570007 C-16.87305082 326.50506252 -19.09021969 328.71841979 -21.30493164 330.93432617 C-24.11862642 333.7482244 -26.94585732 336.54808308 -29.77678204 339.34463215 C-31.98097735 341.52641002 -34.1758402 343.7174016 -36.36832619 345.91094017 C-37.40592836 346.94621137 -38.44670672 347.97831096 -39.490942 349.00689125 C-54.25794837 363.57294054 -62.96185392 379.20241493 -63.1875 400.1875 C-63.16446006 404.07203455 -62.9304623 407.86437181 -62.48950195 411.7199707 C-62.39820511 412.52352493 -62.30690826 413.32707916 -62.21284485 414.15498352 C-62.14260605 414.76383896 -62.07236725 415.3726944 -62 416 C-69.88429527 416.06953763 -77.76846222 416.12283008 -85.65298843 416.15543652 C-89.31417937 416.17108671 -92.97516036 416.19231272 -96.63623047 416.22631836 C-100.16997082 416.25893557 -103.70350934 416.27685788 -107.23738861 416.28463173 C-109.24045982 416.29286531 -111.24344993 416.31628107 -113.24639893 416.33988953 C-114.46736267 416.34011612 -115.68832642 416.34034271 -116.94628906 416.34057617 C-118.02106506 416.34723801 -119.09584106 416.35389984 -120.20318604 416.36076355 C-123.38822045 415.9499231 -124.73277195 415.24309155 -127 413 C-127.97038666 410.08884002 -128.12439159 408.25425946 -128.12304783 405.226758 C-128.12503888 404.23846731 -128.12702993 403.25017661 -128.12908131 402.23193771 C-128.12616847 401.14342881 -128.12325563 400.05491992 -128.12025452 398.9334259 C-128.12110894 397.77930086 -128.12196337 396.62517582 -128.12284368 395.4360773 C-128.12420874 392.22759658 -128.12107306 389.019156 -128.11606562 385.81068003 C-128.11175533 382.35262274 -128.11320796 378.8945674 -128.1139679 375.43650818 C-128.11449276 369.44352078 -128.11134984 363.45054425 -128.10573006 357.45755959 C-128.09761003 348.79266361 -128.09499932 340.12777291 -128.09374207 331.46287354 C-128.09155234 317.40534045 -128.0848944 303.34781315 -128.07543945 289.2902832 C-128.06626329 275.63305694 -128.05918345 261.97583224 -128.05493164 248.31860352 C-128.05466892 247.47705893 -128.05440619 246.63551435 -128.05413551 245.76846842 C-128.05283049 241.54677224 -128.05156678 237.32507604 -128.05032361 233.10337985 C-128.03995346 198.06891576 -128.0223373 163.03445842 -128 128 C-127.45077126 127.99761165 -126.90154251 127.99522329 -126.33567047 127.99276257 C-112.94703655 127.93352353 -99.55858349 127.85772989 -86.17014313 127.76428509 C-79.69547271 127.71959196 -73.22086506 127.68033322 -66.74609375 127.65356445 C-60.49549024 127.62752136 -54.24512843 127.5871111 -47.99467468 127.53681374 C-45.61214712 127.52015197 -43.22957776 127.50863341 -40.84700012 127.50238609 C-37.5051653 127.49273784 -34.16394788 127.46466847 -30.82226562 127.43237305 C-29.84114807 127.43380814 -28.86003052 127.43524323 -27.84918213 127.4367218 C-19.68475185 127.32542036 -12.72355297 125.65578484 -6.66193008 119.85536098 C-1.00756617 113.54288954 -0.41271757 106.09125551 -0.45410156 97.97241211 C-0.43859505 96.37573196 -0.43859505 96.37573196 -0.42277527 94.74679565 C-0.39346864 91.25682171 -0.39185061 87.76743079 -0.390625 84.27734375 C-0.37563523 81.84638877 -0.35890642 79.41544395 -0.34051514 76.98451233 C-0.2969194 70.60758991 -0.27685956 64.23080487 -0.26177979 57.85375977 C-0.24218083 51.33797102 -0.20021386 44.82233003 -0.16015625 38.30664062 C-0.0849382 25.53781058 -0.03383531 12.76900336 0 0 Z " fill="#D0E6F7" transform="translate(240,32)"/>
<path d="M0 0 C0.94084442 -0.00687332 1.88168884 -0.01374664 2.8510437 -0.02082825 C3.8709993 -0.00285187 4.8909549 0.01512451 5.94181824 0.03364563 C7.0251947 0.0329155 8.10857117 0.03218536 9.22477722 0.03143311 C12.80178583 0.03491347 16.37748857 0.07379862 19.95426941 0.11299133 C22.43576343 0.12231779 24.91726667 0.12943469 27.39877319 0.13442993 C33.92725583 0.15351254 40.4551815 0.20262557 46.98344421 0.25794983 C53.64613849 0.3118178 60.30899479 0.33193811 66.97184753 0.35713196 C80.04304858 0.41074196 93.11386373 0.4951088 106.18473816 0.60127258 C101.86182246 5.77063844 97.32422725 10.59536909 92.54289246 15.34077454 C91.80235123 16.0798555 91.06181 16.81893646 90.29882812 17.58041382 C88.70234661 19.17311039 87.10471158 20.7646514 85.50603294 22.35514259 C82.97831753 24.87003782 80.45378908 27.38809357 77.93005371 29.90698242 C72.58025105 35.24539362 67.22652038 40.57985477 61.87223816 45.91377258 C55.64963036 52.11279782 49.42863334 58.31342169 43.21181679 64.51825523 C40.72041702 67.00315622 38.22603405 69.48503636 35.73153687 71.96682739 C34.21408164 73.48065234 32.69676537 74.99461661 31.17961121 76.50874329 C30.48197662 77.20121155 29.78434204 77.89367981 29.06556702 78.60713196 C28.4333876 79.23924088 27.80120819 79.87134979 27.14987183 80.52261353 C26.32226868 81.34688575 26.32226868 81.34688575 25.47794628 82.18780994 C23.12286419 84.76188946 23.05716508 86.63569354 23.04607296 90.01720619 C23.04059852 90.95125491 23.03512407 91.88530362 23.02948374 92.84765685 C23.02850563 93.88071436 23.02752752 94.91377187 23.02651978 95.97813416 C23.0215818 97.07015149 23.01664382 98.16216882 23.01155621 99.28727758 C22.99611648 102.97087978 22.98780311 106.65446446 22.97941589 110.33808899 C22.96984245 112.968894 22.9598327 115.59969746 22.94941711 118.23049927 C22.9276356 123.90700676 22.90949725 129.58351661 22.89381218 135.2600441 C22.87112878 143.46741506 22.84298385 151.6747601 22.8134929 159.88210909 C22.7657982 173.19701413 22.72253912 186.51192976 22.68205261 199.82685852 C22.64270723 212.76339034 22.60128332 225.69991275 22.55705261 238.63642883 C22.55432834 239.43343121 22.55160407 240.23043358 22.54879724 241.05158754 C22.53511792 245.04979341 22.52139762 249.04799914 22.50765693 253.04620481 C22.39366266 286.23120798 22.28685984 319.41623071 22.18473816 352.60127258 C17.76819561 352.68833544 13.35187359 352.74168637 8.93473816 352.78877258 C7.05335144 352.82647766 7.05335144 352.82647766 5.13395691 352.86494446 C3.92868347 352.87461243 2.72341003 352.8842804 1.48161316 352.89424133 C0.37140808 352.90995178 -0.738797 352.92566223 -1.88264465 352.94184875 C-5.165271 352.56062467 -6.49724182 351.91963169 -8.81526184 349.60127258 C-9.86644587 346.44772051 -9.94479807 344.23196274 -9.95227623 340.92057228 C-9.95988804 339.13448097 -9.95988804 339.13448097 -9.96765363 337.312307 C-9.96815139 335.99764275 -9.96864915 334.68297851 -9.96916199 333.32847595 C-9.97317643 331.92289209 -9.97761462 330.51730938 -9.98244154 329.11172807 C-9.99441444 325.24022334 -10.00005712 321.36873108 -10.0046227 317.49721146 C-10.01057588 313.32534211 -10.02218624 309.1534877 -10.03291321 304.98162842 C-10.05744066 294.90342773 -10.07206328 284.8252221 -10.08497328 274.74700075 C-10.08868445 271.90175266 -10.09265772 269.05650506 -10.09672594 266.21125746 C-10.12195769 248.55127733 -10.14401569 230.89129644 -10.15645409 213.23130226 C-10.15938388 209.14043296 -10.16234553 205.04956369 -10.1653595 200.95869446 C-10.16610555 199.94190288 -10.1668516 198.9251113 -10.16762026 197.87750785 C-10.18028237 181.39461453 -10.2135171 164.91182886 -10.25516133 148.42898591 C-10.29754314 131.51597046 -10.32114462 114.60301019 -10.32637465 97.68994176 C-10.32979264 88.18989992 -10.34159368 78.69002644 -10.37447739 69.19003677 C-10.40242729 61.10208543 -10.41349947 53.01433697 -10.40228193 44.92634107 C-10.39708258 40.79804544 -10.40006418 36.67017501 -10.42474747 32.54194069 C-10.447147 28.76422851 -10.44657365 24.98724925 -10.4275436 21.20952503 C-10.42339553 19.19222329 -10.44395757 17.17491776 -10.46533048 15.15772498 C-10.38834385 6.44866921 -10.38834385 6.44866921 -7.5782156 2.29342937 C-4.7135813 0.53899886 -3.31632296 -0.01877873 0 0 Z " fill="#2387FE" transform="translate(73.81526184082031,63.39872741699219)"/>
<path d="M0 0 C0.07008969 16.47236861 0.12298793 32.94468882 0.15543652 49.41717052 C0.1709036 57.06568068 0.19199003 64.71409816 0.22631836 72.36254883 C0.25622564 79.02915726 0.27557616 85.69569857 0.28226548 92.36237222 C0.28617552 95.89215517 0.29536114 99.42174612 0.31719017 102.95146751 C0.34136448 106.89240485 0.34196913 110.83315456 0.34057617 114.77416992 C0.351362 115.94373734 0.36214783 117.11330475 0.3732605 118.3183136 C0.36913651 119.39378448 0.36501251 120.46925537 0.36076355 121.57731628 C0.36352893 122.50924899 0.36629431 123.4411817 0.36914349 124.40135479 C-0.0813492 127.57267085 -1.08750383 129.44581715 -3 132 C-6.02224465 133.00741488 -8.02322701 133.12337292 -11.18217468 133.12025452 C-12.79125702 133.12231651 -12.79125702 133.12231651 -14.43284607 133.12442017 C-15.60960403 133.12082489 -16.786362 133.11722961 -17.9987793 133.11352539 C-19.23792084 133.11367142 -20.47706238 133.11381744 -21.75375366 133.1139679 C-25.15225172 133.11339015 -28.55068921 133.10837098 -31.94917655 133.10139394 C-35.50060584 133.09514741 -39.05203591 133.09455557 -42.60346985 133.09336853 C-49.32886993 133.09025905 -56.05425377 133.08205082 -62.77964669 133.07201904 C-70.43615843 133.06084601 -78.09267093 133.05534445 -85.74918878 133.05032361 C-101.49946859 133.0398679 -117.2497322 133.02227586 -133 133 C-132.06816359 131.89720671 -131.13403211 130.79635252 -130.19897461 129.69628906 C-129.67903427 129.08303772 -129.15909393 128.46978638 -128.62339783 127.83795166 C-126.59451506 125.54092478 -124.42080899 123.43612174 -122.20507812 121.32177734 C-116.0506149 115.4325927 -111.03546573 109.57340829 -107 102 C-106.51917969 101.10667969 -106.03835938 100.21335937 -105.54296875 99.29296875 C-100.3406371 88.81334389 -97.41229405 74.28865248 -100.62036133 62.77319336 C-101.29866141 59.89322625 -101.49372773 57.93373693 -101 55 C-98.34594992 50.94748634 -95.19183209 47.6895989 -91.68823242 44.36401367 C-90.06138243 42.81143345 -88.49499891 41.2120811 -86.92773438 39.59960938 C-85.9042033 38.590533 -84.87760418 37.58455719 -83.84765625 36.58203125 C-82.91961182 35.67686768 -81.99156738 34.7717041 -81.03540039 33.83911133 C-76.77662287 31.25877102 -74.81970599 32.0094386 -70 33 C-52.51153733 34.32377693 -34.70856246 31.01874529 -20.83984375 19.48828125 C-17.77132984 16.77976059 -14.87446879 13.9117375 -12 11 C-10.94840403 9.94873101 -9.89631611 8.8979539 -8.84375 7.84765625 C-6.91008691 5.91674811 -4.99251204 3.97374265 -3.08203125 2.01953125 C-1 0 -1 0 0 0 Z " fill="#D0E6F7" transform="translate(448,315)"/>
<path d="M0 0 C1.66482226 2.4972334 2.4444482 4.02568644 3.3046875 6.7890625 C16.21112672 46.68666611 39.79254006 82.05090087 72 109 C71.49339844 110.09054687 71.49339844 110.09054687 70.9765625 111.203125 C65.11344872 124.42054913 63.87028863 137.37856854 65.51049805 151.7199707 C65.60179489 152.52352493 65.69309174 153.32707916 65.78715515 154.15498352 C65.85739395 154.76383896 65.92763275 155.3726944 66 156 C58.11570473 156.06953763 50.23153778 156.12283008 42.34701157 156.15543652 C38.68582063 156.17108671 35.02483964 156.19231272 31.36376953 156.22631836 C27.83002918 156.25893557 24.29649066 156.27685788 20.76261139 156.28463173 C18.75954018 156.29286531 16.75655007 156.31628107 14.75360107 156.33988953 C13.53263733 156.34011612 12.31167358 156.34034271 11.05371094 156.34057617 C9.97893494 156.34723801 8.90415894 156.35389984 7.79681396 156.36076355 C4.61177955 155.9499231 3.26722805 155.24309155 1 153 C-0.08687324 149.73938027 -0.12312123 147.37610786 -0.12025452 143.94465637 C-0.12162918 142.67840927 -0.12300385 141.41216217 -0.12442017 140.10754395 C-0.12088102 138.70165992 -0.11724621 137.29577613 -0.11352539 135.88989258 C-0.11324336 134.41163637 -0.11340156 132.93338003 -0.1139679 131.4551239 C-0.11425526 127.43888848 -0.10836834 123.42268282 -0.10139394 119.40645432 C-0.0951503 115.21039877 -0.0945558 111.01434256 -0.09336853 106.81828308 C-0.0902582 98.87103333 -0.08204882 90.92379732 -0.07201904 82.97655362 C-0.06084866 73.92949966 -0.05534512 64.88244505 -0.05032361 55.83538592 C-0.03986597 37.22358282 -0.02227229 18.61179252 0 0 Z " fill="#9AC8FE" transform="translate(112,292)"/>
<path d="M0 0 C0.06949845 12.16968752 0.12281059 24.33932786 0.15543652 36.50917339 C0.17109501 42.16007686 0.19233687 47.81084458 0.22631836 53.46166992 C0.2589049 58.91462858 0.27685163 64.36745663 0.28463173 69.82050514 C0.29017648 71.90133533 0.30100393 73.98215835 0.31719017 76.06293297 C0.33895483 78.97660161 0.3419673 81.88973 0.34057617 84.8034668 C0.351362 85.66445984 0.36214783 86.52545288 0.3732605 87.41253662 C0.34921878 92.06350864 0.11974467 95.27828806 -3 99 C-6.98950829 100.3298361 -10.81089056 100.13074673 -14.96948242 100.11352539 C-16.34539299 100.11374443 -16.34539299 100.11374443 -17.74909973 100.1139679 C-20.78458003 100.11327057 -23.81999916 100.10548656 -26.85546875 100.09765625 C-28.95868394 100.09579143 -31.06189957 100.09436783 -33.16511536 100.09336853 C-38.70369666 100.08954839 -44.2422518 100.07972237 -49.78082275 100.06866455 C-55.43135219 100.05843964 -61.08188585 100.05386859 -66.73242188 100.04882812 C-77.82162609 100.03809968 -88.91081087 100.02102926 -100 100 C-95.21828061 94.24824587 -90.09111338 88.94906016 -84.79760742 83.66821289 C-83.89125549 82.76010864 -82.98490356 81.85200439 -82.05108643 80.91638184 C-79.58476791 78.44553707 -77.11533656 75.97782623 -74.64516234 73.51083684 C-72.05631592 70.92453439 -69.46992391 68.33577924 -66.88313293 65.74742126 C-62.54668672 61.40916124 -58.208148 57.07300226 -53.8684082 52.73803711 C-48.84608721 47.72117783 -43.82740655 42.70069847 -38.81056136 37.67836386 C-34.49892146 33.36219485 -30.18534715 29.04796636 -25.87013131 24.73537248 C-23.29423558 22.161038 -20.71902574 19.58602717 -18.14555931 17.00926399 C-15.28502817 14.14532344 -12.42045153 11.28546375 -9.55541992 8.42602539 C-8.27052422 7.13809334 -8.27052422 7.13809334 -6.95967102 5.82414246 C-6.18445099 5.05174225 -5.40923096 4.27934204 -4.61051941 3.48353577 C-3.93342013 2.80681352 -3.25632086 2.13009127 -2.55870342 1.43286228 C-1 0 -1 0 0 0 Z " fill="#3C99E1" transform="translate(224,44)"/>
<path d="M0 0 C3.5 1.6875 3.5 1.6875 6 4 C7.175625 4.99 7.175625 4.99 8.375 6 C10.93843571 10.7324967 10.91978864 15.74503109 10 21 C6.67517268 26.88319261 1.94135839 31.34043273 -2.82006836 36.07885742 C-3.70994949 36.97224319 -4.59983063 37.86562897 -5.51667786 38.78608704 C-7.94593163 41.22441954 -10.38142211 43.65643008 -12.81839442 46.08704543 C-15.37351597 48.6370851 -17.92373342 51.19202181 -20.4747467 53.74617004 C-24.75748801 58.03254397 -29.04441549 62.31469718 -33.33374023 66.59448242 C-38.28739643 71.53724848 -43.23379733 76.48718746 -48.17650503 81.44090003 C-52.42772071 85.70120037 -56.68283238 89.95757997 -60.94120699 94.21072465 C-63.48140847 96.74781381 -66.02025289 99.28622134 -68.55558586 101.8281765 C-71.38152777 104.66098432 -74.21559417 107.48552621 -77.05053711 110.30932617 C-77.88654449 111.14938202 -78.72255188 111.98943787 -79.58389282 112.85494995 C-80.35908768 113.62450516 -81.13428253 114.39406036 -81.93296814 115.18693542 C-82.60160354 115.85481677 -83.27023893 116.52269812 -83.95913601 117.21081829 C-88.44057938 121.13960362 -91.852743 122.57229519 -97.72265625 122.34765625 C-102.93261356 121.55231114 -106.1373271 119.112394 -109.375 114.9375 C-111.850488 110.46257938 -112.96954179 106.0789758 -112 101 C-108.61401793 95.0817217 -103.86650919 90.59180834 -99.05639648 85.81347656 C-98.15354919 84.90873093 -97.2507019 84.00398529 -96.32049561 83.07182312 C-93.85615586 80.6026583 -91.3856482 78.13975261 -88.91381335 75.67809391 C-86.32409434 73.09718909 -83.73967959 70.51098258 -81.15455627 67.92547607 C-76.81615746 63.58801208 -72.47391293 59.2544289 -68.12915039 54.92333984 C-63.10658448 49.91652225 -58.0892875 44.90447409 -53.07495636 39.88941026 C-47.73148813 34.54526672 -42.38422086 29.20493698 -37.03582501 23.86572552 C-35.49607414 22.32810542 -33.95703469 20.78977628 -32.41814995 19.25128937 C-29.55316456 16.38749466 -26.68394221 13.52798231 -23.81420898 10.66894531 C-22.53538597 9.38944252 -22.53538597 9.38944252 -21.23072815 8.08409119 C-20.44986847 7.30749649 -19.66900879 6.53090179 -18.86448669 5.73077393 C-18.18663337 5.05459644 -17.50878004 4.37841896 -16.8103857 3.68175125 C-11.68605122 -1.07848074 -6.67834322 -0.7164845 0 0 Z " fill="#FD9710" transform="translate(381,281)"/>
<path d="M0 0 C2.21103959 1.42850137 4.27571775 2.94261708 6.33984375 4.57421875 C7.37109375 5.31671875 8.40234375 6.05921875 9.46484375 6.82421875 C18.90265039 15.85168597 24.24444873 27.36757163 24.68310547 40.3984375 C24.91325552 56.17610891 18.87841099 68.0734554 8.015625 79.35009766 C5.90885247 81.51473482 3.78316161 83.65983732 1.65234375 85.80078125 C0.50605061 86.95928894 -0.6401056 88.11793213 -1.78613281 89.27670288 C-4.18124707 91.69417549 -6.58263246 94.10521999 -8.98779297 96.51269531 C-12.03948294 99.56965748 -15.06748076 102.64897334 -18.09016418 105.7345829 C-20.44789666 108.1335641 -22.82165716 110.51620455 -25.19985962 112.89487839 C-26.32173258 114.02206865 -27.43798572 115.15488625 -28.54794312 116.2938118 C-38.03289994 126.00544018 -49.36212876 134.80564545 -63.53125 135.76953125 C-65.90755208 135.70442708 -68.28385417 135.63932292 -70.66015625 135.57421875 C-66.7061769 130.83136578 -62.58046081 126.36440201 -58.18334961 122.03149414 C-57.5662764 121.41909378 -56.94920319 120.80669342 -56.31343079 120.17573547 C-54.98537658 118.85810977 -53.65622206 117.54159233 -52.32606316 116.22609138 C-50.21654897 114.13877598 -48.11117516 112.0473665 -46.00697327 109.95469666 C-40.02802723 104.00918107 -34.04494752 98.06787618 -28.05151367 92.13696289 C-24.37469509 88.49791634 -20.70533394 84.85148951 -17.04055977 81.20031548 C-15.64915972 79.81693364 -14.25499511 78.43632631 -12.85795403 77.05864143 C-10.90079571 75.12814094 -8.95328502 73.18836052 -7.00756836 71.24633789 C-6.43652374 70.68765015 -5.86547913 70.1289624 -5.27713013 69.55334473 C3.10440217 61.12997829 6.76505959 52.96426649 6.78027344 41.10253906 C6.62767262 34.64058825 5.04986298 29.91879718 1.33984375 24.57421875 C0.74171875 23.64609375 0.14359375 22.71796875 -0.47265625 21.76171875 C-7.05080767 15.18356733 -14.60710558 12.16018487 -23.84765625 12.13671875 C-42.2274847 12.20123682 -53.25986658 27.0225773 -65.3542347 39.1931324 C-67.4237804 41.27559867 -69.49657194 43.35478669 -71.57017517 45.43321228 C-75.95718179 49.83154967 -80.34018955 54.23385844 -84.72265625 58.63671875 C-89.83502346 63.77269005 -94.94901807 68.90701955 -100.0671978 74.03719902 C-102.11284882 76.08934791 -104.15547777 78.14447315 -106.19801331 80.19972229 C-107.43923566 81.44457334 -108.68059647 82.68928635 -109.92211914 83.93383789 C-110.49190994 84.50879501 -111.06170074 85.08375214 -111.64875793 85.6761322 C-112.9670508 86.99460482 -114.31081575 88.28753839 -115.66015625 89.57421875 C-115.99015625 89.57421875 -116.32015625 89.57421875 -116.66015625 89.57421875 C-117.52015155 77.22373066 -113.68228039 67.61388791 -106.66015625 57.57421875 C-102.82574485 53.17322231 -98.72069549 49.06999697 -94.578125 44.9609375 C-93.39698488 43.77709594 -92.21643849 42.59266174 -91.03645325 41.40766907 C-88.5742776 38.93963141 -86.10510463 36.47888304 -83.63061523 34.02319336 C-80.47671875 30.89210913 -77.34116069 27.74336909 -74.21064281 24.58893108 C-71.78050057 22.14426294 -69.34082265 19.70928958 -66.89824867 17.27704811 C-65.73882705 16.12027372 -64.58231065 14.96057913 -63.42891502 13.79779625 C-57.36007784 7.69041687 -51.62705366 2.15334542 -43.66015625 -1.42578125 C-42.76167969 -1.87566406 -41.86320312 -2.32554687 -40.9375 -2.7890625 C-27.91078139 -8.07369125 -12.32449326 -6.60563882 0 0 Z " fill="#FCCA00" transform="translate(455.66015625,197.42578125)"/>
<path d="M0 0 C-3.94664785 4.73568265 -8.06495542 9.19153955 -12.4609375 13.51098633 C-13.38413788 14.42476799 -13.38413788 14.42476799 -14.32598877 15.35700989 C-15.65079266 16.66805978 -16.97667032 17.97802537 -18.30352783 19.28699684 C-20.40949126 21.36608231 -22.51084827 23.44971948 -24.61083984 25.53483582 C-30.57779551 31.45928066 -36.54732465 37.38104409 -42.53320312 43.28637695 C-46.20579767 46.91021348 -49.86835192 50.54394312 -53.52471924 54.18414879 C-54.91160993 55.5612016 -56.30213309 56.93460679 -57.69647217 58.3041172 C-72.50770443 72.64251929 -72.50770443 72.64251929 -77.375 92.0625 C-77.42827173 99.47980449 -76.29607889 104.78759438 -72 111 C-71.443125 111.9075 -70.88625 112.815 -70.3125 113.75 C-62.77822355 121.08064735 -54.83454486 123.35590697 -44.61499023 123.38061523 C-27.73488635 123.02563894 -16.40913648 107.5542446 -5.30592155 96.38108635 C-3.23637585 94.29862008 -1.16358431 92.21943206 0.91001892 90.14100647 C5.29702554 85.74266908 9.6800333 81.34036031 14.0625 76.9375 C19.17486721 71.8015287 24.28886182 66.6671992 29.40704155 61.53701973 C31.45269257 59.48487084 33.49532152 57.4297456 35.53785706 55.37449646 C36.77907941 54.12964541 38.02044022 52.8849324 39.26196289 51.64038086 C39.83175369 51.06542374 40.40154449 50.49046661 40.98860168 49.89808655 C42.30689455 48.57961393 43.6506595 47.28668036 45 46 C45.33 46 45.66 46 46 46 C47.14234879 58.66737882 42.51938435 69.0374923 35 79 C31.27031198 83.20638052 27.34218353 87.20214159 23.3828125 91.19140625 C22.24138809 92.34759508 21.10002164 93.50384112 19.95870972 94.66014099 C17.57214075 97.07356271 15.17904783 99.48030749 12.78222656 101.88354492 C9.74683766 104.92976401 6.7376942 108.00055386 3.73425484 111.07823277 C1.38673304 113.4746809 -0.97910699 115.85242389 -3.34994888 118.22578239 C-4.46550531 119.34846196 -5.57459872 120.47760999 -6.67632675 121.61386299 C-17.62401694 132.8779707 -29.86069028 141.00420769 -46.0625 141.25 C-57.38036079 141.12109498 -66.78651876 138.6369679 -76 132 C-76.63550781 131.54753906 -77.27101562 131.09507812 -77.92578125 130.62890625 C-87.52287496 123.11721206 -93.09871343 111.90064556 -95 100 C-96.20851803 84.54823381 -93.07574093 72.96911744 -83 61 C-79.22341596 56.90665955 -75.32248206 52.94369562 -71.3984375 48.9921875 C-70.84738972 48.43548496 -70.29634193 47.87878242 -69.72859573 47.30521011 C-66.81417777 44.36101944 -63.89421825 41.4224662 -60.96923828 38.48876953 C-57.98041527 35.48898507 -55.01061648 32.47108744 -52.04489708 29.44848442 C-49.73168657 27.09769534 -47.40484441 24.76075087 -45.07429886 22.42715836 C-43.97467467 21.32155693 -42.8799588 20.2110474 -41.79072189 19.09521103 C-30.0127223 7.05024478 -17.46031243 -0.77601389 0 0 Z " fill="#FCCB00" transform="translate(287,339)"/>
<path d="M0 0 C1.54300781 -0.02513672 1.54300781 -0.02513672 3.1171875 -0.05078125 C7.88925744 0.52558564 10.45830996 2.67611405 13.875 5.9375 C16.29714203 9.04399327 16.94625193 11.92275385 17.47265625 15.7734375 C16.31550943 24.22450975 10.22927697 29.74676411 4.421875 35.40625 C3.58408508 36.23838013 2.74629517 37.07051025 1.88311768 37.92785645 C-0.77695991 40.56566592 -3.45064856 43.18917111 -6.125 45.8125 C-7.93841908 47.60584194 -9.75092924 49.40010347 -11.5625 51.1953125 C-15.98953508 55.57840705 -20.42780917 59.94986235 -24.875 64.3125 C-26.875 61.3125 -26.875 61.3125 -28.1015625 59.04296875 C-32.90350673 50.31094167 -38.62087707 45.7827961 -47.875 42.3125 C-43.5299583 37.11925495 -38.96947797 32.25992603 -34.17578125 27.48046875 C-33.45891647 26.76264725 -32.7420517 26.04482574 -32.00346375 25.30525208 C-30.49954951 23.80066163 -28.99438893 22.29731602 -27.48803711 20.79516602 C-25.18031367 18.49283045 -22.8780162 16.18516494 -20.57617188 13.87695312 C-19.1096958 12.41113732 -17.64290985 10.94563145 -16.17578125 9.48046875 C-15.14448845 8.4461396 -15.14448845 8.4461396 -14.09236145 7.39091492 C-13.45126938 6.75297501 -12.81017731 6.1150351 -12.1496582 5.45776367 C-11.30743462 4.61673347 -11.30743462 4.61673347 -10.44819641 3.75871277 C-6.92126526 0.5164648 -4.6719324 0.01747606 0 0 Z " fill="#CFE5F6" transform="translate(431.875,223.6875)"/>
<path d="M0 0 C5 10 5 10 5.9140625 12.203125 C7.31196902 14.51620773 8.52095522 14.97146015 11 16 C14.33333333 17.66666667 17.66666667 19.33333333 21 21 C19.38518307 25.00515134 16.57656485 27.74642034 13.58203125 30.75390625 C13.04656174 31.29603256 12.51109222 31.83815887 11.95939636 32.39671326 C10.826406 33.5398083 9.69070506 34.68022225 8.55249023 35.81811523 C6.82525235 37.54971545 5.11463456 39.29664785 3.40429688 41.04492188 C2.29785952 42.1572302 1.19046744 43.2685898 0.08203125 44.37890625 C-0.42241013 44.89771866 -0.9268515 45.41653107 -1.44657898 45.95106506 C-5.51083333 49.96464737 -9.63598583 52.54555327 -15.37109375 53.3203125 C-21.81750714 52.71101067 -25.81116734 49.8940953 -30 45 C-31.69342247 39.91973258 -31.90176839 35.27741654 -31 30 C-29.3371582 27.55737305 -29.3371582 27.55737305 -27.11328125 25.26171875 C-26.29633789 24.40618408 -25.47939453 23.55064941 -24.63769531 22.66918945 C-23.33203613 21.34794067 -23.33203613 21.34794067 -22 20 C-20.72141113 18.67585083 -20.72141113 18.67585083 -19.41699219 17.32495117 C-16.82045444 14.65260388 -14.19621945 12.0106718 -11.5625 9.375 C-10.21768555 8.01181641 -10.21768555 8.01181641 -8.84570312 6.62109375 C-7.99041016 5.76386719 -7.13511719 4.90664063 -6.25390625 4.0234375 C-5.48377197 3.24919434 -4.7136377 2.47495117 -3.92016602 1.67724609 C-2 0 -2 0 0 0 Z " fill="#CFE5F6" transform="translate(255,396)"/>
<path d="M0 0 C0.33 0.99 0.66 1.98 1 3 C2.97657921 3.73319785 4.98406285 4.38320033 7 5 C9.89077382 6.25630706 12.72347996 7.6313196 15.5625 9 C22.19789633 12.18873211 22.19789633 12.18873211 29 15 C25.94134035 19.52681628 23.25107046 21.4505038 18 23 C13.64208913 23.4075744 10.36758854 22.90403829 6.68359375 20.46875 C1.31068465 15.93205394 1.31068465 15.93205394 0 12 C-0.068991 9.93854893 -0.08467727 7.87498599 -0.0625 5.8125 C-0.05347656 4.72582031 -0.04445312 3.63914062 -0.03515625 2.51953125 C-0.02355469 1.68808594 -0.01195312 0.85664063 0 0 Z " fill="#98C5F9" transform="translate(224,426)"/>
</svg>
