<?xml version="1.0" encoding="UTF-8"?>
<svg version="1.1" xmlns="http://www.w3.org/2000/svg" width="512" height="512">
<path d="M0 0 C0.7273205 -0.00235223 1.454641 -0.00470446 2.20400152 -0.00712797 C4.65419137 -0.01381324 7.10432812 -0.01335989 9.55452633 -0.01294994 C11.32380391 -0.01624887 13.09308074 -0.01997449 14.8623566 -0.02409142 C19.73476033 -0.03411637 24.60715173 -0.03782902 29.47956431 -0.04048073 C34.73061086 -0.04438233 39.98164763 -0.05396078 45.23268795 -0.0626936 C57.91935482 -0.08246232 70.60602249 -0.09252483 83.29270092 -0.10142139 C89.26597245 -0.1058037 95.23924309 -0.11117067 101.21251392 -0.11641026 C121.06726459 -0.1334231 140.92201471 -0.14791743 160.77677155 -0.155159 C165.92997965 -0.15706892 171.08318775 -0.15898924 176.23639584 -0.16094494 C177.51721277 -0.16142868 178.7980297 -0.16191242 180.11765926 -0.16241082 C200.86755127 -0.17071169 221.61738564 -0.19604934 242.36725248 -0.22852562 C263.66703713 -0.261591 284.96679248 -0.2796073 306.26660293 -0.28280324 C318.22712142 -0.28496883 330.18755587 -0.29372482 342.14804935 -0.31926441 C352.3339321 -0.34096427 362.51971038 -0.34902532 372.70561362 -0.33929763 C377.90189457 -0.33475087 383.09795996 -0.3366612 388.29421139 -0.35605907 C393.05465499 -0.37367643 397.81472553 -0.37270448 402.57517301 -0.35716178 C404.29395026 -0.35478356 406.01275325 -0.35912041 407.73149116 -0.37099043 C422.04560213 -0.46369451 433.96492674 1.8475749 444.76056576 11.94672108 C456.26584849 24.24547158 457.12307373 38.18058266 457.08376217 54.15651417 C457.08678498 55.89639677 457.09067511 57.63627805 457.09535474 59.37615699 C457.10562685 64.14414262 457.1034549 68.91205299 457.09917414 73.68004477 C457.09670549 78.82741169 457.10572284 83.97476056 457.11321163 89.12212086 C457.12595692 99.20149794 457.12775252 109.28084837 457.12541137 119.36023215 C457.1236278 127.55404474 457.12537869 135.74784925 457.12963581 143.94166088 C457.130231 145.10817924 457.13082619 146.2746976 457.13143941 147.476565 C457.13265118 149.84641642 457.13386531 152.21626784 457.13508179 154.58611926 C457.14595675 176.80783382 457.14379509 199.0295332 457.13769694 221.25124862 C457.13252827 241.57334798 457.14378202 261.8953994 457.16279516 282.21748928 C457.18217467 303.09142575 457.19042933 323.96533955 457.18667191 344.83928508 C457.18475999 356.55549553 457.18724661 368.27166519 457.20138645 379.98786831 C457.21330266 389.96242561 457.21470243 399.936917 457.20259628 409.91147522 C457.19670923 414.99851161 457.19560345 420.08542744 457.20759869 425.17245579 C457.21846273 429.83401709 457.21534785 434.49535726 457.201337 439.15690824 C457.19869152 440.83853732 457.20105192 442.52018376 457.20907287 444.20179579 C457.27775782 459.68274641 455.50228178 472.53795582 444.75275326 484.42328358 C436.49032692 492.33033674 426.98075498 496.25283278 415.64613152 496.26844215 C414.55515077 496.2719705 414.55515077 496.2719705 413.44213 496.27557012 C410.99194015 496.28225539 408.54180339 496.28180204 406.09160519 496.2813921 C404.32232761 496.28469102 402.55305078 496.28841665 400.78377491 496.29253358 C395.91137119 496.30255853 391.03897978 496.30627117 386.16656721 496.30892289 C380.91552066 496.31282448 375.66448388 496.32240294 370.41344357 496.33113575 C357.7267767 496.35090447 345.04010902 496.36096699 332.3534306 496.36986354 C326.38015907 496.37424586 320.40688842 496.37961282 314.43361759 496.38485241 C294.57886692 496.40186526 274.72411681 496.41635959 254.86935997 496.42360115 C249.71615187 496.42551107 244.56294377 496.4274314 239.40973568 496.42938709 C237.48851028 496.4301127 237.48851028 496.4301127 235.52847225 496.43085297 C214.77858024 496.43915384 194.02874588 496.46449149 173.27887904 496.49696777 C151.97909439 496.53003315 130.67933904 496.54804945 109.37952858 496.55124539 C97.41901009 496.55341099 85.45857565 496.56216698 73.49808216 496.58770657 C63.31219942 496.60940642 53.12642113 496.61746747 42.94051789 496.60773978 C37.74423694 496.60319302 32.54817156 496.60510335 27.35192013 496.62450123 C22.59147653 496.64211858 17.83140599 496.64114664 13.0709585 496.62560394 C11.35218125 496.62322571 9.63337827 496.62756256 7.91464036 496.63943259 C-6.39947062 496.73213667 -18.31879523 494.42086725 -29.11443424 484.32172108 C-40.62705556 472.01512587 -41.47686365 458.06607729 -41.44435978 442.08069324 C-41.44809923 440.3373982 -41.45270193 438.59410483 -41.45809042 436.8508141 C-41.47029926 432.07336118 -41.47006245 427.2959784 -41.46770167 422.51851344 C-41.46729297 417.36089965 -41.4783377 412.20330819 -41.48781681 407.04570484 C-41.50441599 396.94594233 -41.50992586 386.84620317 -41.51104157 376.74642816 C-41.51199252 368.53546133 -41.51610517 360.32450219 -41.52244282 352.11353779 C-41.54005199 328.82478632 -41.54928215 305.53605328 -41.54778187 282.24729511 C-41.54770196 280.99230002 -41.54762204 279.73730492 -41.54753971 278.44427967 C-41.54745795 277.18774917 -41.54737619 275.93121867 -41.54729195 274.63661149 C-41.54647906 254.27314263 -41.56561836 233.90974773 -41.59381644 213.54630026 C-41.62255351 192.62828774 -41.6363563 171.71031129 -41.63462889 150.79227853 C-41.63396529 139.05198718 -41.63944446 127.31177338 -41.66098499 115.57149982 C-41.67920753 105.57573163 -41.68353523 95.58007615 -41.66996615 85.58429852 C-41.66344208 80.48697582 -41.66329916 75.38986931 -41.68067265 70.29256725 C-41.69643294 65.62041293 -41.69350954 60.94864567 -41.67610438 56.27650061 C-41.67304101 54.59216012 -41.67664171 52.90779052 -41.68782453 51.22348437 C-41.78449925 35.62141259 -39.20492756 22.90817147 -28.33318424 11.13812733 C-20.39265993 3.57184904 -10.81653937 0.0148959 0 0 Z M44.82306576 90.13422108 C43.06303708 93.12669184 42.56259064 95.31466022 42.51666927 98.77582264 C42.50068188 99.69067432 42.48469448 100.60552601 42.46822262 101.54810047 C42.46285992 102.53042652 42.45749722 103.51275257 42.45197201 104.52484608 C42.44294353 105.54342701 42.43391506 106.56200794 42.424613 107.61145496 C42.41011168 109.76663749 42.40122406 111.92186403 42.39752865 114.07709217 C42.38565837 117.35861883 42.33649217 120.63824886 42.28595638 123.91937733 C42.27648866 126.01702444 42.2692553 128.11468306 42.26447201 130.21234608 C42.24493969 131.1865752 42.22540737 132.16080433 42.20528316 133.16455555 C42.25342086 140.51036036 44.16562143 145.36552182 49.3013525 150.65747547 C55.39568435 156.07110137 60.83087876 156.45107493 68.61994076 156.47015858 C70.04225002 156.48014378 70.04225002 156.48014378 71.49329281 156.4903307 C73.49707766 156.50043876 75.50089606 156.50514829 77.50470638 156.50482655 C80.54890076 156.50918647 83.5916289 156.54548919 86.63556576 156.58343983 C88.58868584 156.58931125 90.54181276 156.59327846 92.49494076 156.59515858 C93.39525021 156.60952961 94.29555965 156.62390064 95.22315121 156.63870716 C102.15824161 156.58932206 108.45642535 155.20380498 113.71045589 150.41336536 C119.61163791 144.11613009 120.13863903 137.49774841 120.15900326 129.20453358 C120.16566006 128.25537067 120.17231686 127.30620777 120.17917538 126.32828236 C120.18927104 124.32627765 120.19399336 122.3242395 120.19367123 120.32220936 C120.19804182 117.27590398 120.2343873 114.23105154 120.27228451 111.18500233 C120.278154 109.23318433 120.28212251 107.2813595 120.28400326 105.32953358 C120.29837429 104.4271999 120.31274532 103.52486622 120.32755184 102.59518909 C120.2781515 95.68326502 118.6596554 90.35648739 114.04181576 85.11078358 C113.47462826 84.66476795 112.90744076 84.21875233 112.32306576 83.75922108 C111.47228451 83.06699451 111.47228451 83.06699451 110.60431576 82.36078358 C107.10646946 79.95217889 104.45485877 78.88452234 100.1814642 78.82782459 C99.26661251 78.8118372 98.35176083 78.7958498 97.40918636 78.77937794 C95.93569729 78.77133389 95.93569729 78.77133389 94.43244076 78.76312733 C93.41385983 78.75409885 92.39527889 78.74507038 91.34583187 78.73576832 C89.19064935 78.721267 87.03542281 78.71237938 84.88019466 78.70868397 C81.59866801 78.69681369 78.31903797 78.64764749 75.03790951 78.5971117 C72.9402624 78.58764398 70.84260378 78.58041062 68.74494076 78.57562733 C67.28359707 78.54632885 67.28359707 78.54632885 65.79273129 78.51643848 C56.19048408 78.57936285 50.36050143 82.4795306 44.82306576 90.13422108 Z M234.82306576 175.13422108 C234.43244076 173.14854399 234.04181576 171.16286691 233.65119076 169.17718983 C232.53241775 166.41719794 231.39101294 165.64472194 228.82306576 164.13422108 C225.62106291 163.6792529 225.62106291 163.6792529 222.00665951 163.74603748 C220.9912962 163.73815205 220.9912962 163.73815205 219.95542049 163.73010731 C217.72356575 163.71693098 215.49242744 163.72563639 213.26056576 163.73578358 C211.70644653 163.73376215 210.15232823 163.73085013 208.59821224 163.72708607 C205.34331882 163.72266595 202.08867261 163.72908354 198.83380795 163.7431078 C194.66398598 163.76019973 190.49474331 163.75035685 186.32494259 163.7323904 C183.11643779 163.72154401 179.90807007 163.72500279 176.69956112 163.73277378 C175.16218656 163.73477343 173.62479951 163.73232474 172.08743954 163.72533512 C169.9377822 163.71770628 167.7890598 163.72934352 165.63947201 163.74603748 C163.80557919 163.74961765 163.80557919 163.74961765 161.93463802 163.75327015 C158.32778765 164.19485816 157.22143623 164.41374623 154.82306576 167.13422108 C154.20130183 170.36293125 154.2887199 173.57309799 154.32186031 176.85187244 C154.31632592 177.86095645 154.31079152 178.87004046 154.30508941 179.90970278 C154.29142457 183.30705481 154.30648413 186.7036796 154.32135677 190.10101795 C154.31757573 192.53006268 154.31207747 194.95910527 154.30498409 197.38814259 C154.29243975 203.31042858 154.29862095 209.2325204 154.31365968 215.15478432 C154.33049915 222.04793722 154.32731213 228.94103679 154.32356559 235.8342039 C154.31768372 248.13135558 154.33187136 260.42840495 154.35651302 272.72552967 C154.38043479 284.66469629 154.38751772 296.6037262 154.37702084 308.54291248 C154.36561766 321.53623856 154.36367411 334.52950137 154.37811893 347.52282667 C154.37964481 348.90770085 154.38116517 350.29257504 154.38267994 351.67744923 C154.38343775 352.35887736 154.38419557 353.0403055 154.38497635 353.74238297 C154.38972383 358.55004277 154.38786445 363.35767437 154.38361454 368.16533375 C154.37818023 374.63315667 154.38890557 381.10083183 154.41056919 387.56862164 C154.41615071 389.94749212 154.41658994 392.32638082 154.41161633 394.70525265 C154.405695 397.94257182 154.41810823 401.1793036 154.4353857 404.41656971 C154.42937566 405.36684906 154.42336561 406.3171284 154.41717345 407.29620409 C154.42561339 408.16072585 154.43405333 409.0252476 154.44274902 409.91596699 C154.44377815 410.66352898 154.44480728 411.41109097 154.4458676 412.18130636 C154.93407019 414.70893807 155.78762255 415.59587542 157.82306576 417.13422108 C161.00656088 417.59951223 161.00656088 417.59951223 164.70954037 417.53827381 C165.40581036 417.54513706 166.10208035 417.55200031 166.81944942 417.55907154 C169.12164343 417.5773766 171.42315833 417.57349692 173.72540951 417.56781483 C175.32579934 417.57237506 176.92618721 417.57768016 178.52657223 417.58369923 C181.88158781 417.59263772 185.23636547 417.59019917 188.5913763 417.580266 C192.89025205 417.56877847 197.18830612 417.58897997 201.4870739 417.61818314 C204.79252494 417.63653302 208.09777867 417.6362551 211.40326786 417.63054562 C212.98810192 417.63039223 214.57294921 417.6364506 216.15773487 417.64883709 C218.37474558 417.6637224 220.59023345 417.65309028 222.80719662 417.63593006 C224.06833782 417.63576389 225.32947903 417.63559772 226.62883663 417.63542652 C230.49981698 417.02803226 231.43288442 416.17626531 233.82306576 413.13422108 C234.41784214 410.39831704 234.41784214 410.39831704 234.32186031 407.33635426 C234.33622631 405.5597366 234.33622631 405.5597366 234.35088253 403.74722767 C234.33626728 401.80301426 234.33626728 401.80301426 234.32135677 399.81952381 C234.32518079 398.43777856 234.33080055 397.05603728 234.33808041 395.67430592 C234.35003334 392.69932095 234.34953967 389.72468891 234.33948612 386.74969769 C234.3239107 382.03733505 234.33761596 377.32533378 234.3555212 372.6129961 C234.38635385 363.44968152 234.38784349 354.28647717 234.38587093 345.12312031 C234.3844789 333.48509493 234.39497926 321.84715572 234.43444866 310.20919281 C234.44931174 305.53394345 234.44916397 300.85901534 234.43697083 296.18376148 C234.43222739 293.26053999 234.43983029 290.33743886 234.45051479 287.41423702 C234.45403068 285.43278836 234.44270845 283.4513303 234.43077755 281.46991444 C234.49248397 270.47417045 236.06495448 258.44844773 243.76447201 250.00531483 C253.1493568 241.14271928 262.96761564 238.42849868 275.62775326 238.73578358 C282.7581048 239.19298211 288.83761893 242.01819804 293.78790951 247.18500233 C301.9093994 258.36446152 301.97022769 271.77290894 301.9807806 285.00824451 C301.98545494 286.41326015 301.99059952 287.81827429 301.99617672 289.22328663 C302.00740996 292.23740717 302.01586662 295.25151811 302.02229595 298.26565266 C302.03301401 303.03057465 302.05326522 307.79542664 302.07541561 312.5603075 C302.13722416 326.1055836 302.19143806 339.65085347 302.22443295 353.1962328 C302.24275626 360.68586933 302.27165362 368.17538651 302.31243765 375.66493535 C302.33352767 379.62597759 302.34896792 383.58686941 302.35124493 387.54797077 C302.35338633 391.26796564 302.36920291 394.9876461 302.39563465 398.70754528 C302.4062899 400.72625314 302.40206593 402.74502223 302.39745235 404.76375294 C302.40854534 405.96098484 302.41963833 407.15821674 302.43106747 408.3917284 C302.43603269 409.9557395 302.43603269 409.9557395 302.44109821 411.55134678 C302.62290884 414.15550819 302.62290884 414.15550819 304.1530695 415.96889687 C306.89463629 417.88196352 309.52619871 417.52439442 312.81720638 417.53827381 C313.52483624 417.54513706 314.23246609 417.55200031 314.96153927 417.55907154 C317.30100209 417.57737569 319.63979669 417.57349757 321.97931576 417.56781483 C323.60452144 417.57237459 325.22972518 417.57767954 326.85492611 417.58369923 C330.2612151 417.59263715 333.66726972 417.59019919 337.07355404 417.580266 C341.44202517 417.56876922 345.80968883 417.58899451 350.17805386 417.61818314 C353.53407599 417.63651434 356.88990347 417.636259 360.2459631 417.63054562 C361.85674326 417.63039205 363.46753634 417.63646513 365.078269 417.64883709 C367.3290058 417.66368991 369.57823602 417.65311481 371.82892513 417.63593006 C373.11005184 417.63576389 374.39117855 417.63559772 375.71112728 417.63542652 C378.83166075 417.43946072 378.83166075 417.43946072 380.49375248 415.50181389 C382.22260554 412.42261492 382.20052602 410.2785471 382.20401669 406.75153065 C382.21247616 405.43708469 382.22093563 404.12263874 382.22965145 402.76836109 C382.22381812 401.31283923 382.21767359 399.85731858 382.21124935 398.4017992 C382.21531535 396.86717321 382.22065739 395.33255014 382.22717953 393.79793262 C382.24087409 389.62539931 382.23554084 385.45308824 382.22604227 381.28055096 C382.21843486 376.89766189 382.22549632 372.51479158 382.23020077 368.13190174 C382.23566439 360.75422235 382.22846045 353.3766329 382.21417904 345.99896717 C382.19794808 337.51727539 382.20306845 329.03580106 382.21965826 320.55411482 C382.23337222 313.24590773 382.235142 305.93776534 382.22734225 298.6295495 C382.22270717 294.2772346 382.22192213 289.92502095 382.23195171 285.5727129 C382.30466461 248.95912924 379.75288216 214.1679427 353.19806576 186.38812733 C332.82718374 166.93511935 308.04073729 160.6076652 280.63165951 160.92328358 C264.56950104 161.34344661 248.43654109 166.58798379 234.82306576 175.13422108 Z M35.61958122 165.55626392 C32.86887646 169.50346012 33.27373538 173.18519234 33.32186031 177.8894701 C33.31632592 178.89053586 33.31079152 179.89160163 33.30508941 180.92300272 C33.29144425 184.28727894 33.30647355 187.65081827 33.32135677 191.01508045 C33.31757502 193.42294601 33.31207617 195.8308094 33.30498409 198.23866749 C33.29244757 204.10567306 33.29861399 209.97248248 33.31365968 215.83946574 C33.33051063 222.67013326 33.32731067 229.50074706 33.32356559 236.33142895 C33.31768545 248.51817789 33.33186457 260.70482356 33.35651302 272.8915453 C33.38043428 284.7200352 33.3875175 296.54838711 33.37702084 308.37689686 C33.36561434 321.25377759 33.36367823 334.13059447 33.37811893 347.00747442 C33.37964479 348.38027445 33.38116515 349.75307448 33.38267994 351.12587452 C33.38343775 351.80133874 33.38419557 352.47680295 33.38497635 353.17273578 C33.38972126 357.93535376 33.38786627 362.69794325 33.38361454 367.4605608 C33.37817655 373.86930474 33.38891863 380.27789967 33.41056919 386.68661022 C33.41614643 389.04248565 33.41659383 391.39837947 33.41161633 393.75425625 C33.40568632 396.96270945 33.41812514 400.17057216 33.4353857 403.37897205 C33.42937566 404.31787454 33.42336561 405.25677703 33.41717345 406.22413111 C33.46203092 411.14562205 33.46203092 411.14562205 35.11483574 415.71217823 C38.06236666 418.16589653 41.62825245 417.68806165 45.28595638 417.6517992 C46.58148685 417.66231312 46.58148685 417.66231312 47.90318966 417.67303944 C50.76222403 417.69066539 53.62027107 417.67898052 56.47931576 417.66547108 C58.4632451 417.66816467 60.44717317 417.67204598 62.43109798 417.67706776 C66.59069026 417.68296904 70.74993915 417.67437952 74.90949154 417.65570545 C80.24648272 417.63291562 85.58266936 417.64603532 90.919631 417.66999531 C95.01683288 417.68443623 99.11384341 417.67985513 103.21105099 417.66948414 C105.1790797 417.66681213 107.14712568 417.6701032 109.11513424 417.67940235 C111.86395059 417.68953988 114.61145662 417.67410651 117.36017513 417.6517992 C118.58525028 417.66394459 118.58525028 417.66394459 119.83507442 417.67633533 C124.0009788 417.66795476 124.0009788 417.66795476 127.53129578 415.71217823 C129.5440738 411.69532106 129.2391216 407.81189988 129.21074581 403.37897205 C129.21613135 402.37790629 129.22151689 401.37684052 129.22706562 400.34543943 C129.24140637 396.98128953 129.23422631 393.61752972 129.22711849 390.2533617 C129.23281881 387.84549612 129.23978175 385.43763325 129.24791622 383.02977467 C129.26403018 377.16281242 129.26594094 371.29594903 129.26070332 365.42897642 C129.25666376 360.66126473 129.25810261 355.89358469 129.26345158 351.12587452 C129.2642 350.44760787 129.26494842 349.76934121 129.26571952 349.07052103 C129.26725098 347.69268508 129.26878932 346.31484914 129.27033449 344.93701321 C129.2840652 332.01353019 129.27861762 319.09010768 129.26714928 306.16662604 C129.25721411 294.33901228 129.27016139 282.5115549 129.29408347 270.68396527 C129.31845475 258.54294978 129.32808735 246.40200719 129.32143074 234.26096773 C129.3179344 227.44322601 129.32019795 220.62560461 129.33768177 213.80788136 C129.35391283 207.39912119 129.34925289 200.99058663 129.33037663 194.58183193 C129.32667652 192.22595052 129.32984028 189.87004717 129.34026241 187.51418591 C129.35337636 184.3055972 129.34200966 181.09801463 129.3242712 177.8894701 C129.33387621 176.95056761 129.34348122 176.01166512 129.35337728 175.04431105 C129.31862964 169.9734997 129.31862964 169.9734997 127.02655029 165.55626392 C123.66367677 163.38599672 120.31859577 163.57709544 116.44611263 163.61664295 C115.60339306 163.60963367 114.76067348 163.6026244 113.89241695 163.59540272 C111.1085474 163.57780663 108.32569553 163.58945099 105.54181576 163.60297108 C103.60655173 163.60027662 101.67128902 163.59639459 99.73602962 163.5913744 C95.68076337 163.58547717 91.62584962 163.59404958 87.57062435 163.6127367 C82.37163644 163.63552634 77.17347447 163.62240447 71.97451687 163.59844685 C67.97849965 163.58399497 63.98267835 163.58859206 59.98665524 163.59895802 C58.06969257 163.60162699 56.15271214 163.59834955 54.23577023 163.5890398 C51.55670693 163.57888425 48.87898242 163.59436081 46.20001888 163.61664295 C45.40716991 163.60854603 44.61432095 163.6004491 43.79744625 163.59210682 C40.61478594 163.64116483 38.32534823 163.81006759 35.61958122 165.55626392 Z " fill="#000000" transform="translate(48.176934242248535,7.865778923034668)"/>
</svg>
