<?xml version="1.0" encoding="UTF-8"?>
<svg version="1.1" xmlns="http://www.w3.org/2000/svg" width="512" height="512">
<path d="M0 0 C1.51427582 0.00081573 1.51427582 0.00081573 3.05914307 0.00164795 C19.57458953 0.04242844 35.47683935 0.97005679 51.6875 4.375 C52.70279785 4.58398926 53.7180957 4.79297852 54.76416016 5.00830078 C91.90796555 12.90054656 126.77195445 29.00404422 156.6875 52.375 C157.65945313 53.13425781 158.63140625 53.89351562 159.6328125 54.67578125 C175.01241644 67.01013598 189.56515196 80.81104501 201.6875 96.375 C202.83412109 97.77878906 202.83412109 97.77878906 204.00390625 99.2109375 C238.63252637 142.45502491 257.12615997 197.95439907 257.00317383 253.10229492 C257.0000221 256.04188487 257.02354926 258.9804558 257.04882812 261.91992188 C257.09348737 275.29306192 255.88801542 288.18916711 253.6875 301.375 C253.40531616 303.08055054 253.40531616 303.08055054 253.11743164 304.82055664 C246.09196967 343.93204746 229.10915906 381.11452178 204.6875 412.375 C203.92824219 413.34695313 203.16898437 414.31890625 202.38671875 415.3203125 C190.05236402 430.69991644 176.25145499 445.25265196 160.6875 457.375 C159.75164062 458.13941406 158.81578125 458.90382813 157.8515625 459.69140625 C128.80949344 482.94745898 93.30462951 499.16603386 57.0625 507.1875 C56.24297852 507.37014404 55.42345703 507.55278809 54.57910156 507.7409668 C36.8654046 511.40452755 19.31180281 512.90209412 1.25 512.75 C0.26925507 512.74567963 -0.71148987 512.74135925 -1.72195435 512.73690796 C-16.09316276 512.66281224 -30.1865654 512.24346355 -44.3125 509.375 C-45.21291016 509.19807617 -46.11332031 509.02115234 -47.04101562 508.83886719 C-53.51545153 507.5399419 -59.92124463 506.03361797 -66.3125 504.375 C-67.14313965 504.16004883 -67.9737793 503.94509766 -68.82958984 503.72363281 C-84.42733696 499.58690622 -100.43250909 494.07001267 -114.453125 486.0078125 C-122.16999034 482.16601297 -131.94846291 486.53181011 -139.6484375 488.875 C-140.82977768 489.22703491 -142.01111786 489.57906982 -143.22825623 489.94177246 C-146.39723125 490.88613145 -149.56436398 491.83641189 -152.73108292 492.78829956 C-158.61875679 494.55392555 -164.51421339 496.29347398 -170.41015625 498.03125 C-171.05594572 498.22173416 -171.70173519 498.41221832 -172.36709404 498.60847473 C-183.56763808 501.90780546 -194.80525771 505.01231254 -206.125 507.875 C-206.83879822 508.05595215 -207.55259644 508.2369043 -208.2880249 508.42333984 C-236.18933974 515.46878777 -236.18933974 515.46878777 -244.9375 510.25 C-250.13305926 506.262973 -254.42663387 501.29302535 -255.89453125 494.80078125 C-256.79203812 482.67683249 -251.23960159 472.92300167 -246.14892578 462.24560547 C-244.11936742 457.98591771 -242.14949956 453.69951507 -240.18359375 449.41015625 C-239.82711761 448.63288681 -239.47064148 447.85561737 -239.10336304 447.05479431 C-238.37344041 445.46281793 -237.64371575 443.87075077 -236.91418457 442.27859497 C-235.45378768 439.09238113 -233.99099964 435.90726901 -232.52767944 432.72239685 C-231.81219705 431.16506507 -231.09704482 429.60758155 -230.38223267 428.04994202 C-228.45289313 423.84753005 -226.51177104 419.65093222 -224.5585022 415.45959473 C-223.23337096 412.60444296 -221.93074843 409.7390561 -220.625 406.875 C-220.14933594 405.86759766 -219.67367187 404.86019531 -219.18359375 403.82226562 C-218.76851562 402.90123047 -218.3534375 401.98019531 -217.92578125 401.03125 C-217.56266846 400.24556641 -217.19955566 399.45988281 -216.82543945 398.65039062 C-215.83628287 394.26250899 -218.65295803 390.60252278 -220.78125 386.8828125 C-237.05645297 358.02983774 -248.08087389 328.16712659 -253.3125 295.375 C-253.59178345 293.63923706 -253.59178345 293.63923706 -253.87670898 291.8684082 C-255.55284055 280.19063786 -255.66967241 268.59490747 -255.625 256.8125 C-255.62176727 255.28189438 -255.62176727 255.28189438 -255.61846924 253.72036743 C-255.56883352 239.09289476 -255.32169712 224.74236162 -252.3125 210.375 C-252.11382324 209.40014648 -251.91514648 208.42529297 -251.71044922 207.42089844 C-241.4147891 158.2022446 -218.97831567 114.77250304 -184.3125 78.375 C-183.74225098 77.77606934 -183.17200195 77.17713867 -182.58447266 76.56005859 C-174.58421874 68.21973469 -166.36783043 60.57447864 -157.08056641 53.68994141 C-155.27307641 52.34568 -153.48576388 50.97740873 -151.69921875 49.60546875 C-143.29202986 43.21640681 -134.54888957 37.67418285 -125.33984375 32.51416016 C-123.47683792 31.46734113 -121.62866361 30.39821119 -119.78125 29.32421875 C-83.31312007 8.83142952 -41.50347793 -0.0844312 0 0 Z M-156.49072266 115.40087891 C-193.8603736 155.89551808 -212.49469688 211.74902978 -210.3125 266.375 C-208.44378696 305.11232214 -195.92255899 342.22273656 -174.3125 374.375 C-173.36117187 375.79619141 -173.36117187 375.79619141 -172.390625 377.24609375 C-171.39391676 378.72929054 -170.38946077 380.20737101 -169.37109375 381.67578125 C-166.08745265 386.94657047 -166.67233625 393.4353937 -167.3125 399.375 C-168.80189075 404.20908515 -170.90641149 408.64892837 -173.125 413.1875 C-173.71558184 414.44196611 -174.30368109 415.69760371 -174.8894043 416.9543457 C-176.08571146 419.51245948 -177.29469269 422.06390083 -178.515625 424.61035156 C-180.78090209 429.34126749 -182.97398698 434.10416496 -185.16088867 438.87182617 C-186.12070878 440.96352018 -187.0868037 443.05234876 -188.05981445 445.13793945 C-188.70503052 446.52952271 -188.70503052 446.52952271 -189.36328125 447.94921875 C-189.93042847 449.16484497 -189.93042847 449.16484497 -190.5090332 450.4050293 C-191.43838469 452.32906217 -191.43838469 452.32906217 -191.3125 454.375 C-182.98851303 453.0516857 -174.99652256 451.00850697 -166.90234375 448.6796875 C-164.99497148 448.14128036 -163.08759463 447.60288893 -161.17996311 447.06540108 C-156.53131705 445.75431844 -151.88557563 444.43320992 -147.24291992 443.10107422 C-144.62026634 442.34903359 -141.99578837 441.60407408 -139.36903381 440.8664856 C-136.91176338 440.17609294 -134.4573215 439.47552406 -132.0063324 438.76315308 C-118.26256381 434.92842958 -109.81530399 436.18360398 -97.4362793 443.06103516 C-70.76631467 457.80698406 -39.78454418 466.25893179 -9.3125 467.375 C-8.23621338 467.41584717 -8.23621338 467.41584717 -7.13818359 467.45751953 C24.20148274 468.48135494 54.88828912 462.73456663 83.6875 450.375 C84.49380859 450.03098145 85.30011719 449.68696289 86.13085938 449.33251953 C109.18187044 439.33971057 129.12882954 425.10058237 147.21191406 407.78759766 C148.57877014 406.47908851 149.9568898 405.18237271 151.3359375 403.88671875 C157.66399741 397.78822568 163.07938991 391.1643403 168.34814453 384.15429688 C169.20959227 383.00988727 170.07728106 381.87013499 170.95263672 380.73632812 C193.48041044 351.53332752 206.15442174 315.72992648 210.6875 279.375 C210.81898438 278.36179687 210.95046875 277.34859375 211.0859375 276.3046875 C216.73365143 222.72772562 199.54500467 167.34956833 166.10839844 125.39355469 C129.77143632 81.086193 79.0400517 52.26297084 21.8125 46.125 C-46.28538054 39.70067165 -109.81954918 66.3802882 -156.49072266 115.40087891 Z " fill="#38AE40" transform="translate(255.3125,-0.375)"/>
<path d="M0 0 C16.00482786 12.30371142 25.69491818 31.2001117 29 51 C30.20690193 66.27423426 24.5961289 74.70515874 15.1484375 86.265625 C14.60445313 86.94109375 14.06046875 87.6165625 13.5 88.3125 C13.0153125 88.88613281 12.530625 89.45976562 12.03125 90.05078125 C10.49841312 92.94807521 10.57291555 94.74788907 11 98 C12.17367446 100.69974895 13.70037101 103.10466891 15.3125 105.5625 C15.75891846 106.25923828 16.20533691 106.95597656 16.6652832 107.67382812 C21.2195156 114.61873577 26.48247476 120.81316377 32 127 C32.59167969 127.71285156 33.18335938 128.42570313 33.79296875 129.16015625 C49.38100448 147.90428811 74.25061939 166.29772081 98 173 C102.72129428 172.76715548 104.37582746 172.58346563 107.875 169.3125 C110.21910546 166.30132198 112.2074717 163.09450601 114.2199707 159.85522461 C119.37121681 151.58121928 124.09213539 144.61319929 134 142 C152.17261418 141.02243869 171.15032661 149.43897375 184.77734375 160.89453125 C192.06113513 167.79429145 197.0258443 174.96275781 197.5 185.1875 C197.1273333 198.7432513 189.32572486 210.17045833 179.75 219.3125 C164.81879775 231.78925805 146.68063254 233.37677528 128 232 C88.44742541 227.58647113 52.1638036 204.66047684 22 180 C21.45730469 179.56171875 20.91460937 179.1234375 20.35546875 178.671875 C5.2617024 166.42395004 -9.30096712 152.55414277 -21 137 C-21.92161414 135.83990247 -22.84492204 134.68114934 -23.76953125 133.5234375 C-40.45485542 112.33413269 -55.73439337 85.63241133 -57 58 C-57.0515625 57.26265625 -57.103125 56.5253125 -57.15625 55.765625 C-57.80616994 39.19266661 -51.93577554 23.38266051 -41.125 10.9375 C-30.50773035 0.0915507 -14.83382269 -9.15524994 0 0 Z " fill="#38AE41" transform="translate(187,142)"/>
</svg>
