<svg width="18" height="23" viewBox="0 0 18 23" fill="none" xmlns="http://www.w3.org/2000/svg">
<path d="M0.515 22.8691C0.671187 22.9595 0.847693 23.0046 1.02618 22.9996C1.20467 22.9947 1.37863 22.9398 1.53 22.8408L9 17.9597L16.47 22.8408C16.6214 22.9397 16.7953 22.9945 16.9738 22.9994C17.1522 23.0043 17.3286 22.9591 17.4848 22.8687C17.6409 22.7782 17.771 22.6457 17.8616 22.4849C17.9522 22.3241 18 22.1409 18 21.9543V3.13633C18 2.30452 17.6839 1.50678 17.1213 0.918609C16.5587 0.330433 15.7956 0 15 0H3C2.20435 0 1.44129 0.330433 0.87868 0.918609C0.316071 1.50678 1.1803e-07 2.30452 1.1803e-07 3.13633V21.9543C-8.66149e-05 22.1409 0.0476293 22.3242 0.138192 22.4851C0.228755 22.6459 0.358862 22.7785 0.515 22.8691ZM2 3.13633C2 2.85906 2.10536 2.59315 2.29289 2.39709C2.48043 2.20103 2.73478 2.09088 3 2.09088H15C15.2652 2.09088 15.5196 2.20103 15.7071 2.39709C15.8946 2.59315 16 2.85906 16 3.13633V20.0725L9.53 15.8447C9.37107 15.7409 9.18742 15.6858 9 15.6858C8.81258 15.6858 8.62893 15.7409 8.47 15.8447L2 20.0725V3.13633Z" fill="#BDBDBD"/>
</svg>
